M48
;Layer_Color=9474304
;FILE_FORMAT=2:5
INCH,LZ
;TYPE=PLATED
T1F00S00C0.00984
T2F00S00C0.01181
T3F00S00C0.02756
T5F00S00C0.03543
;TYPE=NON_PLATED
T7F00S00C0.01968
%
T01
X0124218Y0047646
X0109163Y0053125
T02
X0242692Y0139739
X0256865
T03
X0241824Y0066535
X0249697
X0257572
T05
X001791Y0069586
X002133Y0078983
X0030029Y0102883
X0033449Y0112279
X0048793Y0237297
X0046205Y0246956
T07
X0168496Y0008061
X017121Y0007582
X0173924Y0007104
X0176638Y0006625
X0179352Y0006147
X0192451Y0060356
X0194862Y005902
X0197272Y0057683
X0199682Y0056347
X0202093Y0055011
X0015526Y0088949
X0016468Y0091539
X0017411Y0094129
X0018354Y0096719
X0019296Y0099308
X020159Y0099569
X020097Y0102254
X020035Y0104939
X019973Y0107625
X019911Y011031
Y0169193
X019973Y0171878
X020035Y0174564
X020097Y0177249
X020159Y0179934
X0182966Y0179625
Y0176869
X0182966Y0182381
X0182966Y0185137
X0182966Y0187892
X0140378
X0140378Y0185137
X0140378Y0182381
X0140378Y0179625
Y0176869
X0298424Y0177251
X0299044Y0174566
X0299664Y017188
X0300284Y0169195
X0297804Y0179936
X0300284Y0110308
X0299664Y0107623
X0299044Y0104937
X0298424Y0102252
X0297804Y0099567
X0162435Y0280334
X0159773Y027962
X0157111Y0278907
X0154449Y0278194
X0151787Y0277481
M30
