G04*
G04 #@! TF.GenerationSoftware,Altium Limited,Altium Designer,22.2.0 (33)*
G04*
G04 Layer_Color=16751052*
%FSLAX25Y25*%
%MOIN*%
G70*
G04*
G04 #@! TF.SameCoordinates,AE1C0F29-CF17-4AF8-ABE1-3241E8FB01DF*
G04*
G04*
G04 #@! TF.FilePolarity,Positive*
G04*
G01*
G75*
%ADD10C,0.01575*%
%ADD11C,0.00787*%
%ADD12C,0.00591*%
%ADD21C,0.00394*%
%ADD22C,0.00984*%
%ADD55C,0.03937*%
G36*
X708815Y-141778D02*
X710533D01*
Y-142065D01*
X711392D01*
Y-142351D01*
X712251D01*
Y-142637D01*
X713110D01*
Y-142924D01*
X713683D01*
Y-143210D01*
X713969D01*
Y-143496D01*
X714542D01*
Y-143783D01*
X714828D01*
Y-144069D01*
X715401D01*
Y-144355D01*
X715687D01*
Y-144641D01*
X715973D01*
Y-144928D01*
X716260D01*
Y-145214D01*
X716546D01*
Y-145501D01*
X716832D01*
Y-145787D01*
X717119D01*
Y-146073D01*
Y-146359D01*
X717405D01*
Y-146646D01*
X717691D01*
Y-146932D01*
Y-147218D01*
X717978D01*
Y-147505D01*
X718264D01*
Y-147791D01*
Y-148077D01*
X718550D01*
Y-148364D01*
Y-148650D01*
Y-148936D01*
X718836D01*
Y-149223D01*
Y-149509D01*
Y-149795D01*
X719123D01*
Y-150082D01*
Y-150368D01*
Y-150654D01*
Y-150940D01*
X719409D01*
Y-151227D01*
Y-151513D01*
Y-151799D01*
Y-152086D01*
Y-152372D01*
X719695D01*
Y-152658D01*
Y-152945D01*
Y-153231D01*
Y-153517D01*
Y-153804D01*
Y-154090D01*
Y-154376D01*
Y-154663D01*
Y-154949D01*
Y-155235D01*
Y-155521D01*
Y-155808D01*
Y-156094D01*
Y-156380D01*
Y-156667D01*
Y-156953D01*
Y-157239D01*
Y-157526D01*
Y-157812D01*
Y-158098D01*
X719409D01*
Y-158385D01*
Y-158671D01*
Y-158957D01*
Y-159244D01*
Y-159530D01*
Y-159816D01*
Y-160102D01*
X719123D01*
Y-160389D01*
Y-160675D01*
Y-160961D01*
Y-161248D01*
Y-161534D01*
X718836D01*
Y-161820D01*
Y-162107D01*
Y-162393D01*
Y-162679D01*
Y-162966D01*
X718550D01*
Y-163252D01*
Y-163538D01*
Y-163824D01*
X718264D01*
Y-164111D01*
Y-164397D01*
Y-164683D01*
Y-164970D01*
X717978D01*
Y-165256D01*
Y-165542D01*
Y-165829D01*
X717691D01*
Y-166115D01*
Y-166401D01*
X717405D01*
Y-166688D01*
Y-166974D01*
Y-167260D01*
X717119D01*
Y-167547D01*
Y-167833D01*
X716832D01*
Y-168119D01*
Y-168405D01*
X716546D01*
Y-168692D01*
Y-168978D01*
X716260D01*
Y-169264D01*
X715973D01*
Y-169551D01*
Y-169837D01*
X715687D01*
Y-170123D01*
X715401D01*
Y-170410D01*
X715114D01*
Y-170696D01*
Y-170982D01*
X714828D01*
Y-171269D01*
X714542D01*
Y-171555D01*
X714256D01*
Y-171841D01*
X713969D01*
Y-172127D01*
X713683D01*
Y-172414D01*
X713110D01*
Y-172700D01*
X712824D01*
Y-172986D01*
X712251D01*
Y-173273D01*
X711965D01*
Y-173559D01*
X711392D01*
Y-173845D01*
X710533D01*
Y-174132D01*
X709674D01*
Y-174418D01*
X708815D01*
Y-174704D01*
X707098D01*
Y-174991D01*
X701944D01*
Y-174704D01*
X699367D01*
Y-174418D01*
X697363D01*
Y-174132D01*
X695931D01*
Y-173845D01*
X694500D01*
Y-173559D01*
X693068D01*
Y-173845D01*
Y-174132D01*
Y-174418D01*
Y-174704D01*
Y-174991D01*
Y-175277D01*
Y-175563D01*
X692782D01*
Y-175850D01*
Y-176136D01*
Y-176422D01*
Y-176709D01*
Y-176995D01*
Y-177281D01*
X692496D01*
Y-177568D01*
Y-177854D01*
Y-178140D01*
Y-178426D01*
Y-178713D01*
Y-178999D01*
X692209D01*
Y-179285D01*
Y-179572D01*
Y-179858D01*
Y-180144D01*
Y-180431D01*
Y-180717D01*
Y-181003D01*
X691923D01*
Y-181290D01*
Y-181576D01*
Y-181862D01*
Y-182149D01*
Y-182435D01*
Y-182721D01*
X691637D01*
Y-183007D01*
Y-183294D01*
Y-183580D01*
Y-183866D01*
Y-184153D01*
Y-184439D01*
X691350D01*
Y-184725D01*
Y-185012D01*
Y-185298D01*
Y-185584D01*
Y-185871D01*
Y-186157D01*
Y-186443D01*
X691064D01*
Y-186730D01*
Y-187016D01*
Y-187302D01*
Y-187588D01*
Y-187875D01*
Y-188161D01*
X690778D01*
Y-188447D01*
Y-188734D01*
Y-189020D01*
Y-189306D01*
Y-189593D01*
Y-189879D01*
X690491D01*
Y-190165D01*
Y-190452D01*
Y-190738D01*
Y-191024D01*
Y-191311D01*
Y-191597D01*
Y-191883D01*
X677035D01*
Y-191597D01*
X677321D01*
Y-191311D01*
Y-191024D01*
Y-190738D01*
Y-190452D01*
Y-190165D01*
X677607D01*
Y-189879D01*
Y-189593D01*
Y-189306D01*
Y-189020D01*
Y-188734D01*
Y-188447D01*
Y-188161D01*
X677894D01*
Y-187875D01*
Y-187588D01*
Y-187302D01*
Y-187016D01*
Y-186730D01*
Y-186443D01*
X678180D01*
Y-186157D01*
Y-185871D01*
Y-185584D01*
Y-185298D01*
Y-185012D01*
Y-184725D01*
X678466D01*
Y-184439D01*
Y-184153D01*
Y-183866D01*
Y-183580D01*
Y-183294D01*
Y-183007D01*
Y-182721D01*
X678753D01*
Y-182435D01*
Y-182149D01*
Y-181862D01*
Y-181576D01*
Y-181290D01*
Y-181003D01*
X679039D01*
Y-180717D01*
Y-180431D01*
Y-180144D01*
Y-179858D01*
Y-179572D01*
Y-179285D01*
X679325D01*
Y-178999D01*
Y-178713D01*
Y-178426D01*
Y-178140D01*
Y-177854D01*
Y-177568D01*
X679612D01*
Y-177281D01*
Y-176995D01*
Y-176709D01*
Y-176422D01*
Y-176136D01*
Y-175850D01*
Y-175563D01*
X679898D01*
Y-175277D01*
Y-174991D01*
Y-174704D01*
Y-174418D01*
Y-174132D01*
Y-173845D01*
X680184D01*
Y-173559D01*
Y-173273D01*
Y-172986D01*
Y-172700D01*
Y-172414D01*
Y-172127D01*
X680471D01*
Y-171841D01*
Y-171555D01*
Y-171269D01*
Y-170982D01*
Y-170696D01*
Y-170410D01*
X680757D01*
Y-170123D01*
Y-169837D01*
Y-169551D01*
Y-169264D01*
Y-168978D01*
Y-168692D01*
Y-168405D01*
X681043D01*
Y-168119D01*
Y-167833D01*
Y-167547D01*
Y-167260D01*
Y-166974D01*
Y-166688D01*
X681329D01*
Y-166401D01*
Y-166115D01*
Y-165829D01*
Y-165542D01*
Y-165256D01*
Y-164970D01*
X681616D01*
Y-164683D01*
Y-164397D01*
Y-164111D01*
Y-163824D01*
Y-163538D01*
Y-163252D01*
Y-162966D01*
X681902D01*
Y-162679D01*
Y-162393D01*
Y-162107D01*
Y-161820D01*
Y-161534D01*
Y-161248D01*
X682188D01*
Y-160961D01*
Y-160675D01*
Y-160389D01*
Y-160102D01*
Y-159816D01*
Y-159530D01*
X682475D01*
Y-159244D01*
Y-158957D01*
Y-158671D01*
Y-158385D01*
Y-158098D01*
Y-157812D01*
X682761D01*
Y-157526D01*
Y-157239D01*
Y-156953D01*
Y-156667D01*
Y-156380D01*
Y-156094D01*
Y-155808D01*
X683047D01*
Y-155521D01*
Y-155235D01*
Y-154949D01*
Y-154663D01*
Y-154376D01*
Y-154090D01*
X683334D01*
Y-153804D01*
Y-153517D01*
Y-153231D01*
Y-152945D01*
Y-152658D01*
Y-152372D01*
X683620D01*
Y-152086D01*
Y-151799D01*
Y-151513D01*
Y-151227D01*
Y-150940D01*
Y-150654D01*
Y-150368D01*
X683906D01*
Y-150082D01*
Y-149795D01*
Y-149509D01*
Y-149223D01*
Y-148936D01*
Y-148650D01*
X684193D01*
Y-148364D01*
Y-148077D01*
Y-147791D01*
Y-147505D01*
Y-147218D01*
Y-146932D01*
X684479D01*
Y-146646D01*
Y-146359D01*
Y-146073D01*
Y-145787D01*
Y-145501D01*
Y-145214D01*
Y-144928D01*
X684765D01*
Y-144641D01*
Y-144355D01*
Y-144069D01*
Y-143783D01*
Y-143496D01*
Y-143210D01*
X685052D01*
Y-142924D01*
Y-142637D01*
Y-142351D01*
Y-142065D01*
Y-141778D01*
Y-141492D01*
X708815D01*
Y-141778D01*
D02*
G37*
G36*
X740024Y-138343D02*
Y-138629D01*
X739737D01*
Y-138915D01*
Y-139202D01*
Y-139488D01*
Y-139774D01*
Y-140060D01*
Y-140347D01*
X739451D01*
Y-140633D01*
Y-140919D01*
Y-141206D01*
Y-141492D01*
Y-141778D01*
Y-142065D01*
X739165D01*
Y-142351D01*
Y-142637D01*
Y-142924D01*
Y-143210D01*
Y-143496D01*
Y-143783D01*
Y-144069D01*
X738878D01*
Y-144355D01*
Y-144641D01*
Y-144928D01*
Y-145214D01*
Y-145501D01*
Y-145787D01*
X738592D01*
Y-146073D01*
Y-146359D01*
Y-146646D01*
Y-146932D01*
Y-147218D01*
Y-147505D01*
X738306D01*
Y-147791D01*
Y-148077D01*
Y-148364D01*
Y-148650D01*
Y-148936D01*
Y-149223D01*
Y-149509D01*
X738019D01*
Y-149795D01*
Y-150082D01*
Y-150368D01*
Y-150654D01*
Y-150940D01*
Y-151227D01*
X737733D01*
Y-151513D01*
Y-151799D01*
Y-152086D01*
Y-152372D01*
Y-152658D01*
Y-152945D01*
X737447D01*
Y-153231D01*
Y-153517D01*
Y-153804D01*
Y-154090D01*
Y-154376D01*
Y-154663D01*
X737160D01*
Y-154949D01*
Y-155235D01*
Y-155521D01*
Y-155808D01*
Y-156094D01*
Y-156380D01*
Y-156667D01*
X736874D01*
Y-156953D01*
Y-157239D01*
Y-157526D01*
Y-157812D01*
Y-158098D01*
Y-158385D01*
X736588D01*
Y-158671D01*
Y-158957D01*
X737160D01*
Y-158671D01*
X737447D01*
Y-158385D01*
X737733D01*
Y-158098D01*
X738306D01*
Y-157812D01*
X738592D01*
Y-157526D01*
X738878D01*
Y-157239D01*
X739451D01*
Y-156953D01*
X740024D01*
Y-156667D01*
X740310D01*
Y-156380D01*
X740882D01*
Y-156094D01*
X741742D01*
Y-155808D01*
X742314D01*
Y-155521D01*
X743173D01*
Y-155235D01*
X744605D01*
Y-154949D01*
X750904D01*
Y-155235D01*
X752049D01*
Y-155521D01*
X752908D01*
Y-155808D01*
X753480D01*
Y-156094D01*
X753767D01*
Y-156380D01*
X754339D01*
Y-156667D01*
X754626D01*
Y-156953D01*
X754912D01*
Y-157239D01*
X755198D01*
Y-157526D01*
X755484D01*
Y-157812D01*
Y-158098D01*
X755771D01*
Y-158385D01*
Y-158671D01*
X756057D01*
Y-158957D01*
Y-159244D01*
Y-159530D01*
X756344D01*
Y-159816D01*
Y-160102D01*
Y-160389D01*
Y-160675D01*
X756630D01*
Y-160961D01*
Y-161248D01*
Y-161534D01*
Y-161820D01*
Y-162107D01*
Y-162393D01*
Y-162679D01*
Y-162966D01*
Y-163252D01*
Y-163538D01*
Y-163824D01*
Y-164111D01*
Y-164397D01*
Y-164683D01*
Y-164970D01*
Y-165256D01*
Y-165542D01*
Y-165829D01*
X756344D01*
Y-166115D01*
Y-166401D01*
Y-166688D01*
Y-166974D01*
Y-167260D01*
Y-167547D01*
Y-167833D01*
X756057D01*
Y-168119D01*
Y-168405D01*
Y-168692D01*
Y-168978D01*
Y-169264D01*
Y-169551D01*
Y-169837D01*
X755771D01*
Y-170123D01*
Y-170410D01*
Y-170696D01*
Y-170982D01*
Y-171269D01*
Y-171555D01*
X755484D01*
Y-171841D01*
Y-172127D01*
Y-172414D01*
Y-172700D01*
Y-172986D01*
Y-173273D01*
X755198D01*
Y-173559D01*
Y-173845D01*
Y-174132D01*
Y-174418D01*
Y-174704D01*
Y-174991D01*
X754912D01*
Y-175277D01*
Y-175563D01*
Y-175850D01*
Y-176136D01*
Y-176422D01*
Y-176709D01*
Y-176995D01*
X754626D01*
Y-177281D01*
Y-177568D01*
Y-177854D01*
Y-178140D01*
Y-178426D01*
Y-178713D01*
X754339D01*
Y-178999D01*
Y-179285D01*
Y-179572D01*
Y-179858D01*
Y-180144D01*
Y-180431D01*
X754053D01*
Y-180717D01*
Y-181003D01*
Y-181290D01*
Y-181576D01*
Y-181862D01*
Y-182149D01*
Y-182435D01*
X753767D01*
Y-182721D01*
Y-183007D01*
Y-183294D01*
Y-183580D01*
Y-183866D01*
Y-184153D01*
X753480D01*
Y-184439D01*
Y-184725D01*
Y-185012D01*
Y-185298D01*
Y-185584D01*
Y-185871D01*
X753194D01*
Y-186157D01*
Y-186443D01*
Y-186730D01*
Y-187016D01*
Y-187302D01*
Y-187588D01*
X752908D01*
Y-187875D01*
Y-188161D01*
Y-188447D01*
Y-188734D01*
Y-189020D01*
Y-189306D01*
Y-189593D01*
X752621D01*
Y-189879D01*
Y-190165D01*
Y-190452D01*
Y-190738D01*
Y-191024D01*
Y-191311D01*
X752335D01*
Y-191597D01*
Y-191883D01*
X739165D01*
Y-191597D01*
Y-191311D01*
X739451D01*
Y-191024D01*
Y-190738D01*
Y-190452D01*
Y-190165D01*
Y-189879D01*
Y-189593D01*
X739737D01*
Y-189306D01*
Y-189020D01*
Y-188734D01*
Y-188447D01*
Y-188161D01*
Y-187875D01*
Y-187588D01*
X740024D01*
Y-187302D01*
Y-187016D01*
Y-186730D01*
Y-186443D01*
Y-186157D01*
Y-185871D01*
X740310D01*
Y-185584D01*
Y-185298D01*
Y-185012D01*
Y-184725D01*
Y-184439D01*
Y-184153D01*
X740596D01*
Y-183866D01*
Y-183580D01*
Y-183294D01*
Y-183007D01*
Y-182721D01*
Y-182435D01*
Y-182149D01*
X740882D01*
Y-181862D01*
Y-181576D01*
Y-181290D01*
Y-181003D01*
Y-180717D01*
Y-180431D01*
X741169D01*
Y-180144D01*
Y-179858D01*
Y-179572D01*
Y-179285D01*
Y-178999D01*
Y-178713D01*
Y-178426D01*
X741455D01*
Y-178140D01*
Y-177854D01*
Y-177568D01*
Y-177281D01*
Y-176995D01*
Y-176709D01*
X741742D01*
Y-176422D01*
Y-176136D01*
Y-175850D01*
Y-175563D01*
Y-175277D01*
Y-174991D01*
X742028D01*
Y-174704D01*
Y-174418D01*
Y-174132D01*
Y-173845D01*
Y-173559D01*
Y-173273D01*
X742314D01*
Y-172986D01*
Y-172700D01*
Y-172414D01*
Y-172127D01*
Y-171841D01*
Y-171555D01*
Y-171269D01*
X742600D01*
Y-170982D01*
Y-170696D01*
Y-170410D01*
Y-170123D01*
Y-169837D01*
Y-169551D01*
X742887D01*
Y-169264D01*
Y-168978D01*
Y-168692D01*
Y-168405D01*
Y-168119D01*
Y-167833D01*
Y-167547D01*
X743173D01*
Y-167260D01*
Y-166974D01*
Y-166688D01*
Y-166401D01*
Y-166115D01*
Y-165829D01*
X742887D01*
Y-165542D01*
Y-165256D01*
X742600D01*
Y-164970D01*
X742314D01*
Y-164683D01*
X741742D01*
Y-164397D01*
X740024D01*
Y-164683D01*
X738592D01*
Y-164970D01*
X737733D01*
Y-165256D01*
X737160D01*
Y-165542D01*
X736874D01*
Y-165829D01*
X736302D01*
Y-166115D01*
X736015D01*
Y-166401D01*
X735729D01*
Y-166688D01*
Y-166974D01*
X735443D01*
Y-167260D01*
Y-167547D01*
Y-167833D01*
X735156D01*
Y-168119D01*
Y-168405D01*
Y-168692D01*
Y-168978D01*
Y-169264D01*
Y-169551D01*
X734870D01*
Y-169837D01*
Y-170123D01*
Y-170410D01*
Y-170696D01*
Y-170982D01*
Y-171269D01*
Y-171555D01*
X734584D01*
Y-171841D01*
Y-172127D01*
Y-172414D01*
Y-172700D01*
Y-172986D01*
Y-173273D01*
X734297D01*
Y-173559D01*
Y-173845D01*
Y-174132D01*
Y-174418D01*
Y-174704D01*
Y-174991D01*
X734011D01*
Y-175277D01*
Y-175563D01*
Y-175850D01*
Y-176136D01*
Y-176422D01*
Y-176709D01*
X733725D01*
Y-176995D01*
Y-177281D01*
Y-177568D01*
Y-177854D01*
Y-178140D01*
Y-178426D01*
Y-178713D01*
X733438D01*
Y-178999D01*
Y-179285D01*
Y-179572D01*
Y-179858D01*
Y-180144D01*
Y-180431D01*
X733152D01*
Y-180717D01*
Y-181003D01*
Y-181290D01*
Y-181576D01*
Y-181862D01*
Y-182149D01*
X732866D01*
Y-182435D01*
Y-182721D01*
Y-183007D01*
Y-183294D01*
Y-183580D01*
Y-183866D01*
Y-184153D01*
X732580D01*
Y-184439D01*
Y-184725D01*
Y-185012D01*
Y-185298D01*
Y-185584D01*
Y-185871D01*
X732293D01*
Y-186157D01*
Y-186443D01*
Y-186730D01*
Y-187016D01*
Y-187302D01*
Y-187588D01*
X732007D01*
Y-187875D01*
Y-188161D01*
Y-188447D01*
Y-188734D01*
Y-189020D01*
Y-189306D01*
X731720D01*
Y-189593D01*
Y-189879D01*
Y-190165D01*
Y-190452D01*
Y-190738D01*
Y-191024D01*
Y-191311D01*
X731434D01*
Y-191597D01*
Y-191883D01*
X718264D01*
Y-191597D01*
Y-191311D01*
X718550D01*
Y-191024D01*
Y-190738D01*
Y-190452D01*
Y-190165D01*
Y-189879D01*
Y-189593D01*
Y-189306D01*
X718836D01*
Y-189020D01*
Y-188734D01*
Y-188447D01*
Y-188161D01*
Y-187875D01*
Y-187588D01*
X719123D01*
Y-187302D01*
Y-187016D01*
Y-186730D01*
Y-186443D01*
Y-186157D01*
Y-185871D01*
X719409D01*
Y-185584D01*
Y-185298D01*
Y-185012D01*
Y-184725D01*
Y-184439D01*
Y-184153D01*
Y-183866D01*
X719695D01*
Y-183580D01*
Y-183294D01*
Y-183007D01*
Y-182721D01*
Y-182435D01*
Y-182149D01*
X719982D01*
Y-181862D01*
Y-181576D01*
Y-181290D01*
Y-181003D01*
Y-180717D01*
Y-180431D01*
X720268D01*
Y-180144D01*
Y-179858D01*
Y-179572D01*
Y-179285D01*
Y-178999D01*
Y-178713D01*
X720554D01*
Y-178426D01*
Y-178140D01*
Y-177854D01*
Y-177568D01*
Y-177281D01*
Y-176995D01*
Y-176709D01*
X720841D01*
Y-176422D01*
Y-176136D01*
Y-175850D01*
Y-175563D01*
Y-175277D01*
Y-174991D01*
X721127D01*
Y-174704D01*
Y-174418D01*
Y-174132D01*
Y-173845D01*
Y-173559D01*
Y-173273D01*
X721413D01*
Y-172986D01*
Y-172700D01*
Y-172414D01*
Y-172127D01*
Y-171841D01*
Y-171555D01*
Y-171269D01*
X721700D01*
Y-170982D01*
Y-170696D01*
Y-170410D01*
Y-170123D01*
Y-169837D01*
Y-169551D01*
X721986D01*
Y-169264D01*
Y-168978D01*
Y-168692D01*
Y-168405D01*
Y-168119D01*
Y-167833D01*
X722272D01*
Y-167547D01*
Y-167260D01*
Y-166974D01*
Y-166688D01*
Y-166401D01*
Y-166115D01*
X722558D01*
Y-165829D01*
Y-165542D01*
Y-165256D01*
Y-164970D01*
Y-164683D01*
Y-164397D01*
Y-164111D01*
X722845D01*
Y-163824D01*
Y-163538D01*
Y-163252D01*
Y-162966D01*
Y-162679D01*
Y-162393D01*
X723131D01*
Y-162107D01*
Y-161820D01*
Y-161534D01*
Y-161248D01*
Y-160961D01*
Y-160675D01*
X723418D01*
Y-160389D01*
Y-160102D01*
Y-159816D01*
Y-159530D01*
Y-159244D01*
Y-158957D01*
X723704D01*
Y-158671D01*
Y-158385D01*
Y-158098D01*
Y-157812D01*
Y-157526D01*
Y-157239D01*
Y-156953D01*
X723990D01*
Y-156667D01*
Y-156380D01*
Y-156094D01*
Y-155808D01*
Y-155521D01*
Y-155235D01*
X724276D01*
Y-154949D01*
Y-154663D01*
Y-154376D01*
Y-154090D01*
Y-153804D01*
Y-153517D01*
X724563D01*
Y-153231D01*
Y-152945D01*
Y-152658D01*
Y-152372D01*
Y-152086D01*
Y-151799D01*
Y-151513D01*
X724849D01*
Y-151227D01*
Y-150940D01*
Y-150654D01*
Y-150368D01*
Y-150082D01*
Y-149795D01*
X725135D01*
Y-149509D01*
Y-149223D01*
Y-148936D01*
Y-148650D01*
Y-148364D01*
Y-148077D01*
X725422D01*
Y-147791D01*
Y-147505D01*
Y-147218D01*
Y-146932D01*
Y-146646D01*
Y-146359D01*
X725708D01*
Y-146073D01*
Y-145787D01*
Y-145501D01*
Y-145214D01*
Y-144928D01*
Y-144641D01*
Y-144355D01*
X725994D01*
Y-144069D01*
Y-143783D01*
Y-143496D01*
Y-143210D01*
Y-142924D01*
Y-142637D01*
X726281D01*
Y-142351D01*
Y-142065D01*
Y-141778D01*
Y-141492D01*
Y-141206D01*
Y-140919D01*
X726567D01*
Y-140633D01*
Y-140347D01*
Y-140060D01*
Y-139774D01*
Y-139488D01*
Y-139202D01*
Y-138915D01*
X726853D01*
Y-138629D01*
Y-138343D01*
Y-138056D01*
X740024D01*
Y-138343D01*
D02*
G37*
G36*
X841951Y-155808D02*
X841665D01*
Y-156094D01*
X841378D01*
Y-156380D01*
Y-156667D01*
X841092D01*
Y-156953D01*
X840806D01*
Y-157239D01*
X840519D01*
Y-157526D01*
Y-157812D01*
X840233D01*
Y-158098D01*
X839947D01*
Y-158385D01*
X839660D01*
Y-158671D01*
X839374D01*
Y-158957D01*
Y-159244D01*
X839088D01*
Y-159530D01*
X838801D01*
Y-159816D01*
X838515D01*
Y-160102D01*
Y-160389D01*
X838229D01*
Y-160675D01*
X837943D01*
Y-160961D01*
X837656D01*
Y-161248D01*
X837370D01*
Y-161534D01*
Y-161820D01*
X837084D01*
Y-162107D01*
X836797D01*
Y-162393D01*
X836511D01*
Y-162679D01*
Y-162966D01*
X836225D01*
Y-163252D01*
X835938D01*
Y-163538D01*
X835652D01*
Y-163824D01*
Y-164111D01*
X835366D01*
Y-164397D01*
X835079D01*
Y-164683D01*
X834793D01*
Y-164970D01*
X834507D01*
Y-165256D01*
Y-165542D01*
X834221D01*
Y-165829D01*
X833934D01*
Y-166115D01*
X833648D01*
Y-166401D01*
Y-166688D01*
X833362D01*
Y-166974D01*
X833075D01*
Y-167260D01*
X832789D01*
Y-167547D01*
Y-167833D01*
X832503D01*
Y-168119D01*
X832216D01*
Y-168405D01*
X831930D01*
Y-168692D01*
X831644D01*
Y-168978D01*
Y-169264D01*
X831357D01*
Y-169551D01*
X831071D01*
Y-169837D01*
X830785D01*
Y-170123D01*
Y-170410D01*
X830499D01*
Y-170696D01*
X830212D01*
Y-170982D01*
X829926D01*
Y-171269D01*
Y-171555D01*
X829640D01*
Y-171841D01*
X829353D01*
Y-172127D01*
X829067D01*
Y-172414D01*
X828781D01*
Y-172700D01*
Y-172986D01*
X828494D01*
Y-173273D01*
X828208D01*
Y-173559D01*
X827922D01*
Y-173845D01*
Y-174132D01*
X827635D01*
Y-174418D01*
X827349D01*
Y-174704D01*
X827063D01*
Y-174991D01*
X826776D01*
Y-175277D01*
Y-175563D01*
X827063D01*
Y-175850D01*
Y-176136D01*
X827349D01*
Y-176422D01*
Y-176709D01*
X827635D01*
Y-176995D01*
X827922D01*
Y-177281D01*
Y-177568D01*
X828208D01*
Y-177854D01*
Y-178140D01*
X828494D01*
Y-178426D01*
Y-178713D01*
X828781D01*
Y-178999D01*
Y-179285D01*
X829067D01*
Y-179572D01*
Y-179858D01*
X829353D01*
Y-180144D01*
Y-180431D01*
X829640D01*
Y-180717D01*
Y-181003D01*
X829926D01*
Y-181290D01*
Y-181576D01*
X830212D01*
Y-181862D01*
X830499D01*
Y-182149D01*
Y-182435D01*
X830785D01*
Y-182721D01*
Y-183007D01*
X831071D01*
Y-183294D01*
Y-183580D01*
X831357D01*
Y-183866D01*
Y-184153D01*
X831644D01*
Y-184439D01*
Y-184725D01*
X831930D01*
Y-185012D01*
Y-185298D01*
X832216D01*
Y-185584D01*
Y-185871D01*
X832503D01*
Y-186157D01*
X832789D01*
Y-186443D01*
Y-186730D01*
X833075D01*
Y-187016D01*
Y-187302D01*
X833362D01*
Y-187588D01*
Y-187875D01*
X833648D01*
Y-188161D01*
Y-188447D01*
X833934D01*
Y-188734D01*
Y-189020D01*
X834221D01*
Y-189306D01*
Y-189593D01*
X834507D01*
Y-189879D01*
Y-190165D01*
X834793D01*
Y-190452D01*
X835079D01*
Y-190738D01*
Y-191024D01*
X835366D01*
Y-191311D01*
Y-191597D01*
X835652D01*
Y-191883D01*
X820477D01*
Y-191597D01*
X820191D01*
Y-191311D01*
Y-191024D01*
Y-190738D01*
X819905D01*
Y-190452D01*
Y-190165D01*
Y-189879D01*
X819619D01*
Y-189593D01*
Y-189306D01*
X819332D01*
Y-189020D01*
Y-188734D01*
Y-188447D01*
X819046D01*
Y-188161D01*
Y-187875D01*
Y-187588D01*
X818760D01*
Y-187302D01*
Y-187016D01*
X818473D01*
Y-186730D01*
Y-186443D01*
Y-186157D01*
X818187D01*
Y-185871D01*
Y-185584D01*
Y-185298D01*
X817901D01*
Y-185012D01*
Y-184725D01*
Y-184439D01*
X817614D01*
Y-184153D01*
X817042D01*
Y-184439D01*
Y-184725D01*
X816755D01*
Y-185012D01*
X816469D01*
Y-185298D01*
Y-185584D01*
X816183D01*
Y-185871D01*
X815897D01*
Y-186157D01*
Y-186443D01*
X815610D01*
Y-186730D01*
X815324D01*
Y-187016D01*
Y-187302D01*
X815038D01*
Y-187588D01*
X814751D01*
Y-187875D01*
X814465D01*
Y-188161D01*
Y-188447D01*
X814179D01*
Y-188734D01*
X813892D01*
Y-189020D01*
Y-189306D01*
X813606D01*
Y-189593D01*
X813320D01*
Y-189879D01*
Y-190165D01*
X813033D01*
Y-190452D01*
X812747D01*
Y-190738D01*
Y-191024D01*
X812461D01*
Y-191311D01*
X812174D01*
Y-191597D01*
Y-191883D01*
X796141D01*
Y-191597D01*
X796427D01*
Y-191311D01*
X796714D01*
Y-191024D01*
X797000D01*
Y-190738D01*
X797286D01*
Y-190452D01*
Y-190165D01*
X797573D01*
Y-189879D01*
X797859D01*
Y-189593D01*
X798145D01*
Y-189306D01*
X798431D01*
Y-189020D01*
Y-188734D01*
X798718D01*
Y-188447D01*
X799004D01*
Y-188161D01*
X799290D01*
Y-187875D01*
Y-187588D01*
X799577D01*
Y-187302D01*
X799863D01*
Y-187016D01*
X800149D01*
Y-186730D01*
X800436D01*
Y-186443D01*
Y-186157D01*
X800722D01*
Y-185871D01*
X801008D01*
Y-185584D01*
X801295D01*
Y-185298D01*
X801581D01*
Y-185012D01*
Y-184725D01*
X801867D01*
Y-184439D01*
X802153D01*
Y-184153D01*
X802440D01*
Y-183866D01*
Y-183580D01*
X802726D01*
Y-183294D01*
X803012D01*
Y-183007D01*
X803299D01*
Y-182721D01*
X803585D01*
Y-182435D01*
Y-182149D01*
X803871D01*
Y-181862D01*
X804158D01*
Y-181576D01*
X804444D01*
Y-181290D01*
Y-181003D01*
X804730D01*
Y-180717D01*
X805017D01*
Y-180431D01*
X805303D01*
Y-180144D01*
X805589D01*
Y-179858D01*
Y-179572D01*
X805876D01*
Y-179285D01*
X806162D01*
Y-178999D01*
X806448D01*
Y-178713D01*
Y-178426D01*
X806734D01*
Y-178140D01*
X807021D01*
Y-177854D01*
X807307D01*
Y-177568D01*
X807594D01*
Y-177281D01*
Y-176995D01*
X807880D01*
Y-176709D01*
X808166D01*
Y-176422D01*
X808452D01*
Y-176136D01*
X808739D01*
Y-175850D01*
Y-175563D01*
X809025D01*
Y-175277D01*
X809311D01*
Y-174991D01*
X809598D01*
Y-174704D01*
Y-174418D01*
X809884D01*
Y-174132D01*
X810170D01*
Y-173845D01*
X810457D01*
Y-173559D01*
X810743D01*
Y-173273D01*
Y-172986D01*
X811029D01*
Y-172700D01*
Y-172414D01*
Y-172127D01*
X810743D01*
Y-171841D01*
X810457D01*
Y-171555D01*
Y-171269D01*
X810170D01*
Y-170982D01*
Y-170696D01*
X809884D01*
Y-170410D01*
Y-170123D01*
X809598D01*
Y-169837D01*
Y-169551D01*
X809311D01*
Y-169264D01*
Y-168978D01*
X809025D01*
Y-168692D01*
Y-168405D01*
X808739D01*
Y-168119D01*
X808452D01*
Y-167833D01*
Y-167547D01*
X808166D01*
Y-167260D01*
Y-166974D01*
X807880D01*
Y-166688D01*
Y-166401D01*
X807594D01*
Y-166115D01*
Y-165829D01*
X807307D01*
Y-165542D01*
Y-165256D01*
X807021D01*
Y-164970D01*
Y-164683D01*
X806734D01*
Y-164397D01*
X806448D01*
Y-164111D01*
Y-163824D01*
X806162D01*
Y-163538D01*
Y-163252D01*
X805876D01*
Y-162966D01*
Y-162679D01*
X805589D01*
Y-162393D01*
Y-162107D01*
X805303D01*
Y-161820D01*
Y-161534D01*
X805017D01*
Y-161248D01*
Y-160961D01*
X804730D01*
Y-160675D01*
Y-160389D01*
X804444D01*
Y-160102D01*
X804158D01*
Y-159816D01*
Y-159530D01*
X803871D01*
Y-159244D01*
Y-158957D01*
X803585D01*
Y-158671D01*
Y-158385D01*
X803299D01*
Y-158098D01*
Y-157812D01*
X803012D01*
Y-157526D01*
Y-157239D01*
X802726D01*
Y-156953D01*
Y-156667D01*
X802440D01*
Y-156380D01*
X802153D01*
Y-156094D01*
Y-155808D01*
X801867D01*
Y-155521D01*
X817614D01*
Y-155808D01*
X817901D01*
Y-156094D01*
Y-156380D01*
Y-156667D01*
X818187D01*
Y-156953D01*
Y-157239D01*
Y-157526D01*
X818473D01*
Y-157812D01*
Y-158098D01*
Y-158385D01*
X818760D01*
Y-158671D01*
Y-158957D01*
Y-159244D01*
X819046D01*
Y-159530D01*
Y-159816D01*
Y-160102D01*
X819332D01*
Y-160389D01*
Y-160675D01*
Y-160961D01*
X819619D01*
Y-161248D01*
Y-161534D01*
Y-161820D01*
X819905D01*
Y-162107D01*
Y-162393D01*
Y-162679D01*
X820191D01*
Y-162966D01*
Y-163252D01*
Y-163538D01*
Y-163824D01*
X820764D01*
Y-163538D01*
X821050D01*
Y-163252D01*
X821336D01*
Y-162966D01*
Y-162679D01*
X821623D01*
Y-162393D01*
X821909D01*
Y-162107D01*
Y-161820D01*
X822195D01*
Y-161534D01*
X822482D01*
Y-161248D01*
Y-160961D01*
X822768D01*
Y-160675D01*
X823054D01*
Y-160389D01*
Y-160102D01*
X823341D01*
Y-159816D01*
X823627D01*
Y-159530D01*
Y-159244D01*
X823913D01*
Y-158957D01*
X824200D01*
Y-158671D01*
Y-158385D01*
X824486D01*
Y-158098D01*
X824772D01*
Y-157812D01*
Y-157526D01*
X825058D01*
Y-157239D01*
X825345D01*
Y-156953D01*
Y-156667D01*
X825631D01*
Y-156380D01*
X825918D01*
Y-156094D01*
Y-155808D01*
X826204D01*
Y-155521D01*
X841951D01*
Y-155808D01*
D02*
G37*
G36*
X797859D02*
Y-156094D01*
Y-156380D01*
Y-156667D01*
Y-156953D01*
Y-157239D01*
Y-157526D01*
Y-157812D01*
Y-158098D01*
Y-158385D01*
Y-158671D01*
Y-158957D01*
Y-159244D01*
Y-159530D01*
Y-159816D01*
Y-160102D01*
Y-160389D01*
Y-160675D01*
Y-160961D01*
Y-161248D01*
Y-161534D01*
X797573D01*
Y-161820D01*
Y-162107D01*
Y-162393D01*
Y-162679D01*
Y-162966D01*
X797286D01*
Y-163252D01*
Y-163538D01*
Y-163824D01*
Y-164111D01*
X797000D01*
Y-164397D01*
Y-164683D01*
Y-164970D01*
Y-165256D01*
X796714D01*
Y-165542D01*
Y-165829D01*
Y-166115D01*
X796427D01*
Y-166401D01*
Y-166688D01*
Y-166974D01*
X796141D01*
Y-167260D01*
Y-167547D01*
Y-167833D01*
X795855D01*
Y-168119D01*
Y-168405D01*
Y-168692D01*
X795568D01*
Y-168978D01*
Y-169264D01*
X795282D01*
Y-169551D01*
Y-169837D01*
X794996D01*
Y-170123D01*
Y-170410D01*
Y-170696D01*
X794709D01*
Y-170982D01*
Y-171269D01*
X794423D01*
Y-171555D01*
Y-171841D01*
Y-172127D01*
X794137D01*
Y-172414D01*
Y-172700D01*
X793850D01*
Y-172986D01*
Y-173273D01*
Y-173559D01*
X793564D01*
Y-173845D01*
Y-174132D01*
X793278D01*
Y-174418D01*
Y-174704D01*
Y-174991D01*
X792991D01*
Y-175277D01*
Y-175563D01*
X792705D01*
Y-175850D01*
Y-176136D01*
Y-176422D01*
X792419D01*
Y-176709D01*
Y-176995D01*
X792133D01*
Y-177281D01*
Y-177568D01*
Y-177854D01*
X791846D01*
Y-178140D01*
Y-178426D01*
X791560D01*
Y-178713D01*
Y-178999D01*
Y-179285D01*
X791274D01*
Y-179572D01*
Y-179858D01*
X790987D01*
Y-180144D01*
Y-180431D01*
Y-180717D01*
X790701D01*
Y-181003D01*
Y-181290D01*
X790415D01*
Y-181576D01*
Y-181862D01*
Y-182149D01*
X790128D01*
Y-182435D01*
Y-182721D01*
X789842D01*
Y-183007D01*
Y-183294D01*
Y-183580D01*
X789556D01*
Y-183866D01*
Y-184153D01*
X789269D01*
Y-184439D01*
Y-184725D01*
Y-185012D01*
X788983D01*
Y-185298D01*
Y-185584D01*
X788697D01*
Y-185871D01*
Y-186157D01*
Y-186443D01*
X788411D01*
Y-186730D01*
Y-187016D01*
X788124D01*
Y-187302D01*
Y-187588D01*
Y-187875D01*
X787838D01*
Y-188161D01*
Y-188447D01*
X787552D01*
Y-188734D01*
Y-189020D01*
Y-189306D01*
X787265D01*
Y-189593D01*
Y-189879D01*
X786979D01*
Y-190165D01*
Y-190452D01*
Y-190738D01*
X786693D01*
Y-191024D01*
Y-191311D01*
X786406D01*
Y-191597D01*
Y-191883D01*
Y-192169D01*
X786120D01*
Y-192456D01*
Y-192742D01*
X785834D01*
Y-193028D01*
Y-193315D01*
X785547D01*
Y-193601D01*
Y-193887D01*
X785261D01*
Y-194174D01*
Y-194460D01*
Y-194746D01*
X784975D01*
Y-195033D01*
X784688D01*
Y-195319D01*
Y-195605D01*
Y-195891D01*
X784402D01*
Y-196178D01*
X784116D01*
Y-196464D01*
Y-196750D01*
X783829D01*
Y-197037D01*
Y-197323D01*
X783543D01*
Y-197609D01*
Y-197896D01*
X783257D01*
Y-198182D01*
Y-198468D01*
X782971D01*
Y-198755D01*
X782684D01*
Y-199041D01*
Y-199327D01*
X782398D01*
Y-199614D01*
Y-199900D01*
X782112D01*
Y-200186D01*
X781825D01*
Y-200472D01*
X781539D01*
Y-200759D01*
Y-201045D01*
X781253D01*
Y-201331D01*
X780966D01*
Y-201618D01*
Y-201904D01*
X780680D01*
Y-202190D01*
X780394D01*
Y-202477D01*
X780107D01*
Y-202763D01*
Y-203049D01*
X779821D01*
Y-203336D01*
X779535D01*
Y-203622D01*
X779249D01*
Y-203908D01*
X778962D01*
Y-204195D01*
X778676D01*
Y-204481D01*
Y-204767D01*
X778390D01*
Y-205053D01*
X778103D01*
Y-205340D01*
X777817D01*
Y-205626D01*
X777531D01*
Y-205912D01*
X777244D01*
Y-206199D01*
X776958D01*
Y-206485D01*
X776672D01*
Y-206771D01*
X776099D01*
Y-207058D01*
X775813D01*
Y-207344D01*
X775526D01*
Y-207630D01*
X775240D01*
Y-207917D01*
X774954D01*
Y-208203D01*
X774381D01*
Y-208489D01*
X774095D01*
Y-208776D01*
X773522D01*
Y-209062D01*
X773236D01*
Y-209348D01*
X772663D01*
Y-209634D01*
X772377D01*
Y-209921D01*
X771804D01*
Y-210207D01*
X771232D01*
Y-210493D01*
X770659D01*
Y-210780D01*
X770086D01*
Y-211066D01*
X769514D01*
Y-211352D01*
X768655D01*
Y-211639D01*
X768082D01*
Y-211925D01*
X767223D01*
Y-212211D01*
X766078D01*
Y-212498D01*
X764933D01*
Y-212784D01*
X763215D01*
Y-213070D01*
X761211D01*
Y-213357D01*
X760924D01*
Y-213070D01*
Y-212784D01*
Y-212498D01*
Y-212211D01*
Y-211925D01*
Y-211639D01*
Y-211352D01*
Y-211066D01*
Y-210780D01*
Y-210493D01*
Y-210207D01*
Y-209921D01*
Y-209634D01*
Y-209348D01*
Y-209062D01*
Y-208776D01*
Y-208489D01*
Y-208203D01*
Y-207917D01*
Y-207630D01*
Y-207344D01*
Y-207058D01*
Y-206771D01*
Y-206485D01*
Y-206199D01*
Y-205912D01*
Y-205626D01*
Y-205340D01*
Y-205053D01*
Y-204767D01*
Y-204481D01*
Y-204195D01*
Y-203908D01*
X761497D01*
Y-203622D01*
X762070D01*
Y-203336D01*
X762642D01*
Y-203049D01*
X763215D01*
Y-202763D01*
X763788D01*
Y-202477D01*
X764360D01*
Y-202190D01*
X764646D01*
Y-201904D01*
X765219D01*
Y-201618D01*
X765506D01*
Y-201331D01*
X766078D01*
Y-201045D01*
X766364D01*
Y-200759D01*
X766651D01*
Y-200472D01*
X767223D01*
Y-200186D01*
X767510D01*
Y-199900D01*
X767796D01*
Y-199614D01*
X768082D01*
Y-199327D01*
X768369D01*
Y-199041D01*
X768655D01*
Y-198755D01*
X768941D01*
Y-198468D01*
X769228D01*
Y-198182D01*
X769514D01*
Y-197896D01*
X769800D01*
Y-197609D01*
X770086D01*
Y-197323D01*
X770373D01*
Y-197037D01*
Y-196750D01*
X770659D01*
Y-196464D01*
X770945D01*
Y-196178D01*
X771232D01*
Y-195891D01*
Y-195605D01*
X771518D01*
Y-195319D01*
X771804D01*
Y-195033D01*
Y-194746D01*
X772091D01*
Y-194460D01*
Y-194174D01*
X772377D01*
Y-193887D01*
X772663D01*
Y-193601D01*
Y-193315D01*
X772950D01*
Y-193028D01*
Y-192742D01*
X773236D01*
Y-192456D01*
Y-192169D01*
X771518D01*
Y-191883D01*
X769514D01*
Y-191597D01*
X768369D01*
Y-191311D01*
X767796D01*
Y-191024D01*
X766937D01*
Y-190738D01*
X766364D01*
Y-190452D01*
X766078D01*
Y-190165D01*
X765506D01*
Y-189879D01*
X765219D01*
Y-189593D01*
X764933D01*
Y-189306D01*
X764646D01*
Y-189020D01*
X764360D01*
Y-188734D01*
X764074D01*
Y-188447D01*
Y-188161D01*
X763788D01*
Y-187875D01*
X763501D01*
Y-187588D01*
Y-187302D01*
X763215D01*
Y-187016D01*
Y-186730D01*
X762929D01*
Y-186443D01*
Y-186157D01*
X762642D01*
Y-185871D01*
Y-185584D01*
Y-185298D01*
X762356D01*
Y-185012D01*
Y-184725D01*
Y-184439D01*
Y-184153D01*
X762070D01*
Y-183866D01*
Y-183580D01*
Y-183294D01*
Y-183007D01*
Y-182721D01*
Y-182435D01*
Y-182149D01*
X761783D01*
Y-181862D01*
Y-181576D01*
Y-181290D01*
Y-181003D01*
Y-180717D01*
Y-180431D01*
Y-180144D01*
Y-179858D01*
Y-179572D01*
Y-179285D01*
Y-178999D01*
Y-178713D01*
Y-178426D01*
Y-178140D01*
Y-177854D01*
X761497D01*
Y-177568D01*
Y-177281D01*
Y-176995D01*
Y-176709D01*
Y-176422D01*
Y-176136D01*
Y-175850D01*
Y-175563D01*
Y-175277D01*
Y-174991D01*
Y-174704D01*
Y-174418D01*
Y-174132D01*
Y-173845D01*
Y-173559D01*
X761211D01*
Y-173273D01*
Y-172986D01*
Y-172700D01*
Y-172414D01*
Y-172127D01*
Y-171841D01*
Y-171555D01*
Y-171269D01*
Y-170982D01*
Y-170696D01*
Y-170410D01*
Y-170123D01*
Y-169837D01*
Y-169551D01*
Y-169264D01*
Y-168978D01*
X760924D01*
Y-168692D01*
Y-168405D01*
Y-168119D01*
Y-167833D01*
Y-167547D01*
Y-167260D01*
Y-166974D01*
Y-166688D01*
Y-166401D01*
Y-166115D01*
Y-165829D01*
Y-165542D01*
Y-165256D01*
Y-164970D01*
Y-164683D01*
Y-164397D01*
X760638D01*
Y-164111D01*
Y-163824D01*
Y-163538D01*
Y-163252D01*
Y-162966D01*
Y-162679D01*
Y-162393D01*
Y-162107D01*
Y-161820D01*
Y-161534D01*
Y-161248D01*
Y-160961D01*
Y-160675D01*
Y-160389D01*
X760352D01*
Y-160102D01*
Y-159816D01*
Y-159530D01*
Y-159244D01*
Y-158957D01*
Y-158671D01*
Y-158385D01*
Y-158098D01*
Y-157812D01*
Y-157526D01*
Y-157239D01*
Y-156953D01*
Y-156667D01*
Y-156380D01*
Y-156094D01*
Y-155808D01*
X760066D01*
Y-155521D01*
X773808D01*
Y-155808D01*
Y-156094D01*
Y-156380D01*
Y-156667D01*
Y-156953D01*
Y-157239D01*
Y-157526D01*
Y-157812D01*
Y-158098D01*
Y-158385D01*
Y-158671D01*
Y-158957D01*
Y-159244D01*
Y-159530D01*
X774095D01*
Y-159816D01*
Y-160102D01*
Y-160389D01*
Y-160675D01*
Y-160961D01*
Y-161248D01*
Y-161534D01*
Y-161820D01*
Y-162107D01*
Y-162393D01*
Y-162679D01*
Y-162966D01*
Y-163252D01*
Y-163538D01*
Y-163824D01*
Y-164111D01*
Y-164397D01*
Y-164683D01*
Y-164970D01*
Y-165256D01*
Y-165542D01*
Y-165829D01*
Y-166115D01*
Y-166401D01*
Y-166688D01*
Y-166974D01*
Y-167260D01*
Y-167547D01*
Y-167833D01*
Y-168119D01*
Y-168405D01*
Y-168692D01*
Y-168978D01*
Y-169264D01*
Y-169551D01*
Y-169837D01*
Y-170123D01*
Y-170410D01*
Y-170696D01*
Y-170982D01*
Y-171269D01*
X774381D01*
Y-171555D01*
X774095D01*
Y-171841D01*
Y-172127D01*
X774381D01*
Y-172414D01*
Y-172700D01*
Y-172986D01*
Y-173273D01*
Y-173559D01*
Y-173845D01*
Y-174132D01*
Y-174418D01*
Y-174704D01*
Y-174991D01*
Y-175277D01*
Y-175563D01*
Y-175850D01*
Y-176136D01*
Y-176422D01*
Y-176709D01*
Y-176995D01*
Y-177281D01*
Y-177568D01*
Y-177854D01*
Y-178140D01*
Y-178426D01*
Y-178713D01*
Y-178999D01*
Y-179285D01*
Y-179572D01*
X774668D01*
Y-179858D01*
Y-180144D01*
Y-180431D01*
X774954D01*
Y-180717D01*
X775240D01*
Y-181003D01*
X775526D01*
Y-181290D01*
X776385D01*
Y-181576D01*
X777244D01*
Y-181290D01*
X777531D01*
Y-181003D01*
Y-180717D01*
Y-180431D01*
X777817D01*
Y-180144D01*
Y-179858D01*
X778103D01*
Y-179572D01*
Y-179285D01*
Y-178999D01*
X778390D01*
Y-178713D01*
Y-178426D01*
Y-178140D01*
X778676D01*
Y-177854D01*
Y-177568D01*
Y-177281D01*
X778962D01*
Y-176995D01*
Y-176709D01*
Y-176422D01*
X779249D01*
Y-176136D01*
Y-175850D01*
X779535D01*
Y-175563D01*
Y-175277D01*
Y-174991D01*
X779821D01*
Y-174704D01*
Y-174418D01*
Y-174132D01*
X780107D01*
Y-173845D01*
Y-173559D01*
Y-173273D01*
X780394D01*
Y-172986D01*
Y-172700D01*
X780680D01*
Y-172414D01*
Y-172127D01*
Y-171841D01*
X780966D01*
Y-171555D01*
Y-171269D01*
Y-170982D01*
X781253D01*
Y-170696D01*
Y-170410D01*
Y-170123D01*
X781539D01*
Y-169837D01*
Y-169551D01*
X781825D01*
Y-169264D01*
Y-168978D01*
Y-168692D01*
X782112D01*
Y-168405D01*
Y-168119D01*
Y-167833D01*
X782398D01*
Y-167547D01*
Y-167260D01*
Y-166974D01*
X782684D01*
Y-166688D01*
Y-166401D01*
X782971D01*
Y-166115D01*
Y-165829D01*
Y-165542D01*
X783257D01*
Y-165256D01*
Y-164970D01*
Y-164683D01*
X783543D01*
Y-164397D01*
Y-164111D01*
Y-163824D01*
X783829D01*
Y-163538D01*
Y-163252D01*
Y-162966D01*
Y-162679D01*
X784116D01*
Y-162393D01*
Y-162107D01*
Y-161820D01*
Y-161534D01*
X784402D01*
Y-161248D01*
Y-160961D01*
Y-160675D01*
Y-160389D01*
Y-160102D01*
X784688D01*
Y-159816D01*
Y-159530D01*
Y-159244D01*
Y-158957D01*
Y-158671D01*
Y-158385D01*
X784975D01*
Y-158098D01*
Y-157812D01*
Y-157526D01*
Y-157239D01*
Y-156953D01*
Y-156667D01*
Y-156380D01*
Y-156094D01*
Y-155808D01*
Y-155521D01*
X797859D01*
Y-155808D01*
D02*
G37*
%LPC*%
G36*
X704521Y-152658D02*
X696504D01*
Y-152945D01*
Y-153231D01*
Y-153517D01*
Y-153804D01*
Y-154090D01*
X696218D01*
Y-154376D01*
Y-154663D01*
Y-154949D01*
Y-155235D01*
Y-155521D01*
Y-155808D01*
X695931D01*
Y-156094D01*
Y-156380D01*
Y-156667D01*
Y-156953D01*
Y-157239D01*
Y-157526D01*
X695645D01*
Y-157812D01*
Y-158098D01*
Y-158385D01*
Y-158671D01*
Y-158957D01*
Y-159244D01*
X695359D01*
Y-159530D01*
Y-159816D01*
Y-160102D01*
Y-160389D01*
Y-160675D01*
Y-160961D01*
Y-161248D01*
X695073D01*
Y-161534D01*
Y-161820D01*
Y-162107D01*
Y-162393D01*
Y-162679D01*
Y-162966D01*
X694786D01*
Y-163252D01*
Y-163538D01*
Y-163824D01*
X701944D01*
Y-163538D01*
X703089D01*
Y-163252D01*
X703662D01*
Y-162966D01*
X703948D01*
Y-162679D01*
X704235D01*
Y-162393D01*
X704521D01*
Y-162107D01*
X704807D01*
Y-161820D01*
Y-161534D01*
X705093D01*
Y-161248D01*
Y-160961D01*
X705380D01*
Y-160675D01*
Y-160389D01*
X705666D01*
Y-160102D01*
Y-159816D01*
Y-159530D01*
Y-159244D01*
X705952D01*
Y-158957D01*
Y-158671D01*
Y-158385D01*
Y-158098D01*
Y-157812D01*
X706239D01*
Y-157526D01*
Y-157239D01*
Y-156953D01*
Y-156667D01*
Y-156380D01*
Y-156094D01*
Y-155808D01*
Y-155521D01*
Y-155235D01*
Y-154949D01*
Y-154663D01*
X705952D01*
Y-154376D01*
Y-154090D01*
X705666D01*
Y-153804D01*
Y-153517D01*
X705380D01*
Y-153231D01*
X705093D01*
Y-152945D01*
X704521D01*
Y-152658D01*
D02*
G37*
%LPD*%
D10*
X682685Y-247293D02*
Y-263036D01*
X687932Y-257788D01*
X693180Y-263036D01*
Y-247293D01*
X698428Y-263036D02*
X703675D01*
X701052D01*
Y-252540D01*
X698428D01*
X711547Y-263036D02*
Y-252540D01*
X714171D01*
X716794Y-255164D01*
Y-263036D01*
Y-255164D01*
X719418Y-252540D01*
X722042Y-255164D01*
Y-263036D01*
X727290Y-247293D02*
Y-257788D01*
X732537Y-263036D01*
X737785Y-257788D01*
Y-247293D01*
X753528Y-249917D02*
X750904Y-247293D01*
X745656D01*
X743033Y-249917D01*
Y-260412D01*
X745656Y-263036D01*
X750904D01*
X753528Y-260412D01*
Y-255164D01*
X748280D01*
X1037015Y-210546D02*
X1039639Y-207923D01*
X1044887D01*
X1047511Y-210546D01*
Y-221042D01*
X1044887Y-223665D01*
X1039639D01*
X1037015Y-221042D01*
Y-210546D01*
X1052758D02*
X1055382Y-207923D01*
X1060630D01*
X1063254Y-210546D01*
Y-221042D01*
X1060630Y-223665D01*
X1055382D01*
X1052758Y-221042D01*
Y-210546D01*
X873630Y-212186D02*
X875925Y-209890D01*
X880517D01*
X882813Y-212186D01*
Y-221370D01*
X880517Y-223665D01*
X875925D01*
X873630Y-221370D01*
Y-212186D01*
X887405Y-209890D02*
X896588D01*
Y-212186D01*
X887405Y-221370D01*
Y-223665D01*
X901180D02*
X910363Y-214482D01*
X914955Y-212186D02*
X917251Y-209890D01*
X921842D01*
X924138Y-212186D01*
Y-221370D01*
X921842Y-223665D01*
X917251D01*
X914955Y-221370D01*
Y-212186D01*
X937913Y-223665D02*
X928730D01*
X937913Y-214482D01*
Y-212186D01*
X935618Y-209890D01*
X931026D01*
X928730Y-212186D01*
X942505Y-223665D02*
X951688Y-214482D01*
X965464Y-223665D02*
X956280D01*
X965464Y-214482D01*
Y-212186D01*
X963168Y-209890D01*
X958576D01*
X956280Y-212186D01*
X970055D02*
X972351Y-209890D01*
X976943D01*
X979239Y-212186D01*
Y-221370D01*
X976943Y-223665D01*
X972351D01*
X970055Y-221370D01*
Y-212186D01*
X993014Y-223665D02*
X983830D01*
X993014Y-214482D01*
Y-212186D01*
X990718Y-209890D01*
X986126D01*
X983830Y-212186D01*
X1006789Y-223665D02*
X997605D01*
X1006789Y-214482D01*
Y-212186D01*
X1004493Y-209890D01*
X999901D01*
X997605Y-212186D01*
X875596Y-135086D02*
X873628Y-133118D01*
X869692D01*
X867724Y-135086D01*
Y-137054D01*
X869692Y-139022D01*
X873628D01*
X875596Y-140990D01*
Y-142957D01*
X873628Y-144925D01*
X869692D01*
X867724Y-142957D01*
X879531Y-133118D02*
X887403D01*
X883467D01*
Y-144925D01*
X899210Y-135086D02*
X897242Y-133118D01*
X893306D01*
X891339Y-135086D01*
Y-137054D01*
X893306Y-139022D01*
X897242D01*
X899210Y-140990D01*
Y-142957D01*
X897242Y-144925D01*
X893306D01*
X891339Y-142957D01*
D11*
X1015362Y-229571D02*
Y-190201D01*
X857882Y-150831D02*
X1133472D01*
X857882Y-190201D02*
X1133472D01*
X661031Y-229571D02*
X1133472D01*
X661031Y-111461D02*
X1133472D01*
X661031Y-268941D02*
Y-111461D01*
X857882Y-268941D02*
Y-111461D01*
X-520071Y900350D02*
X1133472D01*
Y-268941D02*
Y900350D01*
X-520071Y-268941D02*
Y900350D01*
Y-268941D02*
X1133472D01*
X871660Y-256147D02*
X870676Y-255164D01*
X868708D01*
X867724Y-256147D01*
Y-257131D01*
X868708Y-258115D01*
X870676D01*
X871660Y-259099D01*
Y-260083D01*
X870676Y-261067D01*
X868708D01*
X867724Y-260083D01*
X873628Y-255164D02*
X877563D01*
X875596D01*
Y-261067D01*
X883467Y-256147D02*
X882483Y-255164D01*
X880515D01*
X879531Y-256147D01*
Y-257131D01*
X880515Y-258115D01*
X882483D01*
X883467Y-259099D01*
Y-260083D01*
X882483Y-261067D01*
X880515D01*
X879531Y-260083D01*
X885435Y-261067D02*
Y-260083D01*
X886419D01*
Y-261067D01*
X885435D01*
X890355Y-256147D02*
X891339Y-255164D01*
X893306D01*
X894290Y-256147D01*
Y-260083D01*
X893306Y-261067D01*
X891339D01*
X890355Y-260083D01*
Y-256147D01*
X896258D02*
X897242Y-255164D01*
X899210D01*
X900194Y-256147D01*
Y-260083D01*
X899210Y-261067D01*
X897242D01*
X896258Y-260083D01*
Y-256147D01*
X902162Y-261067D02*
Y-260083D01*
X903146D01*
Y-261067D01*
X902162D01*
X907081D02*
Y-255164D01*
X910033D01*
X911017Y-256147D01*
Y-258115D01*
X910033Y-259099D01*
X907081D01*
X916921Y-257131D02*
X913969D01*
X912985Y-258115D01*
Y-260083D01*
X913969Y-261067D01*
X916921D01*
X918889Y-255164D02*
Y-261067D01*
X921840D01*
X922824Y-260083D01*
Y-259099D01*
Y-258115D01*
X921840Y-257131D01*
X918889D01*
X924792Y-255164D02*
Y-261067D01*
X927744D01*
X928728Y-260083D01*
Y-256147D01*
X927744Y-255164D01*
X924792D01*
X931680Y-261067D02*
X933648D01*
X934632Y-260083D01*
Y-258115D01*
X933648Y-257131D01*
X931680D01*
X930696Y-258115D01*
Y-260083D01*
X931680Y-261067D01*
X940535Y-257131D02*
X937583D01*
X936599Y-258115D01*
Y-260083D01*
X937583Y-261067D01*
X940535D01*
D12*
X87035Y241096D02*
X229842Y279465D01*
D21*
X314961Y314961D02*
X314961Y-19685D01*
X-19685D02*
X314961D01*
X-19685Y314961D02*
X314961D01*
X-19685D02*
X-19685Y-19685D01*
X265659Y4188D02*
G03*
X264713Y9117I-6777J1255D01*
G01*
X262886Y952D02*
G03*
X265659Y4188I-2366J4834D01*
G01*
X260371Y-122D02*
G03*
X262886Y952I-3910J12635D01*
G01*
X94394Y161794D02*
G03*
X92998Y163855I-15281J-8848D01*
G01*
Y163855D02*
G03*
X91892Y165100I-11425J-9033D01*
G01*
X28940Y-8345D02*
G03*
X33003Y-7393I-1255J14507D01*
G01*
X251963Y-1592D02*
G03*
X258418Y-756I-2375J43684D01*
G01*
X248706Y-1699D02*
G03*
X251963Y-1592I-470J64040D01*
G01*
X245445Y-1665D02*
G03*
X248706Y-1699I2584J91938D01*
G01*
X242192Y-1541D02*
G03*
X245445Y-1665I7751J160005D01*
G01*
X2064Y29588D02*
X2492Y31865D01*
X46999Y153242D02*
X45774Y151173D01*
X7077Y-5720D02*
X7020Y-5617D01*
X7023Y-5511D01*
X7040Y-5399D01*
X7176Y-4800D01*
X7132Y-4595D01*
X6955Y-4497D01*
X6452Y-4456D01*
X105278Y138650D02*
X97753Y154719D01*
X109028Y130610D02*
X105278Y138650D01*
X112777Y122570D02*
X109028Y130610D01*
X116528Y114530D02*
X112777Y122570D01*
X97753Y154719D02*
X94791Y161071D01*
X119135Y109180D02*
X116528Y114530D01*
X121595Y105111D02*
X119135Y109180D01*
X123612Y102289D02*
X121595Y105111D01*
X126603Y98675D02*
X123612Y102289D01*
X129861Y95436D02*
X126603Y98675D01*
X132191Y93408D02*
X129861Y95436D01*
X135509Y90855D02*
X132191Y93408D01*
X136340Y90317D02*
X135509Y90855D01*
X140217Y87939D02*
X136340Y90317D01*
X143807Y85936D02*
X140217Y87939D01*
X206830Y50585D02*
X143807Y85936D01*
X213062Y47089D02*
X206830Y50585D01*
X216204Y45250D02*
X213062Y47089D01*
X224487Y40324D02*
X216204Y45250D01*
X231365Y36239D02*
X224487Y40324D01*
X237401Y32497D02*
X231365Y36239D01*
X243096Y28725D02*
X237401Y32497D01*
X249792Y23975D02*
X243096Y28725D01*
X254253Y20511D02*
X249792Y23975D01*
X257441Y17793D02*
X254253Y20511D01*
X259033Y16364D02*
X257441Y17793D01*
X260484Y14904D02*
X259033Y16364D01*
X261523Y13806D02*
X260484Y14904D01*
X262851Y12202D02*
X261523Y13806D01*
X263447Y11442D02*
X262851Y12202D01*
X264713Y9117D02*
X263447Y11442D01*
X94791Y161071D02*
X94394Y161794D01*
X91892Y165100D02*
X91301Y165681D01*
X90603Y166324D01*
X89683Y167166D01*
X88726Y167975D01*
X87740Y168735D01*
X77855Y175224D02*
X76686Y175968D01*
X79773Y174042D02*
X77855Y175224D01*
X84153Y171197D02*
X79773Y174042D01*
X86981Y169306D02*
X84153Y171197D01*
X87740Y168735D02*
X86981Y169306D01*
X76686Y175968D02*
X76164Y176252D01*
X75612Y176486D01*
X6452Y-4454D02*
X4090Y-4102D01*
X701Y-3494D01*
X-1051Y-2927D01*
X-3052Y-2104D01*
X-3344Y-1965D01*
X-3406Y-1812D01*
X2064Y29588D01*
X2492Y31865D02*
X8060Y63760D01*
X29613Y123205D01*
X45774Y151173D02*
X29613Y123205D01*
X58330Y172798D02*
X46999Y153242D01*
X62627Y180260D02*
X58330Y172798D01*
X63019Y180884D02*
X62627Y180260D01*
X63098Y180938D02*
X63019Y180884D01*
X63168Y180938D02*
X63098Y180938D01*
X65320Y180237D02*
X63168Y180938D01*
X66241Y179914D02*
X65320Y180237D01*
X67287Y179546D02*
X66241Y179914D01*
X68274Y178951D02*
X67287Y179546D01*
X71719Y176907D02*
X68274Y178951D01*
X72469Y176504D02*
X71719Y176907D01*
X72667Y176432D02*
X72469Y176504D01*
X72763Y176503D02*
X72667Y176432D01*
X72862Y176774D02*
X72763Y176503D01*
X73015Y177131D02*
X72862Y176774D01*
X73123Y177234D02*
X73015Y177131D01*
X73449Y177221D02*
X73123Y177234D01*
X74468Y176909D02*
X73449Y177221D01*
X75614Y176492D02*
X74468Y176909D01*
X9135Y-6646D02*
X7944Y-6188D01*
X7077Y-5719D01*
X9664Y-6780D02*
X9135Y-6646D01*
X10209Y-6872D02*
X9664Y-6780D01*
X28108Y-8395D02*
X23837Y-8458D01*
X22780Y-8380D01*
X18908Y-7997D01*
X17923Y-7851D01*
X13789Y-7278D01*
X10209Y-6872D01*
X28940Y-8345D02*
X28108Y-8395D01*
X33773Y-7060D02*
X33003Y-7393D01*
X185854Y6599D02*
X174120Y8794D01*
X168254Y9893D01*
X162389Y11002D01*
X156528Y12129D01*
X242192Y-1541D02*
X240409Y-1446D01*
X238637Y-1356D01*
X236599Y-1216D01*
X233157Y-883D01*
X231097Y-676D01*
X225563Y5D01*
X219900Y815D01*
X215642Y1468D01*
X212024Y2030D01*
X208105Y2642D01*
X203437Y3432D01*
X201207Y3820D01*
X197956Y4354D01*
X195509Y4796D01*
X193073Y5234D01*
X190648Y5704D01*
X188348Y6128D01*
X185854Y6599D01*
X156528Y12129D02*
X154141Y12573D01*
X151643Y13069D01*
X149228Y13499D01*
X146667Y13983D01*
X144325Y14422D01*
X141834Y14904D01*
X139329Y15380D01*
X136896Y15829D01*
X133226Y16539D01*
X130790Y16977D01*
X128305Y17445D01*
X123353Y18363D01*
X120952Y18800D01*
X119578Y19076D01*
X115244Y19910D01*
X114232Y20078D01*
X110104Y20601D01*
X105262Y20817D01*
X101299Y20691D01*
X97633Y20279D01*
X93830Y19587D01*
X92855Y19340D01*
X90007Y18583D01*
X85351Y16974D01*
X79133Y14187D01*
X74343Y11919D01*
X69799Y9773D01*
X64580Y7366D01*
X59521Y4972D01*
X54358Y2556D01*
X49203Y161D01*
X44090Y-2249D01*
X38886Y-4685D01*
X33773Y-7060D01*
X258965Y-614D02*
X258831Y-659D01*
X260371Y-123D02*
X258965Y-614D01*
X258831Y-659D02*
X258418Y-756D01*
X13327Y301858D02*
G03*
X2289Y303216I-7546J-15794D01*
G01*
X80852Y260745D02*
G03*
X76150Y265913I-13186J-7274D01*
G01*
X302747Y275034D02*
G03*
X303703Y275927I-13817J15762D01*
G01*
Y275927D02*
G03*
X304641Y276945I-10916J11001D01*
G01*
X304641Y276945D02*
G03*
X305471Y278065I-8401J7091D01*
G01*
X305471Y278065D02*
G03*
X306452Y280526I-5113J3463D01*
G01*
X306464Y281895D02*
G03*
X305941Y283453I-3805J-410D01*
G01*
Y283453D02*
G03*
X304860Y284761I-4934J-2981D01*
G01*
X304860Y284761D02*
G03*
X303434Y285836I-6690J-7387D01*
G01*
X303434Y285836D02*
G03*
X300406Y287366I-11056J-18119D01*
G01*
X50155Y200144D02*
X141987Y226398D01*
X181357Y237778D02*
X292678Y269670D01*
X181357Y237778D02*
X181357Y114172D01*
X292678Y269670D02*
X301332Y273886D01*
X47675Y204002D02*
X48399Y206181D01*
X37701Y251846D02*
X39654Y247215D01*
X45682Y230373D02*
X46531Y225275D01*
X141987Y114174D02*
Y226398D01*
X-10478Y299669D02*
X-10243Y299778D01*
X-10683Y299533D02*
X-10478Y299669D01*
X-10865Y299358D02*
X-10683Y299533D01*
X-11018Y299157D02*
X-10865Y299358D01*
X-11119Y298934D02*
X-11018Y299157D01*
X-11190Y298686D02*
X-11119Y298934D01*
X13327Y301858D02*
X14084Y301475D01*
X1434Y303021D02*
X2289Y303216D01*
X-8708Y300304D02*
X1434Y303021D01*
X-10243Y299778D02*
X-8708Y300304D01*
X80852Y260745D02*
X81211Y260049D01*
X75494Y266346D02*
X76150Y265913D01*
X236578Y298535D02*
X240112Y299482D01*
X236135Y298519D02*
X236578Y298535D01*
X235633Y298419D02*
X236135Y298519D01*
X231660Y297355D02*
X235633Y298419D01*
X231313Y297193D02*
X231660Y297355D01*
X231041Y297051D02*
X231313Y297193D01*
X82596Y257275D02*
X231041Y297051D01*
X82424Y257321D02*
X82596Y257275D01*
X81873Y258218D02*
X82424Y257321D01*
X81556Y259189D02*
X81873Y258218D01*
X81211Y260049D02*
X81556Y259189D01*
X-11190Y298686D02*
X-11139Y296140D01*
X-10941Y295573D01*
X-8521Y292709D01*
X-7266Y291323D01*
X22224Y258029D01*
X22756Y257460D01*
X23447Y256681D01*
X36621Y255792D01*
X37701Y251846D01*
X39654Y247215D02*
X45682Y230373D01*
X46531Y225275D02*
X46903Y221403D01*
X48029Y209962D01*
X48399Y206182D01*
X35118Y192648D02*
X47675Y204002D01*
X35118Y192648D02*
X35139Y192355D01*
X35756Y191465D01*
X36049Y191486D01*
X36318Y191638D01*
X39348Y193437D01*
X44109Y196320D01*
X46850Y198041D01*
X49567Y199894D01*
X50155Y200144D01*
X301332Y273886D02*
X302747Y275034D01*
X306452Y280526D02*
X306537Y281238D01*
X306464Y281895D02*
X306537Y281238D01*
X299167Y287792D02*
X300406Y287366D01*
X293940Y289008D02*
X299167Y287792D01*
X290130Y289732D02*
X293940Y289008D01*
X285506Y290628D02*
X290130Y289732D01*
X282396Y291138D02*
X285506Y290628D01*
X276212Y292029D02*
X282396Y291138D01*
X268169Y292915D02*
X276212Y292029D01*
X261145Y293811D02*
X268169Y292915D01*
X260385Y294204D02*
X261145Y293811D01*
X255361Y297105D02*
X260385Y294204D01*
X254296Y297738D02*
X255361Y297105D01*
X252647Y298708D02*
X254296Y297738D01*
X251584Y299250D02*
X252647Y298708D01*
X250301Y299755D02*
X251584Y299250D01*
X248752Y300178D02*
X250301Y299755D01*
X247806Y300326D02*
X248752Y300178D01*
X246944Y300417D02*
X247806Y300326D01*
X244933Y300509D02*
X246944Y300417D01*
X243653Y300361D02*
X244933Y300509D01*
X242575Y300187D02*
X243653Y300361D01*
X241729Y299961D02*
X242575Y300187D01*
X240112Y299482D02*
X241729Y299961D01*
X72843Y267931D02*
X75494Y266346D01*
X14187Y301434D02*
X72843Y267931D01*
X14084Y301475D02*
X14187Y301434D01*
X141987Y114174D02*
X143956Y110237D01*
X179389D02*
X181357Y114174D01*
X143956Y110237D02*
X179389D01*
X247613Y120054D02*
G03*
X251944Y120054I2165J0D01*
G01*
Y159424D02*
G03*
X247613Y159424I-2165J0D01*
G01*
X232060Y57087D02*
X267336D01*
X251944Y120054D02*
Y159424D01*
X247613Y120054D02*
Y159424D01*
X294953Y95466D02*
X300173Y116828D01*
X286649Y77123D02*
X294953Y95466D01*
X275826Y63047D02*
X286649Y77123D01*
X267336Y57087D02*
X275826Y63047D01*
X223569D02*
X232060Y57087D01*
X212747Y77123D02*
X223569Y63047D01*
X204442Y95466D02*
X212747Y77123D01*
X199222Y116828D02*
X204442Y95466D01*
X197441Y139752D02*
X199222Y116828D01*
X197441Y139752D02*
X199222Y162675D01*
X204442Y184037D01*
X212747Y202380D01*
X223569Y216456D01*
X236173Y225304D01*
X249697Y228322D01*
X263223Y225304D01*
X275826Y216456D01*
X286649Y202380D01*
X294953Y184037D01*
X300173Y162675D01*
X301954Y139752D01*
X300173Y116828D02*
X301954Y139752D01*
D22*
X1019299Y-202012D02*
Y-194141D01*
X1023235D01*
X1024547Y-195452D01*
Y-198076D01*
X1023235Y-199388D01*
X1019299D01*
X1021923D02*
X1024547Y-202012D01*
X1031106D02*
X1028482D01*
X1027170Y-200700D01*
Y-198076D01*
X1028482Y-196764D01*
X1031106D01*
X1032418Y-198076D01*
Y-199388D01*
X1027170D01*
X1035042Y-196764D02*
X1037666Y-202012D01*
X1040289Y-196764D01*
X664968Y-233511D02*
Y-241382D01*
X668904D01*
X670216Y-240070D01*
Y-234823D01*
X668904Y-233511D01*
X664968D01*
X676775Y-241382D02*
X674152D01*
X672840Y-240070D01*
Y-237446D01*
X674152Y-236134D01*
X676775D01*
X678087Y-237446D01*
Y-238758D01*
X672840D01*
X680711Y-241382D02*
X684647D01*
X685959Y-240070D01*
X684647Y-238758D01*
X682023D01*
X680711Y-237446D01*
X682023Y-236134D01*
X685959D01*
X691207Y-244006D02*
X692518D01*
X693830Y-242694D01*
Y-236134D01*
X689894D01*
X688583Y-237446D01*
Y-240070D01*
X689894Y-241382D01*
X693830D01*
X696454D02*
X699078D01*
X697766D01*
Y-236134D01*
X696454D01*
X703014Y-241382D02*
Y-236134D01*
X706949D01*
X708261Y-237446D01*
Y-241382D01*
X714821D02*
X712197D01*
X710885Y-240070D01*
Y-237446D01*
X712197Y-236134D01*
X714821D01*
X716133Y-237446D01*
Y-238758D01*
X710885D01*
X718757Y-236134D02*
Y-241382D01*
Y-238758D01*
X720069Y-237446D01*
X721381Y-236134D01*
X722692D01*
X861819Y-115400D02*
Y-123272D01*
X865754D01*
X867066Y-121960D01*
Y-116712D01*
X865754Y-115400D01*
X861819D01*
X871002Y-123272D02*
X873626D01*
X874938Y-121960D01*
Y-119336D01*
X873626Y-118024D01*
X871002D01*
X869690Y-119336D01*
Y-121960D01*
X871002Y-123272D01*
X882809Y-118024D02*
X878874D01*
X877561Y-119336D01*
Y-121960D01*
X878874Y-123272D01*
X882809D01*
X885433Y-118024D02*
Y-121960D01*
X886745Y-123272D01*
X890681D01*
Y-118024D01*
X893305Y-123272D02*
Y-118024D01*
X894616D01*
X895928Y-119336D01*
Y-123272D01*
Y-119336D01*
X897240Y-118024D01*
X898552Y-119336D01*
Y-123272D01*
X905112D02*
X902488D01*
X901176Y-121960D01*
Y-119336D01*
X902488Y-118024D01*
X905112D01*
X906424Y-119336D01*
Y-120648D01*
X901176D01*
X909048Y-123272D02*
Y-118024D01*
X912983D01*
X914295Y-119336D01*
Y-123272D01*
X918231Y-116712D02*
Y-118024D01*
X916919D01*
X919543D01*
X918231D01*
Y-121960D01*
X919543Y-123272D01*
X861819Y-154770D02*
Y-162642D01*
X867066D01*
X871002Y-157394D02*
X873626D01*
X874938Y-158706D01*
Y-162642D01*
X871002D01*
X869690Y-161330D01*
X871002Y-160018D01*
X874938D01*
X877561Y-157394D02*
Y-161330D01*
X878874Y-162642D01*
X882809D01*
Y-163954D01*
X881497Y-165266D01*
X880185D01*
X882809Y-162642D02*
Y-157394D01*
X889369Y-162642D02*
X886745D01*
X885433Y-161330D01*
Y-158706D01*
X886745Y-157394D01*
X889369D01*
X890681Y-158706D01*
Y-160018D01*
X885433D01*
X893305Y-157394D02*
Y-162642D01*
Y-160018D01*
X894616Y-158706D01*
X895928Y-157394D01*
X897240D01*
X909048Y-162642D02*
Y-154770D01*
X914295Y-162642D01*
Y-154770D01*
X918231Y-157394D02*
X920855D01*
X922167Y-158706D01*
Y-162642D01*
X918231D01*
X916919Y-161330D01*
X918231Y-160018D01*
X922167D01*
X924790Y-162642D02*
Y-157394D01*
X926102D01*
X927414Y-158706D01*
Y-162642D01*
Y-158706D01*
X928726Y-157394D01*
X930038Y-158706D01*
Y-162642D01*
X936598D02*
X933974D01*
X932662Y-161330D01*
Y-158706D01*
X933974Y-157394D01*
X936598D01*
X937910Y-158706D01*
Y-160018D01*
X932662D01*
X861819Y-194141D02*
Y-202012D01*
X865754D01*
X867066Y-200700D01*
Y-195452D01*
X865754Y-194141D01*
X861819D01*
X871002Y-196764D02*
X873626D01*
X874938Y-198076D01*
Y-202012D01*
X871002D01*
X869690Y-200700D01*
X871002Y-199388D01*
X874938D01*
X878874Y-195452D02*
Y-196764D01*
X877561D01*
X880185D01*
X878874D01*
Y-200700D01*
X880185Y-202012D01*
X888057D02*
X885433D01*
X884121Y-200700D01*
Y-198076D01*
X885433Y-196764D01*
X888057D01*
X889369Y-198076D01*
Y-199388D01*
X884121D01*
X861819Y-233511D02*
Y-241382D01*
X865754D01*
X867066Y-240070D01*
Y-234823D01*
X865754Y-233511D01*
X861819D01*
X871002Y-241382D02*
X873626D01*
X874938Y-240070D01*
Y-237446D01*
X873626Y-236134D01*
X871002D01*
X869690Y-237446D01*
Y-240070D01*
X871002Y-241382D01*
X882809Y-236134D02*
X878874D01*
X877561Y-237446D01*
Y-240070D01*
X878874Y-241382D01*
X882809D01*
X885433Y-236134D02*
Y-240070D01*
X886745Y-241382D01*
X890681D01*
Y-236134D01*
X893305Y-241382D02*
Y-236134D01*
X894616D01*
X895928Y-237446D01*
Y-241382D01*
Y-237446D01*
X897240Y-236134D01*
X898552Y-237446D01*
Y-241382D01*
X905112D02*
X902488D01*
X901176Y-240070D01*
Y-237446D01*
X902488Y-236134D01*
X905112D01*
X906424Y-237446D01*
Y-238758D01*
X901176D01*
X909048Y-241382D02*
Y-236134D01*
X912983D01*
X914295Y-237446D01*
Y-241382D01*
X918231Y-234823D02*
Y-236134D01*
X916919D01*
X919543D01*
X918231D01*
Y-240070D01*
X919543Y-241382D01*
D55*
X185488Y4665D02*
G03*
X185491Y4666I-872J1765D01*
G01*
X83037Y260782D02*
G03*
X82960Y260951I-1827J-733D01*
G01*
X82576Y261696D02*
G03*
X82572Y261702I-14909J-8224D01*
G01*
X82602Y261647D02*
G03*
X82572Y261702I-1750J-902D01*
G01*
X83038Y260780D02*
G03*
X82960Y260951I-1828J-731D01*
G01*
X82602Y261647D02*
G03*
X82576Y261696I-1750J-902D01*
G01*
X83428Y259798D02*
G03*
X83383Y259922I-1872J-609D01*
G01*
X83427Y259801D02*
G03*
X83382Y259924I-1871J-612D01*
G01*
X77264Y267536D02*
G03*
X77259Y267540I-9598J-14064D01*
G01*
X77264Y267536D02*
G03*
X77235Y267556I-1115J-1623D01*
G01*
X77259Y267540D02*
G03*
X77235Y267556I-1109J-1626D01*
G01*
X76583Y267986D02*
G03*
X76504Y268035I-1088J-1640D01*
G01*
X76579Y267989D02*
G03*
X76501Y268038I-1085J-1643D01*
G01*
X73857Y269618D02*
G03*
X73819Y269640I-1014J-1688D01*
G01*
X73853Y269621D02*
G03*
X73817Y269641I-1010J-1690D01*
G01*
X82572Y261702D02*
G03*
X77264Y267536I-14906J-8230D01*
G01*
X183326Y114172D02*
G03*
X183326Y114174I-1969J2D01*
G01*
X183093Y113244D02*
G03*
X183326Y114172I-1736J929D01*
G01*
X183093Y113244D02*
G03*
X183326Y114172I-1736J929D01*
G01*
X179389Y108268D02*
G03*
X181150Y109356I0J1969D01*
G01*
X179389Y108268D02*
G03*
X181150Y109356I0J1969D01*
G01*
X245024Y302476D02*
G03*
X244707Y302465I-91J-1966D01*
G01*
X245024Y302476D02*
G03*
X244707Y302465I-91J-1966D01*
G01*
X243427Y302317D02*
G03*
X243339Y302305I226J-1956D01*
G01*
X243427Y302317D02*
G03*
X243336Y302304I226J-1956D01*
G01*
X242264Y302131D02*
G03*
X242065Y302089I311J-1944D01*
G01*
X242261Y302131D02*
G03*
X242065Y302089I314J-1943D01*
G01*
X241219Y301862D02*
G03*
X241169Y301848I509J-1901D01*
G01*
X241219Y301862D02*
G03*
X241166Y301847I509J-1901D01*
G01*
X251022Y301587D02*
G03*
X250820Y301654I-722J-1832D01*
G01*
X251022Y301587D02*
G03*
X250817Y301655I-722J-1832D01*
G01*
X249274Y302077D02*
G03*
X249057Y302123I-521J-1898D01*
G01*
X249271Y302077D02*
G03*
X249053Y302124I-519J-1899D01*
G01*
X248115Y302271D02*
G03*
X248011Y302284I-309J-1944D01*
G01*
X248110Y302271D02*
G03*
X248011Y302284I-304J-1945D01*
G01*
X247149Y302375D02*
G03*
X247034Y302383I-205J-1958D01*
G01*
X247149Y302375D02*
G03*
X247034Y302383I-205J-1958D01*
G01*
X235252Y300350D02*
G03*
X235124Y300321I381J-1931D01*
G01*
X235249Y300350D02*
G03*
X235121Y300320I385J-1931D01*
G01*
X231153Y299257D02*
G03*
X230828Y299139I507J-1902D01*
G01*
X231151Y299256D02*
G03*
X230824Y299137I509J-1901D01*
G01*
X230485Y298978D02*
G03*
X230403Y298938I829J-1786D01*
G01*
X230481Y298977D02*
G03*
X230401Y298937I832J-1784D01*
G01*
X276492Y293977D02*
G03*
X276423Y293986I-281J-1949D01*
G01*
X276494Y293977D02*
G03*
X276427Y293985I-282J-1948D01*
G01*
X252480Y301003D02*
G03*
X252305Y301081I-896J-1753D01*
G01*
X252477Y301004D02*
G03*
X252305Y301081I-893J-1754D01*
G01*
X236070Y300487D02*
G03*
X235750Y300450I65J-1967D01*
G01*
X236066Y300486D02*
G03*
X235746Y300449I69J-1967D01*
G01*
X255302Y299430D02*
G03*
X255294Y299435I-1006J-1692D01*
G01*
X255302Y299430D02*
G03*
X255294Y299435I-1006J-1692D01*
G01*
X253645Y300405D02*
G03*
X253541Y300462I-998J-1697D01*
G01*
X253645Y300405D02*
G03*
X253538Y300464I-998J-1697D01*
G01*
X142195Y109356D02*
G03*
X143956Y108268I1761J880D01*
G01*
X142194Y109359D02*
G03*
X143956Y108268I1762J878D01*
G01*
X140019Y114174D02*
G03*
X140228Y113291I1969J0D01*
G01*
X140019Y114174D02*
G03*
X140226Y113294I1969J0D01*
G01*
X293220Y267777D02*
G03*
X293542Y267900I-542J1892D01*
G01*
X293217Y267776D02*
G03*
X293541Y267900I-538J1894D01*
G01*
X308505Y281238D02*
G03*
X308493Y281455I-1969J0D01*
G01*
X308505Y281238D02*
G03*
X308493Y281455I-1969J0D01*
G01*
X308491Y281005D02*
G03*
X308505Y281238I-1955J233D01*
G01*
X308421Y282106D02*
G03*
X308420Y282114I-5762J-620D01*
G01*
X308420Y282112D02*
G03*
X308420Y282114I-1957J-217D01*
G01*
D02*
G03*
X307629Y284466I-5761J-628D01*
G01*
X307629D02*
G03*
X307626Y284471I-1688J-1012D01*
G01*
Y284471D02*
G03*
X306179Y286222I-6619J-3998D01*
G01*
X306181Y286220D02*
G03*
X306179Y286222I-8010J-8845D01*
G01*
X306179D02*
G03*
X306176Y286225I-5172J-5749D01*
G01*
X306179Y286222D02*
G03*
X304480Y287504I-8008J-8847D01*
G01*
D02*
G03*
X304474Y287508I-6308J-10129D01*
G01*
X304480Y287504D02*
G03*
X304460Y287516I-1046J-1668D01*
G01*
D02*
G03*
X301151Y289188I-12082J-19799D01*
G01*
Y289188D02*
G03*
X301046Y289228I-745J-1822D01*
G01*
X301151Y289188D02*
G03*
X301046Y289228I-745J-1822D01*
G01*
X299810Y289652D02*
G03*
X299614Y289709I-643J-1861D01*
G01*
X299807Y289653D02*
G03*
X299614Y289709I-640J-1862D01*
G01*
X294386Y290925D02*
G03*
X294308Y290942I-446J-1917D01*
G01*
X294386Y290925D02*
G03*
X294304Y290943I-446J-1917D01*
G01*
X282715Y293080D02*
G03*
X282676Y293086I-319J-1943D01*
G01*
X282715Y293080D02*
G03*
X282677Y293086I-319J-1943D01*
G01*
X285880Y292560D02*
G03*
X285824Y292570I-374J-1933D01*
G01*
X285882Y292560D02*
G03*
X285824Y292570I-376J-1932D01*
G01*
X308491Y281001D02*
G03*
X308505Y281238I-1954J237D01*
G01*
X305090Y274530D02*
G03*
X306147Y275677I-12300J12396D01*
G01*
X306146Y275675D02*
G03*
X307114Y276980I-9904J8359D01*
G01*
X308394Y280207D02*
G03*
X308406Y280293I-1942J319D01*
G01*
X307114Y276980D02*
G03*
X308394Y280207I-6755J4548D01*
G01*
X303987Y273505D02*
G03*
X304044Y273553I-1241J1528D01*
G01*
X308394Y280207D02*
G03*
X308406Y280293I-1942J319D01*
G01*
X302195Y272116D02*
G03*
X302573Y272358I-862J1770D01*
G01*
X303987Y273505D02*
G03*
X304044Y273553I-1241J1528D01*
G01*
X302193Y272115D02*
G03*
X302573Y272358I-861J1770D01*
G01*
X304044Y273553D02*
G03*
X305091Y274531I-15105J17232D01*
G01*
X-12585Y300348D02*
G03*
X-12810Y299972I1567J-1192D01*
G01*
X-12587Y300345D02*
G03*
X-12810Y299972I1570J-1188D01*
G01*
X-12911Y299750D02*
G03*
X-13012Y299476I1792J-815D01*
G01*
X-12911Y299750D02*
G03*
X-13013Y299473I1792J-815D01*
G01*
X-13107Y296100D02*
G03*
X-12997Y295488I1968J39D01*
G01*
X-13107Y296100D02*
G03*
X-12998Y295491I1968J39D01*
G01*
X-13082Y299231D02*
G03*
X-13158Y298646I1892J-545D01*
G01*
X-13083Y299227D02*
G03*
X-13158Y298646I1893J-542D01*
G01*
X-10025Y291438D02*
G03*
X-9980Y291387I1504J1271D01*
G01*
X-10026Y291440D02*
G03*
X-9980Y291387I1505J1269D01*
G01*
X-12227Y300780D02*
G03*
X-12435Y300546I1362J-1422D01*
G01*
X-12228Y300779D02*
G03*
X-12437Y300543I1363J-1421D01*
G01*
X-12800Y294924D02*
G03*
X-12443Y294300I1859J649D01*
G01*
X-12801Y294928D02*
G03*
X-12445Y294302I1860J645D01*
G01*
X-9215Y302206D02*
G03*
X-9346Y302166I507J-1902D01*
G01*
X-9217Y302205D02*
G03*
X-9346Y302166I509J-1901D01*
G01*
X-10881Y301640D02*
G03*
X-11071Y301564I638J-1862D01*
G01*
X-10881Y301640D02*
G03*
X-11075Y301562I638J-1862D01*
G01*
X-11302Y301457D02*
G03*
X-11562Y301311I824J-1788D01*
G01*
X-11305Y301455D02*
G03*
X-11564Y301310I828J-1786D01*
G01*
X-11765Y301178D02*
G03*
X-12045Y300954I1082J-1644D01*
G01*
X-11767Y301176D02*
G03*
X-12046Y300953I1085J-1643D01*
G01*
X15165Y303142D02*
G03*
X14921Y303260I-978J-1708D01*
G01*
X15164Y303143D02*
G03*
X14921Y303260I-976J-1709D01*
G01*
X14216Y303614D02*
G03*
X14176Y303634I-888J-1757D01*
G01*
X14216Y303614D02*
G03*
X14176Y303634I-888J-1757D01*
G01*
X14176D02*
G03*
X1896Y305145I-8395J-17571D01*
G01*
D02*
G03*
X1852Y305135I393J-1929D01*
G01*
X1896Y305145D02*
G03*
X1852Y305135I393J-1929D01*
G01*
X997Y304941D02*
G03*
X924Y304923I437J-1919D01*
G01*
X997Y304941D02*
G03*
X922Y304922I437J-1919D01*
G01*
X36190Y189522D02*
G03*
X37022Y189774I-141J1963D01*
G01*
X36190Y189522D02*
G03*
X37019Y189773I-141J1963D01*
G01*
X34138Y190343D02*
G03*
X35897Y189501I1618J1122D01*
G01*
X34135Y190347D02*
G03*
X35897Y189501I1621J1118D01*
G01*
X33799Y194110D02*
G03*
X33154Y192507I1319J-1462D01*
G01*
X33797Y194108D02*
G03*
X33154Y192507I1320J-1460D01*
G01*
X33175Y192214D02*
G03*
X33524Y191229I1963J141D01*
G01*
X33175Y192214D02*
G03*
X33521Y191234I1963J141D01*
G01*
X45128Y194636D02*
G03*
X45156Y194653I-1020J1684D01*
G01*
X40353Y191744D02*
G03*
X40368Y191753I-1005J1693D01*
G01*
X40350Y191743D02*
G03*
X40368Y191753I-1002J1695D01*
G01*
X37288Y189925D02*
G03*
X37326Y189947I-970J1713D01*
G01*
X37286Y189924D02*
G03*
X37323Y189945I-968J1714D01*
G01*
X35803Y251326D02*
G03*
X35887Y251081I1899J520D01*
G01*
X35803Y251326D02*
G03*
X35887Y251081I1899J520D01*
G01*
X21974Y255375D02*
G03*
X23317Y254717I1473J1306D01*
G01*
X21974Y255375D02*
G03*
X23314Y254717I1473J1306D01*
G01*
X20751Y256724D02*
G03*
X20788Y256683I1474J1305D01*
G01*
X20751Y256724D02*
G03*
X20785Y256686I1474J1305D01*
G01*
X47897Y196374D02*
G03*
X47962Y196417I-1047J1667D01*
G01*
X47897Y196374D02*
G03*
X47959Y196415I-1047J1667D01*
G01*
X46070Y209769D02*
G03*
X46070Y209768I1959J193D01*
G01*
X45128Y194636D02*
G03*
X45156Y194653I-1020J1684D01*
G01*
X44944Y221215D02*
G03*
X44944Y221210I1960J188D01*
G01*
X44944Y221215D02*
G03*
X44944Y221210I1960J188D01*
G01*
X45296Y154228D02*
G03*
X45149Y153915I1703J-987D01*
G01*
X45296Y154228D02*
G03*
X45149Y153915I1703J-987D01*
G01*
X45127Y153852D02*
G03*
X45019Y153388I1850J-673D01*
G01*
X45127Y153852D02*
G03*
X45019Y153388I1850J-673D01*
G01*
X45014Y153342D02*
G03*
X45004Y153089I1957J-209D01*
G01*
X45014Y153342D02*
G03*
X45004Y153089I1957J-209D01*
G01*
D02*
G03*
X44306Y152499I887J-1757D01*
G01*
X45004Y153089D02*
G03*
X44305Y152497I887J-1757D01*
G01*
X44191Y152343D02*
G03*
X44070Y152158I1584J-1170D01*
G01*
X44190Y152341D02*
G03*
X44070Y152158I1585J-1168D01*
G01*
X27908Y124190D02*
G03*
X27762Y123876I1705J-985D01*
G01*
X27908Y124190D02*
G03*
X27762Y123876I1705J-985D01*
G01*
X85247Y172834D02*
G03*
X85222Y172850I-1094J-1637D01*
G01*
X80848Y175691D02*
G03*
X80805Y175718I-1075J-1649D01*
G01*
X80845Y175693D02*
G03*
X80805Y175718I-1072J-1651D01*
G01*
X77743Y177628D02*
G03*
X77627Y177696I-1057J-1661D01*
G01*
X77743Y177628D02*
G03*
X77627Y177696I-1057J-1661D01*
G01*
X77106Y177981D02*
G03*
X76934Y178063I-941J-1729D01*
G01*
X77106Y177981D02*
G03*
X76934Y178064I-941J-1729D01*
G01*
X76934Y178063D02*
G03*
X76933Y178064I-770J-1812D01*
G01*
X94546Y165071D02*
G03*
X94542Y165076I-1548J-1216D01*
G01*
X94542D02*
G03*
X93287Y166489I-12969J-10254D01*
G01*
D02*
G03*
X93272Y166504I-1395J-1389D01*
G01*
X93287Y166489D02*
G03*
X93269Y166507I-1395J-1389D01*
G01*
X92684Y167081D02*
G03*
X92635Y167129I-1383J-1401D01*
G01*
X92681Y167085D02*
G03*
X92635Y167129I-1380J-1404D01*
G01*
X91937Y167772D02*
G03*
X91932Y167776I-1334J-1448D01*
G01*
X91937Y167772D02*
G03*
X91929Y167779I-1334J-1448D01*
G01*
X91014Y168616D02*
G03*
X90953Y168670I-1332J-1450D01*
G01*
X91012Y168619D02*
G03*
X90951Y168672I-1329J-1452D01*
G01*
X89999Y169477D02*
G03*
X89928Y169534I-1273J-1502D01*
G01*
X89997Y169478D02*
G03*
X89925Y169536I-1271J-1504D01*
G01*
X88945Y170292D02*
G03*
X88924Y170308I-1205J-1557D01*
G01*
X88942Y170294D02*
G03*
X88924Y170308I-1202J-1559D01*
G01*
X88164Y170879D02*
G03*
X88075Y170943I-1183J-1573D01*
G01*
X88164Y170879D02*
G03*
X88075Y170943I-1183J-1573D01*
G01*
X85247Y172834D02*
G03*
X85225Y172848I-1094J-1637D01*
G01*
X66895Y181771D02*
G03*
X66892Y181772I-654J-1857D01*
G01*
X65971Y182095D02*
G03*
X65930Y182109I-651J-1858D01*
G01*
X65971Y182095D02*
G03*
X65926Y182110I-651J-1858D01*
G01*
X63781Y182809D02*
G03*
X63184Y182906I-613J-1871D01*
G01*
X63778Y182810D02*
G03*
X63184Y182906I-610J-1872D01*
G01*
X63113Y182907D02*
G03*
X61984Y182562I-16J-1969D01*
G01*
X63113Y182907D02*
G03*
X61981Y182560I-16J-1969D01*
G01*
X61908Y182510D02*
G03*
X61352Y181932I1111J-1625D01*
G01*
X61905Y182508D02*
G03*
X61351Y181930I1114J-1623D01*
G01*
X76527Y178236D02*
G03*
X76288Y178342I-913J-1744D01*
G01*
X76527Y178236D02*
G03*
X76283Y178343I-913J-1744D01*
G01*
X75146Y178758D02*
G03*
X75044Y178792I-678J-1848D01*
G01*
X75142Y178759D02*
G03*
X75044Y178792I-673J-1850D01*
G01*
X74025Y179104D02*
G03*
X73525Y179188I-576J-1882D01*
G01*
X74025Y179104D02*
G03*
X73521Y179188I-576J-1882D01*
G01*
X73203Y179201D02*
G03*
X72146Y178943I-80J-1967D01*
G01*
X73199Y179201D02*
G03*
X72146Y178943I-76J-1967D01*
G01*
X68304Y181232D02*
G03*
X67941Y181403I-1017J-1686D01*
G01*
X68304Y181232D02*
G03*
X67936Y181405I-1017J-1686D01*
G01*
X66899Y181770D02*
G03*
X66892Y181772I-658J-1856D01*
G01*
X60961Y181310D02*
G03*
X60921Y181243I1665J-1050D01*
G01*
X60960Y181308D02*
G03*
X60921Y181243I1667J-1048D01*
G01*
X114560Y123402D02*
G03*
X114559Y123405I-1784J-833D01*
G01*
X110814Y131438D02*
G03*
X110812Y131442I-1786J-828D01*
G01*
X110812Y131442D02*
G03*
X110811Y131445I-1784J-832D01*
G01*
X107063Y139480D02*
G03*
X107061Y139485I-1785J-829D01*
G01*
X107062Y139482D02*
G03*
X107061Y139485I-1784J-832D01*
G01*
X96575Y161903D02*
G03*
X96516Y162020I-1784J-832D01*
G01*
X96575Y161903D02*
G03*
X96514Y162023I-1784J-832D01*
G01*
X96122Y162737D02*
G03*
X96097Y162781I-1728J-943D01*
G01*
D02*
G03*
X94546Y165071I-16985J-9835D01*
G01*
X264399Y13417D02*
G03*
X264367Y13457I-1548J-1216D01*
G01*
X264400Y13417D02*
G03*
X264399Y13418I-1549J-1215D01*
G01*
X261913Y16257D02*
G03*
X261877Y16295I-1429J-1354D01*
G01*
X261914Y16256D02*
G03*
X261880Y16292I-1431J-1352D01*
G01*
X263040Y15061D02*
G03*
X262951Y15161I-1517J-1255D01*
G01*
X263040Y15061D02*
G03*
X262953Y15159I-1517J-1255D01*
G01*
X264399Y13418D02*
G03*
X264367Y13457I-1548J-1216D01*
G01*
X264996Y12657D02*
G03*
X264995Y12658I-1549J-1215D01*
G01*
X265176Y12383D02*
G03*
X264996Y12657I-1729J-941D01*
G01*
X265176Y12383D02*
G03*
X264996Y12657I-1729J-941D01*
G01*
X267743Y5443D02*
G03*
X266414Y10110I-8860J0D01*
G01*
X267595Y3829D02*
G03*
X267743Y5443I-8712J1613D01*
G01*
X267539Y3603D02*
G03*
X267595Y3829I-1880J585D01*
G01*
X263800Y-792D02*
G03*
X267539Y3603I-3280J6578D01*
G01*
X260988Y-1992D02*
G03*
X263800Y-792I-4528J14505D01*
G01*
X260432Y17749D02*
G03*
X260348Y17829I-1400J-1385D01*
G01*
X260429Y17752D02*
G03*
X260348Y17829I-1397J-1388D01*
G01*
X259594Y-2479D02*
G03*
X259617Y-2471I-629J1866D01*
G01*
X259594Y-2479D02*
G03*
X259614Y-2472I-629J1866D01*
G01*
X258756Y19258D02*
G03*
X258718Y19291I-1315J-1465D01*
G01*
X258756Y19258D02*
G03*
X258718Y19291I-1315J-1465D01*
G01*
X255530Y22009D02*
G03*
X255461Y22065I-1277J-1498D01*
G01*
X255530Y22009D02*
G03*
X255461Y22065I-1277J-1498D01*
G01*
X250999Y25530D02*
G03*
X250931Y25581I-1207J-1555D01*
G01*
X250999Y25530D02*
G03*
X250931Y25581I-1207J-1555D01*
G01*
X238488Y34138D02*
G03*
X238439Y34170I-1087J-1641D01*
G01*
X238488Y34138D02*
G03*
X238439Y34170I-1087J-1641D01*
G01*
X232403Y37912D02*
G03*
X232371Y37932I-1037J-1673D01*
G01*
X232403Y37912D02*
G03*
X232369Y37932I-1037J-1673D01*
G01*
X244235Y30330D02*
G03*
X244183Y30366I-1139J-1606D01*
G01*
X244235Y30330D02*
G03*
X244183Y30366I-1139J-1606D01*
G01*
X259282Y-2575D02*
G03*
X259459Y-2525I-451J1916D01*
G01*
X259282Y-2575D02*
G03*
X259459Y-2525I-451J1916D01*
G01*
X258815Y-2684D02*
G03*
X258869Y-2672I-397J1928D01*
G01*
X258809Y-2686D02*
G03*
X258869Y-2672I-391J1929D01*
G01*
X258809Y-2686D02*
G03*
X258815Y-2684I-9220J44777D01*
G01*
X252075Y-3558D02*
G03*
X258809Y-2686I-2486J45649D01*
G01*
X252075Y-3557D02*
G03*
X252078Y-3557I-3838J65885D01*
G01*
X252070Y-3558D02*
G03*
X252075Y-3558I-2482J45649D01*
G01*
X248727Y-3667D02*
G03*
X252075Y-3557I-490J65995D01*
G01*
X248720Y-3667D02*
G03*
X248727Y-3667I-14J1969D01*
G01*
X248720Y-3667D02*
G03*
X248727Y-3667I-484J65995D01*
G01*
X245389Y-3633D02*
G03*
X248720Y-3667I2640J93904D01*
G01*
X242097Y-3507D02*
G03*
X245389Y-3633I7844J161911D01*
G01*
X242088Y-3506D02*
G03*
X242097Y-3507I104J1966D01*
G01*
X242088Y-3506D02*
G03*
X242097Y-3507I104J1966D01*
G01*
X238502Y-3320D02*
G03*
X238537Y-3322I135J1964D01*
G01*
X238500Y-3320D02*
G03*
X238537Y-3322I137J1964D01*
G01*
X236410Y-3176D02*
G03*
X236466Y-3180I189J1960D01*
G01*
X236410Y-3176D02*
G03*
X236465Y-3180I189J1960D01*
G01*
X232960Y-2842D02*
G03*
X232968Y-2843I197J1959D01*
G01*
X232960Y-2842D02*
G03*
X232968Y-2843I197J1959D01*
G01*
X230857Y-2630D02*
G03*
X230900Y-2635I240J1954D01*
G01*
X230857Y-2630D02*
G03*
X230900Y-2635I240J1954D01*
G01*
X207796Y52300D02*
G03*
X207793Y52302I-875J-1764D01*
G01*
X225492Y42016D02*
G03*
X225490Y42017I-1005J-1693D01*
G01*
X217213Y46940D02*
G03*
X217198Y46949I-1009J-1690D01*
G01*
X217210Y46942D02*
G03*
X217196Y46950I-1006J-1692D01*
G01*
X214060Y48787D02*
G03*
X214025Y48807I-998J-1697D01*
G01*
X214057Y48788D02*
G03*
X214022Y48808I-995J-1699D01*
G01*
X195157Y2859D02*
G03*
X195159Y2859I352J1937D01*
G01*
X192699Y3302D02*
G03*
X192728Y3296I374J1933D01*
G01*
X192699Y3302D02*
G03*
X192725Y3297I374J1933D01*
G01*
X187983Y4194D02*
G03*
X187991Y4192I366J1934D01*
G01*
X187983Y4194D02*
G03*
X187991Y4192I366J1934D01*
G01*
X225284Y-1944D02*
G03*
X225323Y-1949I279J1949D01*
G01*
X225284Y-1944D02*
G03*
X225323Y-1949I279J1949D01*
G01*
X219601Y-1131D02*
G03*
X219621Y-1134I298J1946D01*
G01*
X219601Y-1131D02*
G03*
X219621Y-1134I298J1946D01*
G01*
X215340Y-477D02*
G03*
X215344Y-478I302J1945D01*
G01*
X215338Y-477D02*
G03*
X215344Y-478I304J1945D01*
G01*
X211720Y85D02*
G03*
X211724Y84I304J1945D01*
G01*
X211717Y85D02*
G03*
X211722Y85I307J1945D01*
G01*
X207777Y701D02*
G03*
X207804Y697I329J1941D01*
G01*
X207777Y701D02*
G03*
X207802Y697I329J1941D01*
G01*
X203101Y1493D02*
G03*
X203109Y1491I337J1940D01*
G01*
X203097Y1494D02*
G03*
X203109Y1491I341J1939D01*
G01*
X197606Y2417D02*
G03*
X197640Y2411I350J1937D01*
G01*
X197602Y2417D02*
G03*
X197637Y2411I354J1936D01*
G01*
X195161Y2858D02*
G03*
X195163Y2858I349J1938D01*
G01*
X144770Y87653D02*
G03*
X144766Y87655I-963J-1717D01*
G01*
X144770Y87653D02*
G03*
X144766Y87655I-963J-1717D01*
G01*
X136522Y13896D02*
G03*
X136539Y13893I374J1933D01*
G01*
X136520Y13896D02*
G03*
X136539Y13893I377J1932D01*
G01*
X130426Y15043D02*
G03*
X130441Y15040I364J1935D01*
G01*
X130426Y15043D02*
G03*
X130441Y15040I364J1935D01*
G01*
X153758Y10642D02*
G03*
X153781Y10637I383J1931D01*
G01*
X153754Y10643D02*
G03*
X153781Y10637I387J1930D01*
G01*
X148863Y11565D02*
G03*
X148882Y11561I365J1934D01*
G01*
X148863Y11565D02*
G03*
X148882Y11561I365J1934D01*
G01*
X143951Y12490D02*
G03*
X143962Y12488I374J1933D01*
G01*
X143948Y12490D02*
G03*
X143962Y12488I377J1932D01*
G01*
X120564Y16870D02*
G03*
X120602Y16863I388J1930D01*
G01*
X120562Y16870D02*
G03*
X120599Y16863I390J1930D01*
G01*
X75184Y10138D02*
G03*
X75189Y10141I-840J1780D01*
G01*
X75181Y10137D02*
G03*
X75186Y10139I-837J1782D01*
G01*
X70623Y7986D02*
G03*
X70642Y7995I-825J1788D01*
G01*
X70623Y7986D02*
G03*
X70639Y7993I-825J1788D01*
G01*
X60355Y3189D02*
G03*
X60365Y3194I-834J1783D01*
G01*
X60353Y3188D02*
G03*
X60362Y3193I-833J1784D01*
G01*
X55188Y771D02*
G03*
X55194Y774I-829J1785D01*
G01*
X55186Y770D02*
G03*
X55193Y773I-828J1786D01*
G01*
X44925Y-4032D02*
G03*
X44930Y-4030I-834J1783D01*
G01*
X44923Y-4033D02*
G03*
X44930Y-4030I-833J1784D01*
G01*
X39715Y-6470D02*
G03*
X39721Y-6467I-829J1785D01*
G01*
X39715Y-6470D02*
G03*
X39720Y-6468I-829J1785D01*
G01*
X34555Y-8866D02*
G03*
X34603Y-8845I-782J1807D01*
G01*
X34555Y-8866D02*
G03*
X34603Y-8845I-782J1807D01*
G01*
X33722Y-9225D02*
G03*
X33785Y-9200I-719J1833D01*
G01*
X33716Y-9228D02*
G03*
X33785Y-9200I-713J1835D01*
G01*
X33716Y-9228D02*
G03*
X33722Y-9225I-6031J15390D01*
G01*
X29117Y-10305D02*
G03*
X33716Y-9228I-1431J16467D01*
G01*
X29110Y-10306D02*
G03*
X29117Y-10305I-1425J16468D01*
G01*
X29061Y-10310D02*
G03*
X29117Y-10305I-120J1965D01*
G01*
X29061Y-10310D02*
G03*
X29110Y-10306I-120J1965D01*
G01*
X28136Y-10364D02*
G03*
X28228Y-10361I-29J1968D01*
G01*
X28134Y-10364D02*
G03*
X28228Y-10361I-27J1968D01*
G01*
X23692Y-10421D02*
G03*
X23868Y-10426I145J1963D01*
G01*
X23688Y-10421D02*
G03*
X23866Y-10426I149J1963D01*
G01*
X22587Y-10339D02*
G03*
X22639Y-10343I194J1959D01*
G01*
X22587Y-10339D02*
G03*
X22635Y-10343I194J1959D01*
G01*
X18619Y-9944D02*
G03*
X18714Y-9956I289J1947D01*
G01*
X18616Y-9944D02*
G03*
X18714Y-9956I292J1947D01*
G01*
X6209Y64431D02*
G03*
X6120Y64098I1851J-671D01*
G01*
X6209Y64431D02*
G03*
X6120Y64095I1851J-671D01*
G01*
X552Y32203D02*
G03*
X684Y31085I1939J-338D01*
G01*
X553Y32206D02*
G03*
X684Y31085I1939J-341D01*
G01*
D02*
G03*
X200Y30235I1415J-1369D01*
G01*
X684Y31085D02*
G03*
X200Y30235I1415J-1369D01*
G01*
X95Y-5367D02*
G03*
X357Y-5432I606J1873D01*
G01*
X95Y-5367D02*
G03*
X353Y-5432I606J1873D01*
G01*
X165Y30106D02*
G03*
X125Y29926I1899J-518D01*
G01*
X165Y30106D02*
G03*
X124Y29924I1899J-518D01*
G01*
X-1799Y-4748D02*
G03*
X-1657Y-4800I748J1821D01*
G01*
X-1799Y-4748D02*
G03*
X-1657Y-4800I748J1821D01*
G01*
X-3903Y-3880D02*
G03*
X-3801Y-3925I850J1775D01*
G01*
X-3903Y-3880D02*
G03*
X-3801Y-3925I850J1775D01*
G01*
X-5166Y-2710D02*
G03*
X-4194Y-3740I1822J745D01*
G01*
X-5167Y-2708D02*
G03*
X-4194Y-3740I1823J743D01*
G01*
X-5346Y-1474D02*
G03*
X-5227Y-2560I1939J-338D01*
G01*
X-5345Y-1472D02*
G03*
X-5228Y-2558I1939J-340D01*
G01*
X9882Y-8813D02*
G03*
X9989Y-8828I327J1941D01*
G01*
X9882Y-8813D02*
G03*
X9987Y-8828I327J1941D01*
G01*
X9182Y-8688D02*
G03*
X9337Y-8721I482J1909D01*
G01*
X9182Y-8688D02*
G03*
X9337Y-8721I482J1909D01*
G01*
X8428Y-8484D02*
G03*
X8653Y-8555I707J1837D01*
G01*
X8427Y-8483D02*
G03*
X8653Y-8555I707J1837D01*
G01*
X8426Y-8483D02*
G03*
X8428Y-8484I708J1837D01*
G01*
X7236Y-8025D02*
G03*
X7238Y-8025I708J1837D01*
G01*
X7008Y-7919D02*
G03*
X7236Y-8025I936J1732D01*
G01*
X7004Y-7917D02*
G03*
X7237Y-8025I941J1729D01*
G01*
X5352Y-6669D02*
G03*
X6204Y-7484I1725J950D01*
G01*
X5350Y-6666D02*
G03*
X6204Y-7484I1726J946D01*
G01*
X5156Y-6251D02*
G03*
X5297Y-6569I1863J635D01*
G01*
X5156Y-6251D02*
G03*
X5295Y-6566I1863J635D01*
G01*
X3743Y-6040D02*
G03*
X3804Y-6050I348J1938D01*
G01*
X3739Y-6039D02*
G03*
X3800Y-6049I351J1937D01*
G01*
X264356Y226914D02*
G03*
X263651Y227225I-1133J-1610D01*
G01*
X250126Y230243D02*
G03*
X249269Y230243I-429J-1921D01*
G01*
X250126D02*
G03*
X249269Y230243I-429J-1921D01*
G01*
X235744Y227225D02*
G03*
X235041Y226915I429J-1921D01*
G01*
X235744Y227225D02*
G03*
X235039Y226914I429J-1921D01*
G01*
X264354Y226915D02*
G03*
X263651Y227225I-1131J-1611D01*
G01*
X222440Y218069D02*
G03*
X222009Y217656I1129J-1613D01*
G01*
X222438Y218067D02*
G03*
X222009Y217656I1131J-1611D01*
G01*
X249582Y120054D02*
G03*
X249975Y120054I197J0D01*
G01*
X210953Y76311D02*
G03*
X211187Y75922I1793J812D01*
G01*
X202529Y95000D02*
G03*
X202649Y94654I1913J466D01*
G01*
X210953Y76311D02*
G03*
X211186Y75923I1793J812D01*
G01*
X197259Y116675D02*
G03*
X197309Y116360I1963J152D01*
G01*
X197259Y116675D02*
G03*
X197310Y116359I1963J152D01*
G01*
X202530Y94999D02*
G03*
X202649Y94654I1912J467D01*
G01*
X222008Y61849D02*
G03*
X222438Y61436I1562J1199D01*
G01*
X222009Y61847D02*
G03*
X222440Y61435I1561J1200D01*
G01*
X303923Y139752D02*
G03*
X303917Y139904I-1969J0D01*
G01*
X303923Y139752D02*
G03*
X303917Y139904I-1969J0D01*
G01*
Y139599D02*
G03*
X303923Y139752I-1963J152D01*
G01*
X303917Y139599D02*
G03*
X303923Y139752I-1963J152D01*
G01*
X202649Y184849D02*
G03*
X202529Y184503I1793J-812D01*
G01*
X197310Y163144D02*
G03*
X197259Y162828I1912J-469D01*
G01*
X195478Y139904D02*
G03*
X195478Y139599I1963J-152D01*
G01*
X197309Y163143D02*
G03*
X197259Y162828I1912J-467D01*
G01*
X195478Y139904D02*
G03*
X195478Y139599I1963J-152D01*
G01*
X202649Y184849D02*
G03*
X202530Y184504I1793J-812D01*
G01*
X296746Y94654D02*
G03*
X296866Y95002I-1793J812D01*
G01*
X296746Y94654D02*
G03*
X296865Y94999I-1793J812D01*
G01*
X288209Y75923D02*
G03*
X288442Y76311I-1561J1200D01*
G01*
X288208Y75922D02*
G03*
X288442Y76311I-1560J1201D01*
G01*
X276957Y61436D02*
G03*
X277387Y61849I-1131J1611D01*
G01*
X276955Y61435D02*
G03*
X277386Y61847I-1129J1613D01*
G01*
X249975Y159424D02*
G03*
X249582Y159424I-197J0D01*
G01*
X288442Y203192D02*
G03*
X288209Y203580I-1793J-812D01*
G01*
X288442Y203192D02*
G03*
X288208Y203581I-1793J-812D01*
G01*
X277386Y217656D02*
G03*
X276955Y218069I-1561J-1200D01*
G01*
X277387Y217654D02*
G03*
X276957Y218067I-1562J-1199D01*
G01*
X296866Y184501D02*
G03*
X296746Y184849I-1913J-464D01*
G01*
X296865Y184504D02*
G03*
X296746Y184849I-1912J-467D01*
G01*
X302136Y162828D02*
G03*
X302086Y163143I-1963J-152D01*
G01*
X302136Y162828D02*
G03*
X302085Y163146I-1963J-152D01*
G01*
X302086Y116360D02*
G03*
X302136Y116675I-1912J467D01*
G01*
X302085Y116357D02*
G03*
X302136Y116675I-1911J471D01*
G01*
X267336Y55118D02*
G03*
X268467Y55475I0J1969D01*
G01*
X267336Y55118D02*
G03*
X268469Y55477I0J1969D01*
G01*
X20174Y102946D02*
X27762Y123876D01*
X6209Y64431D02*
X13908Y85665D01*
X182875Y5160D02*
X185487Y4665D01*
X185488Y4665D02*
X185491Y4666D01*
X144770Y87653D02*
X189513Y62556D01*
X205451Y53561D02*
X207793Y52302D01*
X83507Y259557D02*
X148178Y276886D01*
X165858Y281623D02*
X230484Y298978D01*
X183326Y114174D02*
Y173229D01*
X183326Y236295D02*
X183326Y191532D01*
X140019D02*
Y223788D01*
X82602Y261647D02*
X82960Y260951D01*
X83037Y260782D02*
X83038Y260780D01*
X83428Y259798D02*
X83507Y259557D01*
X83427Y259801D02*
X83428Y259798D01*
X83382Y259924D02*
X83383Y259922D01*
X83038Y260780D02*
X83382Y259924D01*
X76583Y267986D02*
X77235Y267556D01*
X76579Y267989D02*
X76583Y267986D01*
X76501Y268038D02*
X76504Y268035D01*
X73857Y269618D02*
X76501Y268038D01*
X73853Y269621D02*
X73857Y269618D01*
X73817Y269641D02*
X73819Y269640D01*
X183326Y114172D02*
Y114174D01*
Y114172D02*
Y114174D01*
X181150Y109356D02*
X183093Y113244D01*
X245024Y302476D02*
X247034Y302383D01*
X243427Y302317D02*
X244707Y302465D01*
X243336Y302304D02*
X243339Y302305D01*
X242264Y302131D02*
X243336Y302304D01*
X242261Y302131D02*
X242264Y302131D01*
X241219Y301862D02*
X242065Y302089D01*
X241166Y301847D02*
X241169Y301848D01*
X239578Y301376D02*
X241166Y301847D01*
X251022Y301587D02*
X252305Y301081D01*
X250817Y301655D02*
X250820Y301654D01*
X249274Y302077D02*
X250817Y301655D01*
X249271Y302077D02*
X249274Y302077D01*
X249053Y302124D02*
X249057Y302123D01*
X248115Y302271D02*
X249053Y302124D01*
X248110Y302271D02*
X248115Y302271D01*
X247149Y302375D02*
X248011Y302284D01*
X235249Y300350D02*
X235252Y300350D01*
X235121Y300320D02*
X235124Y300321D01*
X231153Y299257D02*
X235121Y300320D01*
X235252Y300350D02*
X235746Y300449D01*
X231151Y299256D02*
X231153Y299257D01*
X230824Y299137D02*
X230828Y299139D01*
X230485Y298978D02*
X230824Y299137D01*
X230481Y298977D02*
X230485Y298978D01*
X230401Y298937D02*
X230403Y298938D01*
X276423Y293986D02*
X276427Y293985D01*
X230323Y298897D02*
X230401Y298937D01*
X252477Y301004D02*
X252480Y301003D01*
X253538Y300464D01*
X183326Y236295D02*
X293217Y267776D01*
X236285Y300494D02*
X239578Y301376D01*
X236070Y300487D02*
X236285Y300494D01*
X236066Y300486D02*
X236070Y300487D01*
X235746Y300449D02*
X235750Y300450D01*
X253645Y300405D02*
X255294Y299435D01*
X255302Y299430D02*
X256356Y298804D01*
X261331Y295932D01*
X261740Y295720D02*
X268401Y294870D01*
X261331Y295932D02*
X261740Y295720D01*
X253538Y300464D02*
X253541Y300462D01*
X50812Y198284D02*
X140019Y223788D01*
Y114174D02*
Y173229D01*
X143956Y108268D02*
X179389D01*
X140226Y113294D02*
X140228Y113291D01*
X142194Y109359D02*
X142195Y109356D01*
X140228Y113291D02*
X142194Y109359D01*
X293541Y267900D02*
X293542Y267900D01*
X294304Y290943D02*
X294308Y290942D01*
X290502Y291665D02*
X294304Y290943D01*
X293217Y267776D02*
X293220Y267777D01*
X308420Y282112D02*
X308493Y281455D01*
X299810Y289652D02*
X301046Y289228D01*
X299807Y289653D02*
X299810Y289652D01*
X294386Y290925D02*
X299614Y289709D01*
X276492Y293977D02*
X276494Y293977D01*
X282676Y293086D01*
X282677Y293086D01*
X282715Y293080D02*
X285824Y292570D01*
X285880Y292560D02*
X285882Y292560D01*
X290502Y291665D01*
X290498Y291666D02*
X290502Y291665D01*
X290505Y291665D01*
X268401Y294870D02*
X276423Y293986D01*
X308491Y281001D02*
X308491Y281005D01*
X302573Y272358D02*
X303987Y273505D01*
X293542Y267900D02*
X302193Y272115D01*
X302195Y272116D01*
X308406Y280293D02*
X308491Y281001D01*
X-12801Y294928D02*
X-12800Y294924D01*
X-12911Y299750D02*
X-12810Y299972D01*
X-12997Y295488D02*
X-12801Y294928D01*
X-12998Y295491D02*
X-12997Y295488D01*
X-13013Y299473D02*
X-13012Y299476D01*
X-13082Y299231D02*
X-13013Y299473D01*
X-13083Y299227D02*
X-13082Y299231D01*
X-13158Y298646D02*
X-13107Y296100D01*
X-8732Y290010D02*
X20751Y256724D01*
X-9980Y291387D02*
X-8732Y290010D01*
X-10026Y291440D02*
X-10025Y291438D01*
X-12443Y294300D02*
X-10026Y291440D01*
X-12227Y300780D02*
X-12046Y300953D01*
X-12228Y300779D02*
X-12227Y300780D01*
X-12437Y300543D02*
X-12435Y300546D01*
X-12445Y294302D02*
X-12443Y294300D01*
X-12585Y300348D02*
X-12437Y300543D01*
X-12587Y300345D02*
X-12585Y300348D01*
X-10881Y301640D02*
X-9346Y302166D01*
X-11075Y301562D02*
X-11071Y301564D01*
X-11302Y301457D02*
X-11075Y301562D01*
X-11305Y301455D02*
X-11302Y301457D01*
X-11564Y301310D02*
X-11562Y301311D01*
X-11765Y301178D02*
X-11564Y301310D01*
X-11767Y301176D02*
X-11765Y301178D01*
X-12046Y300953D02*
X-12045Y300954D01*
X15164Y303143D02*
X15165Y303142D01*
X14897Y303270D02*
X14921Y303260D01*
X14216Y303614D02*
X14897Y303270D01*
X997Y304941D02*
X1852Y305135D01*
X922Y304922D02*
X924Y304923D01*
X-9215Y302206D02*
X922Y304922D01*
X-9217Y302205D02*
X-9215Y302206D01*
X37022Y189774D02*
X37286Y189924D01*
X37019Y189773D02*
X37022Y189774D01*
X35897Y189501D02*
X36190Y189522D01*
X34135Y190347D02*
X34138Y190343D01*
X33524Y191229D02*
X34135Y190347D01*
X33797Y194108D02*
X33799Y194110D01*
X33521Y191234D02*
X33524Y191229D01*
X33154Y192507D02*
X33175Y192214D01*
X40368Y191753D02*
X45128Y194636D01*
X40350Y191743D02*
X40353Y191744D01*
X37326Y189947D02*
X40350Y191743D01*
X37323Y189945D02*
X37326Y189947D01*
X37286Y189924D02*
X37288Y189925D01*
X43769Y229876D02*
X44578Y225019D01*
X37819Y246500D02*
X43769Y229876D01*
X33799Y194110D02*
X45970Y205114D01*
X35887Y251081D02*
X37819Y246500D01*
X35092Y253922D02*
X35803Y251326D01*
X23317Y254717D02*
X35092Y253922D01*
X23314Y254717D02*
X23317Y254717D01*
X21299Y256135D02*
X21974Y255375D01*
X20788Y256683D02*
X21299Y256135D01*
X20785Y256686D02*
X20788Y256683D01*
X50515Y198158D02*
X50812Y198284D01*
X47962Y196417D02*
X50515Y198158D01*
X47959Y196415D02*
X47962Y196417D01*
X45156Y194653D02*
X47897Y196374D01*
X46070Y209768D02*
X46399Y206406D01*
X45970Y205114D02*
X46399Y206406D01*
X46070Y209770D02*
X46070Y209768D01*
X44944Y221210D02*
X46070Y209769D01*
X44578Y225019D02*
X44944Y221215D01*
X15165Y303142D02*
X73817Y269641D01*
X45127Y153852D02*
X45149Y153915D01*
X45014Y153342D02*
X45019Y153388D01*
X44305Y152497D02*
X44306Y152499D01*
X44191Y152343D02*
X44305Y152497D01*
X44190Y152341D02*
X44191Y152343D01*
X27908Y124190D02*
X44070Y152158D01*
X85222Y172850D02*
X85225Y172848D01*
X80848Y175691D02*
X85222Y172850D01*
X80845Y175693D02*
X80848Y175691D01*
X78900Y176892D02*
X80805Y175718D01*
X77743Y177628D02*
X78900Y176892D01*
X77106Y177981D02*
X77627Y177696D01*
X76934Y178064D02*
X76934Y178063D01*
X76933Y178064D02*
X76934Y178064D01*
X93269Y166507D02*
X93272Y166504D01*
X92684Y167081D02*
X93269Y166507D01*
X92681Y167085D02*
X92684Y167081D01*
X91937Y167772D02*
X92635Y167129D01*
X91929Y167779D02*
X91932Y167776D01*
X91014Y168616D02*
X91929Y167779D01*
X91012Y168619D02*
X91014Y168616D01*
X90951Y168672D02*
X90953Y168670D01*
X89999Y169477D02*
X90951Y168672D01*
X89997Y169478D02*
X89999Y169477D01*
X89925Y169536D02*
X89928Y169534D01*
X88945Y170292D02*
X89925Y169536D01*
X88942Y170294D02*
X88945Y170292D01*
X88164Y170879D02*
X88924Y170308D01*
X85247Y172834D02*
X88075Y170943D01*
X65971Y182095D02*
X66892Y181772D01*
X65926Y182110D02*
X65930Y182109D01*
X63781Y182809D02*
X65926Y182110D01*
X63778Y182810D02*
X63781Y182809D01*
X63113Y182907D02*
X63184Y182906D01*
X61981Y182560D02*
X61984Y182562D01*
X61908Y182510D02*
X61981Y182560D01*
X61905Y182508D02*
X61908Y182510D01*
X61351Y181930D02*
X61352Y181932D01*
X76527Y178236D02*
X76933Y178064D01*
X76283Y178343D02*
X76288Y178342D01*
X75146Y178758D02*
X76283Y178343D01*
X75142Y178759D02*
X75146Y178758D01*
X74025Y179104D02*
X75044Y178792D01*
X73521Y179188D02*
X73525Y179188D01*
X73203Y179201D02*
X73521Y179188D01*
X73199Y179201D02*
X73203Y179201D01*
X69285Y180640D02*
X72146Y178943D01*
X69285Y180640D02*
X69291Y180637D01*
X69279Y180644D02*
X69285Y180640D01*
X68304Y181232D02*
X69285Y180640D01*
X67936Y181405D02*
X67941Y181403D01*
X66899Y181770D02*
X67936Y181405D01*
X66895Y181771D02*
X66899Y181770D01*
X60961Y181310D02*
X61351Y181930D01*
X60960Y181308D02*
X60961Y181310D01*
X56625Y173782D02*
X60921Y181243D01*
X56625Y173782D02*
X56626Y173785D01*
X114560Y123402D02*
X118305Y115377D01*
X114559Y123405D02*
X114561Y123401D01*
X110814Y131438D02*
X114559Y123405D01*
X110812Y131442D02*
X110814Y131438D01*
X110811Y131445D02*
X110812Y131442D01*
X107063Y139480D02*
X110811Y131445D01*
X107062Y139482D02*
X107063Y139480D01*
X99536Y155554D02*
X107061Y139485D01*
X96575Y161903D02*
X99537Y155551D01*
X96514Y162023D02*
X96516Y162020D01*
X96122Y162737D02*
X96514Y162023D01*
X96118Y162743D02*
X96122Y162737D01*
X56624Y173781D02*
X56625Y173782D01*
X45296Y154228D02*
X56625Y173782D01*
X120866Y110123D02*
X123241Y106194D01*
X118305Y115377D02*
X120866Y110123D01*
X264399Y13417D02*
X264400Y13417D01*
X260432Y17749D02*
X261877Y16295D01*
X261880Y16292D01*
X261913Y16257D02*
X261914Y16256D01*
X262951Y15161D01*
X262953Y15159D01*
X263040Y15061D02*
X264367Y13457D01*
X264400Y13417D02*
X264995Y12658D01*
X264996Y12657D01*
X264996Y12657D01*
X265176Y12383D02*
X266414Y10110D01*
X264399Y13418D02*
X264399Y13417D01*
X225492Y42016D02*
X225493Y42016D01*
X195160Y2859D02*
X195163Y2858D01*
X195159Y2859D02*
X195160Y2859D01*
X195161Y2858D01*
X260429Y17752D02*
X260432Y17749D01*
X259617Y-2471D02*
X260988Y-1992D01*
X259614Y-2472D02*
X259617Y-2471D01*
X258756Y19258D02*
X260348Y17829D01*
X255530Y22009D02*
X258718Y19291D01*
X250999Y25530D02*
X255461Y22065D01*
X238488Y34138D02*
X244183Y30366D01*
X232403Y37912D02*
X238439Y34170D01*
X232369Y37932D02*
X232371Y37932D01*
X244235Y30330D02*
X250931Y25581D01*
X225493Y42016D02*
X232369Y37932D01*
X225323Y-1949D02*
X230857Y-2630D01*
X259459Y-2525D02*
X259594Y-2479D01*
X258869Y-2672D02*
X259282Y-2575D01*
X240305Y-3412D02*
X242088Y-3506D01*
X238537Y-3322D02*
X240309Y-3412D01*
X238500Y-3320D02*
X238502Y-3320D01*
X236466Y-3180D02*
X238500Y-3320D01*
X236465Y-3180D02*
X236466Y-3180D01*
X232968Y-2843D02*
X236410Y-3176D01*
X230900Y-2635D02*
X232960Y-2842D01*
X207796Y52300D02*
X214022Y48808D01*
X225490Y42017D02*
X225493Y42016D01*
X217213Y46940D02*
X225490Y42017D01*
X217210Y46942D02*
X217213Y46940D01*
X217196Y46950D02*
X217198Y46949D01*
X214060Y48787D02*
X217196Y46950D01*
X214057Y48788D02*
X214060Y48787D01*
X214022Y48808D02*
X214025Y48807D01*
X207793Y52302D02*
X207796Y52300D01*
X195157Y2859D02*
X195160Y2859D01*
X192728Y3296D02*
X195157Y2859D01*
X192725Y3297D02*
X192728Y3296D01*
X190283Y3770D02*
X192699Y3302D01*
X190283Y3770D02*
X190291Y3768D01*
X190274Y3771D02*
X190283Y3770D01*
X187991Y4192D02*
X190283Y3770D01*
X185488Y4665D02*
X187983Y4194D01*
X185488Y4665D02*
X185492Y4664D01*
X185488Y4665D02*
X185488Y4665D01*
X219621Y-1134D02*
X225284Y-1944D01*
X215344Y-478D02*
X219601Y-1131D01*
X215338Y-477D02*
X215340Y-477D01*
X211724Y84D02*
X215338Y-477D01*
X211722Y85D02*
X211724Y84D01*
X211717Y85D02*
X211720Y85D01*
X207804Y697D02*
X211717Y85D01*
X207802Y697D02*
X207804Y697D01*
X203109Y1491D02*
X207777Y701D01*
X203097Y1494D02*
X203101Y1493D01*
X200879Y1878D02*
X203097Y1494D01*
X200879Y1878D02*
X200888Y1877D01*
X200870Y1880D02*
X200879Y1878D01*
X197640Y2411D02*
X200879Y1878D01*
X197637Y2411D02*
X197640Y2411D01*
X197602Y2417D02*
X197606Y2417D01*
X195163Y2858D02*
X197602Y2417D01*
X141212Y89638D02*
X144766Y87655D01*
X138967Y13445D02*
X141464Y12971D01*
X137390Y91982D02*
X141212Y89638D01*
X138967Y13445D02*
X138972Y13444D01*
X138962Y13446D02*
X138967Y13445D01*
X136539Y13893D02*
X138967Y13445D01*
X136646Y92464D02*
X137390Y91982D01*
X136520Y13896D02*
X136522Y13896D01*
X133438Y94933D02*
X136646Y92464D01*
X132865Y14604D02*
X136520Y13896D01*
X131203Y96878D02*
X133438Y94933D01*
X130441Y15040D02*
X132865Y14604D01*
X128059Y100004D02*
X131203Y96878D01*
X127943Y15510D02*
X130426Y15043D01*
X127943Y15510D02*
X127947Y15509D01*
X127941Y15510D02*
X127943Y15510D01*
X125173Y103490D02*
X128059Y100004D01*
X156162Y10194D02*
X164801Y8534D01*
X156162Y10194D02*
X156168Y10193D01*
X156157Y10195D02*
X156162Y10194D01*
X153781Y10637D02*
X156162Y10194D01*
X153754Y10643D02*
X153758Y10642D01*
X151279Y11134D02*
X153754Y10643D01*
X148882Y11561D02*
X151279Y11134D01*
X146301Y12049D02*
X148863Y11565D01*
X143962Y12488D02*
X146304Y12048D01*
X143948Y12490D02*
X143951Y12490D01*
X141464Y12971D02*
X143948Y12490D01*
X141464Y12971D02*
X141467Y12970D01*
X141460Y12972D02*
X141464Y12971D01*
X123241Y106194D02*
X125173Y103490D01*
X114897Y17972D02*
X119198Y17144D01*
X113947Y18130D02*
X114897Y17972D01*
X109936Y18638D02*
X113947Y18130D01*
X105250Y18847D02*
X109936Y18638D01*
X101441Y18726D02*
X105250Y18847D01*
X97919Y18330D02*
X101441Y18726D01*
X94248Y17662D02*
X97919Y18330D01*
X93349Y17434D02*
X94248Y17662D01*
X122997Y16427D02*
X127943Y15510D01*
X122997Y16427D02*
X123001Y16426D01*
X122995Y16427D02*
X122997Y16427D01*
X120602Y16863D02*
X122997Y16427D01*
X120599Y16863D02*
X120602Y16863D01*
X120562Y16870D02*
X120564Y16870D01*
X119198Y17144D02*
X120562Y16870D01*
X119198Y17144D02*
X119206Y17143D01*
X119190Y17146D02*
X119198Y17144D01*
X90582Y16699D02*
X93349Y17434D01*
X86076Y15142D02*
X90582Y16699D01*
X79957Y12399D02*
X86076Y15142D01*
X75189Y10141D02*
X79957Y12399D01*
X75186Y10139D02*
X75189Y10141D01*
X75181Y10137D02*
X75184Y10138D01*
X70642Y7995D02*
X75181Y10137D01*
X70639Y7993D02*
X70642Y7995D01*
X65413Y5582D02*
X70623Y7986D01*
X65413Y5582D02*
X65422Y5587D01*
X65405Y5579D02*
X65413Y5582D01*
X60365Y3194D02*
X65413Y5582D01*
X60362Y3193D02*
X60365Y3194D01*
X60353Y3188D02*
X60355Y3189D01*
X55194Y774D02*
X60353Y3188D01*
X55193Y773D02*
X55194Y774D01*
X55186Y770D02*
X55188Y771D01*
X50038Y-1622D02*
X55186Y770D01*
X50038Y-1622D02*
X50043Y-1620D01*
X50033Y-1624D02*
X50038Y-1622D01*
X44930Y-4030D02*
X50038Y-1622D01*
X44923Y-4033D02*
X44925Y-4032D01*
X39721Y-6467D02*
X44923Y-4033D01*
X39720Y-6468D02*
X39721Y-6467D01*
X34603Y-8845D02*
X39715Y-6470D01*
X9987Y-8828D02*
X9989Y-8828D01*
X33785Y-9200D02*
X34555Y-8866D01*
X28228Y-10361D02*
X29061Y-10310D01*
X28134Y-10364D02*
X28136Y-10364D01*
X23868Y-10426D02*
X28134Y-10364D01*
X23866Y-10426D02*
X23868Y-10426D01*
X23688Y-10421D02*
X23692Y-10421D01*
X22639Y-10343D02*
X23688Y-10421D01*
X22635Y-10343D02*
X22639Y-10343D01*
X18714Y-9956D02*
X22587Y-10339D01*
X18616Y-9944D02*
X18619Y-9944D01*
X17643Y-9799D02*
X18616Y-9944D01*
X17643Y-9799D02*
X17653Y-9801D01*
X17634Y-9798D02*
X17643Y-9799D01*
X13543Y-9232D02*
X17643Y-9799D01*
X9989Y-8828D02*
X13543Y-9232D01*
X6120Y64095D02*
X6120Y64098D01*
X553Y32206D02*
X6120Y64095D01*
X552Y32203D02*
X553Y32206D01*
X353Y-5432D02*
X357Y-5432D01*
X165Y30106D02*
X200Y30235D01*
X124Y29924D02*
X125Y29926D01*
X-1657Y-4800D02*
X95Y-5367D01*
X-5345Y-1472D02*
X124Y29924D01*
X-3801Y-3925D02*
X-1799Y-4748D01*
X-4194Y-3740D02*
X-3903Y-3880D01*
X-5167Y-2708D02*
X-5166Y-2710D01*
X-5227Y-2560D02*
X-5167Y-2708D01*
X-5228Y-2558D02*
X-5227Y-2560D01*
X-5346Y-1474D02*
X-5345Y-1472D01*
X9337Y-8721D02*
X9882Y-8813D01*
X8653Y-8555D02*
X9182Y-8688D01*
X8427Y-8483D02*
X8428Y-8484D01*
X8426Y-8483D02*
X8427Y-8483D01*
X7238Y-8025D02*
X8426Y-8483D01*
X7237Y-8025D02*
X7238Y-8025D01*
X7236Y-8025D02*
X7237Y-8025D01*
X7004Y-7917D02*
X7008Y-7919D01*
X6204Y-7484D02*
X7004Y-7917D01*
X5350Y-6666D02*
X5352Y-6669D01*
X5297Y-6569D02*
X5350Y-6666D01*
X5295Y-6566D02*
X5297Y-6569D01*
X3804Y-6050D02*
X5156Y-6251D01*
X3800Y-6049D02*
X3804Y-6050D01*
X3739Y-6039D02*
X3743Y-6040D01*
X357Y-5432D02*
X3739Y-6039D01*
X301454Y165729D02*
X302085Y163146D01*
X296865Y184504D02*
X297135Y183399D01*
X197310Y163144D02*
X197941Y165728D01*
X202259Y183397D02*
X202529Y184503D01*
X301454Y113774D02*
X302085Y116357D01*
X296865Y94999D02*
X297135Y96104D01*
X202259Y96105D02*
X202529Y95000D01*
X250126Y230243D02*
X263651Y227225D01*
X235744D02*
X249269Y230243D01*
X235039Y226914D02*
X235041Y226915D01*
X222440Y218069D02*
X235039Y226914D01*
X222438Y218067D02*
X222440Y218069D01*
X202649Y184849D02*
X210953Y203192D01*
X211186Y203580D02*
X222009Y217656D01*
X211186Y75923D02*
X211187Y75922D01*
X202649Y94654D02*
X210953Y76311D01*
X197309Y116360D02*
X197310Y116359D01*
X197941Y113776D01*
X202529Y95000D02*
X202530Y94999D01*
X222008Y61849D02*
X222009Y61847D01*
X211187Y75922D02*
X222008Y61849D01*
X222440Y61435D02*
X230926Y55477D01*
X222438Y61436D02*
X222440Y61435D01*
X202529Y184503D02*
X202530Y184504D01*
X197309Y163143D02*
X197310Y163144D01*
X195478Y139904D02*
X197259Y162828D01*
X195478Y139599D02*
X197259Y116675D01*
X296865Y94999D02*
X296866Y95002D01*
X288442Y76311D02*
X296746Y94654D01*
X288208Y75922D02*
X288209Y75923D01*
X277386Y61847D02*
X277387Y61849D01*
X288208Y75922D01*
X276955Y61435D02*
X276957Y61436D01*
X268469Y55477D02*
X276955Y61435D01*
X249975Y120054D02*
Y159424D01*
X249582Y120054D02*
Y159424D01*
X288442Y203192D02*
X296746Y184849D01*
X277386Y217656D02*
X277387Y217654D01*
X288208Y203581D01*
X288209Y203580D01*
X276955Y218069D02*
X276957Y218067D01*
X264356Y226914D02*
X276955Y218069D01*
X264354Y226915D02*
X264356Y226914D01*
X302136Y162828D02*
X303917Y139904D01*
X296865Y184504D02*
X296866Y184501D01*
X302085Y163146D02*
X302086Y163143D01*
X302085Y116357D02*
X302086Y116360D01*
X302136Y116675D02*
X303917Y139599D01*
X232060Y55118D02*
X267336D01*
X268467Y55475D02*
X268469Y55477D01*
M02*
