G04*
G04 #@! TF.GenerationSoftware,Altium Limited,Altium Designer,22.2.0 (33)*
G04*
G04 Layer_Color=128*
%FSLAX25Y25*%
%MOIN*%
G70*
G04*
G04 #@! TF.SameCoordinates,AE1C0F29-CF17-4AF8-ABE1-3241E8FB01DF*
G04*
G04*
G04 #@! TF.FilePolarity,Positive*
G04*
G01*
G75*
%ADD10C,0.01575*%
%ADD11C,0.00787*%
%ADD21C,0.00394*%
%ADD22C,0.00984*%
%ADD56C,0.00200*%
G36*
X708815Y-141778D02*
X710533D01*
Y-142065D01*
X711392D01*
Y-142351D01*
X712251D01*
Y-142637D01*
X713110D01*
Y-142924D01*
X713683D01*
Y-143210D01*
X713969D01*
Y-143496D01*
X714542D01*
Y-143783D01*
X714828D01*
Y-144069D01*
X715401D01*
Y-144355D01*
X715687D01*
Y-144641D01*
X715973D01*
Y-144928D01*
X716260D01*
Y-145214D01*
X716546D01*
Y-145501D01*
X716832D01*
Y-145787D01*
X717119D01*
Y-146073D01*
Y-146359D01*
X717405D01*
Y-146646D01*
X717691D01*
Y-146932D01*
Y-147218D01*
X717978D01*
Y-147505D01*
X718264D01*
Y-147791D01*
Y-148077D01*
X718550D01*
Y-148364D01*
Y-148650D01*
Y-148936D01*
X718836D01*
Y-149223D01*
Y-149509D01*
Y-149795D01*
X719123D01*
Y-150082D01*
Y-150368D01*
Y-150654D01*
Y-150940D01*
X719409D01*
Y-151227D01*
Y-151513D01*
Y-151799D01*
Y-152086D01*
Y-152372D01*
X719695D01*
Y-152658D01*
Y-152945D01*
Y-153231D01*
Y-153517D01*
Y-153804D01*
Y-154090D01*
Y-154376D01*
Y-154663D01*
Y-154949D01*
Y-155235D01*
Y-155521D01*
Y-155808D01*
Y-156094D01*
Y-156380D01*
Y-156667D01*
Y-156953D01*
Y-157239D01*
Y-157526D01*
Y-157812D01*
Y-158098D01*
X719409D01*
Y-158385D01*
Y-158671D01*
Y-158957D01*
Y-159244D01*
Y-159530D01*
Y-159816D01*
Y-160102D01*
X719123D01*
Y-160389D01*
Y-160675D01*
Y-160961D01*
Y-161248D01*
Y-161534D01*
X718836D01*
Y-161820D01*
Y-162107D01*
Y-162393D01*
Y-162679D01*
Y-162966D01*
X718550D01*
Y-163252D01*
Y-163538D01*
Y-163824D01*
X718264D01*
Y-164111D01*
Y-164397D01*
Y-164683D01*
Y-164970D01*
X717978D01*
Y-165256D01*
Y-165542D01*
Y-165829D01*
X717691D01*
Y-166115D01*
Y-166401D01*
X717405D01*
Y-166688D01*
Y-166974D01*
Y-167260D01*
X717119D01*
Y-167547D01*
Y-167833D01*
X716832D01*
Y-168119D01*
Y-168405D01*
X716546D01*
Y-168692D01*
Y-168978D01*
X716260D01*
Y-169264D01*
X715973D01*
Y-169551D01*
Y-169837D01*
X715687D01*
Y-170123D01*
X715401D01*
Y-170410D01*
X715114D01*
Y-170696D01*
Y-170982D01*
X714828D01*
Y-171269D01*
X714542D01*
Y-171555D01*
X714256D01*
Y-171841D01*
X713969D01*
Y-172127D01*
X713683D01*
Y-172414D01*
X713110D01*
Y-172700D01*
X712824D01*
Y-172986D01*
X712251D01*
Y-173273D01*
X711965D01*
Y-173559D01*
X711392D01*
Y-173845D01*
X710533D01*
Y-174132D01*
X709674D01*
Y-174418D01*
X708815D01*
Y-174704D01*
X707098D01*
Y-174991D01*
X701944D01*
Y-174704D01*
X699367D01*
Y-174418D01*
X697363D01*
Y-174132D01*
X695931D01*
Y-173845D01*
X694500D01*
Y-173559D01*
X693068D01*
Y-173845D01*
Y-174132D01*
Y-174418D01*
Y-174704D01*
Y-174991D01*
Y-175277D01*
Y-175563D01*
X692782D01*
Y-175850D01*
Y-176136D01*
Y-176422D01*
Y-176709D01*
Y-176995D01*
Y-177281D01*
X692496D01*
Y-177568D01*
Y-177854D01*
Y-178140D01*
Y-178426D01*
Y-178713D01*
Y-178999D01*
X692209D01*
Y-179285D01*
Y-179572D01*
Y-179858D01*
Y-180144D01*
Y-180431D01*
Y-180717D01*
Y-181003D01*
X691923D01*
Y-181290D01*
Y-181576D01*
Y-181862D01*
Y-182149D01*
Y-182435D01*
Y-182721D01*
X691637D01*
Y-183007D01*
Y-183294D01*
Y-183580D01*
Y-183866D01*
Y-184153D01*
Y-184439D01*
X691350D01*
Y-184725D01*
Y-185012D01*
Y-185298D01*
Y-185584D01*
Y-185871D01*
Y-186157D01*
Y-186443D01*
X691064D01*
Y-186730D01*
Y-187016D01*
Y-187302D01*
Y-187588D01*
Y-187875D01*
Y-188161D01*
X690778D01*
Y-188447D01*
Y-188734D01*
Y-189020D01*
Y-189306D01*
Y-189593D01*
Y-189879D01*
X690491D01*
Y-190165D01*
Y-190452D01*
Y-190738D01*
Y-191024D01*
Y-191311D01*
Y-191597D01*
Y-191883D01*
X677035D01*
Y-191597D01*
X677321D01*
Y-191311D01*
Y-191024D01*
Y-190738D01*
Y-190452D01*
Y-190165D01*
X677607D01*
Y-189879D01*
Y-189593D01*
Y-189306D01*
Y-189020D01*
Y-188734D01*
Y-188447D01*
Y-188161D01*
X677894D01*
Y-187875D01*
Y-187588D01*
Y-187302D01*
Y-187016D01*
Y-186730D01*
Y-186443D01*
X678180D01*
Y-186157D01*
Y-185871D01*
Y-185584D01*
Y-185298D01*
Y-185012D01*
Y-184725D01*
X678466D01*
Y-184439D01*
Y-184153D01*
Y-183866D01*
Y-183580D01*
Y-183294D01*
Y-183007D01*
Y-182721D01*
X678753D01*
Y-182435D01*
Y-182149D01*
Y-181862D01*
Y-181576D01*
Y-181290D01*
Y-181003D01*
X679039D01*
Y-180717D01*
Y-180431D01*
Y-180144D01*
Y-179858D01*
Y-179572D01*
Y-179285D01*
X679325D01*
Y-178999D01*
Y-178713D01*
Y-178426D01*
Y-178140D01*
Y-177854D01*
Y-177568D01*
X679612D01*
Y-177281D01*
Y-176995D01*
Y-176709D01*
Y-176422D01*
Y-176136D01*
Y-175850D01*
Y-175563D01*
X679898D01*
Y-175277D01*
Y-174991D01*
Y-174704D01*
Y-174418D01*
Y-174132D01*
Y-173845D01*
X680184D01*
Y-173559D01*
Y-173273D01*
Y-172986D01*
Y-172700D01*
Y-172414D01*
Y-172127D01*
X680471D01*
Y-171841D01*
Y-171555D01*
Y-171269D01*
Y-170982D01*
Y-170696D01*
Y-170410D01*
X680757D01*
Y-170123D01*
Y-169837D01*
Y-169551D01*
Y-169264D01*
Y-168978D01*
Y-168692D01*
Y-168405D01*
X681043D01*
Y-168119D01*
Y-167833D01*
Y-167547D01*
Y-167260D01*
Y-166974D01*
Y-166688D01*
X681329D01*
Y-166401D01*
Y-166115D01*
Y-165829D01*
Y-165542D01*
Y-165256D01*
Y-164970D01*
X681616D01*
Y-164683D01*
Y-164397D01*
Y-164111D01*
Y-163824D01*
Y-163538D01*
Y-163252D01*
Y-162966D01*
X681902D01*
Y-162679D01*
Y-162393D01*
Y-162107D01*
Y-161820D01*
Y-161534D01*
Y-161248D01*
X682188D01*
Y-160961D01*
Y-160675D01*
Y-160389D01*
Y-160102D01*
Y-159816D01*
Y-159530D01*
X682475D01*
Y-159244D01*
Y-158957D01*
Y-158671D01*
Y-158385D01*
Y-158098D01*
Y-157812D01*
X682761D01*
Y-157526D01*
Y-157239D01*
Y-156953D01*
Y-156667D01*
Y-156380D01*
Y-156094D01*
Y-155808D01*
X683047D01*
Y-155521D01*
Y-155235D01*
Y-154949D01*
Y-154663D01*
Y-154376D01*
Y-154090D01*
X683334D01*
Y-153804D01*
Y-153517D01*
Y-153231D01*
Y-152945D01*
Y-152658D01*
Y-152372D01*
X683620D01*
Y-152086D01*
Y-151799D01*
Y-151513D01*
Y-151227D01*
Y-150940D01*
Y-150654D01*
Y-150368D01*
X683906D01*
Y-150082D01*
Y-149795D01*
Y-149509D01*
Y-149223D01*
Y-148936D01*
Y-148650D01*
X684193D01*
Y-148364D01*
Y-148077D01*
Y-147791D01*
Y-147505D01*
Y-147218D01*
Y-146932D01*
X684479D01*
Y-146646D01*
Y-146359D01*
Y-146073D01*
Y-145787D01*
Y-145501D01*
Y-145214D01*
Y-144928D01*
X684765D01*
Y-144641D01*
Y-144355D01*
Y-144069D01*
Y-143783D01*
Y-143496D01*
Y-143210D01*
X685052D01*
Y-142924D01*
Y-142637D01*
Y-142351D01*
Y-142065D01*
Y-141778D01*
Y-141492D01*
X708815D01*
Y-141778D01*
D02*
G37*
G36*
X740024Y-138343D02*
Y-138629D01*
X739737D01*
Y-138915D01*
Y-139202D01*
Y-139488D01*
Y-139774D01*
Y-140060D01*
Y-140347D01*
X739451D01*
Y-140633D01*
Y-140919D01*
Y-141206D01*
Y-141492D01*
Y-141778D01*
Y-142065D01*
X739165D01*
Y-142351D01*
Y-142637D01*
Y-142924D01*
Y-143210D01*
Y-143496D01*
Y-143783D01*
Y-144069D01*
X738878D01*
Y-144355D01*
Y-144641D01*
Y-144928D01*
Y-145214D01*
Y-145501D01*
Y-145787D01*
X738592D01*
Y-146073D01*
Y-146359D01*
Y-146646D01*
Y-146932D01*
Y-147218D01*
Y-147505D01*
X738306D01*
Y-147791D01*
Y-148077D01*
Y-148364D01*
Y-148650D01*
Y-148936D01*
Y-149223D01*
Y-149509D01*
X738019D01*
Y-149795D01*
Y-150082D01*
Y-150368D01*
Y-150654D01*
Y-150940D01*
Y-151227D01*
X737733D01*
Y-151513D01*
Y-151799D01*
Y-152086D01*
Y-152372D01*
Y-152658D01*
Y-152945D01*
X737447D01*
Y-153231D01*
Y-153517D01*
Y-153804D01*
Y-154090D01*
Y-154376D01*
Y-154663D01*
X737160D01*
Y-154949D01*
Y-155235D01*
Y-155521D01*
Y-155808D01*
Y-156094D01*
Y-156380D01*
Y-156667D01*
X736874D01*
Y-156953D01*
Y-157239D01*
Y-157526D01*
Y-157812D01*
Y-158098D01*
Y-158385D01*
X736588D01*
Y-158671D01*
Y-158957D01*
X737160D01*
Y-158671D01*
X737447D01*
Y-158385D01*
X737733D01*
Y-158098D01*
X738306D01*
Y-157812D01*
X738592D01*
Y-157526D01*
X738878D01*
Y-157239D01*
X739451D01*
Y-156953D01*
X740024D01*
Y-156667D01*
X740310D01*
Y-156380D01*
X740882D01*
Y-156094D01*
X741742D01*
Y-155808D01*
X742314D01*
Y-155521D01*
X743173D01*
Y-155235D01*
X744605D01*
Y-154949D01*
X750904D01*
Y-155235D01*
X752049D01*
Y-155521D01*
X752908D01*
Y-155808D01*
X753480D01*
Y-156094D01*
X753767D01*
Y-156380D01*
X754339D01*
Y-156667D01*
X754626D01*
Y-156953D01*
X754912D01*
Y-157239D01*
X755198D01*
Y-157526D01*
X755484D01*
Y-157812D01*
Y-158098D01*
X755771D01*
Y-158385D01*
Y-158671D01*
X756057D01*
Y-158957D01*
Y-159244D01*
Y-159530D01*
X756344D01*
Y-159816D01*
Y-160102D01*
Y-160389D01*
Y-160675D01*
X756630D01*
Y-160961D01*
Y-161248D01*
Y-161534D01*
Y-161820D01*
Y-162107D01*
Y-162393D01*
Y-162679D01*
Y-162966D01*
Y-163252D01*
Y-163538D01*
Y-163824D01*
Y-164111D01*
Y-164397D01*
Y-164683D01*
Y-164970D01*
Y-165256D01*
Y-165542D01*
Y-165829D01*
X756344D01*
Y-166115D01*
Y-166401D01*
Y-166688D01*
Y-166974D01*
Y-167260D01*
Y-167547D01*
Y-167833D01*
X756057D01*
Y-168119D01*
Y-168405D01*
Y-168692D01*
Y-168978D01*
Y-169264D01*
Y-169551D01*
Y-169837D01*
X755771D01*
Y-170123D01*
Y-170410D01*
Y-170696D01*
Y-170982D01*
Y-171269D01*
Y-171555D01*
X755484D01*
Y-171841D01*
Y-172127D01*
Y-172414D01*
Y-172700D01*
Y-172986D01*
Y-173273D01*
X755198D01*
Y-173559D01*
Y-173845D01*
Y-174132D01*
Y-174418D01*
Y-174704D01*
Y-174991D01*
X754912D01*
Y-175277D01*
Y-175563D01*
Y-175850D01*
Y-176136D01*
Y-176422D01*
Y-176709D01*
Y-176995D01*
X754626D01*
Y-177281D01*
Y-177568D01*
Y-177854D01*
Y-178140D01*
Y-178426D01*
Y-178713D01*
X754339D01*
Y-178999D01*
Y-179285D01*
Y-179572D01*
Y-179858D01*
Y-180144D01*
Y-180431D01*
X754053D01*
Y-180717D01*
Y-181003D01*
Y-181290D01*
Y-181576D01*
Y-181862D01*
Y-182149D01*
Y-182435D01*
X753767D01*
Y-182721D01*
Y-183007D01*
Y-183294D01*
Y-183580D01*
Y-183866D01*
Y-184153D01*
X753480D01*
Y-184439D01*
Y-184725D01*
Y-185012D01*
Y-185298D01*
Y-185584D01*
Y-185871D01*
X753194D01*
Y-186157D01*
Y-186443D01*
Y-186730D01*
Y-187016D01*
Y-187302D01*
Y-187588D01*
X752908D01*
Y-187875D01*
Y-188161D01*
Y-188447D01*
Y-188734D01*
Y-189020D01*
Y-189306D01*
Y-189593D01*
X752621D01*
Y-189879D01*
Y-190165D01*
Y-190452D01*
Y-190738D01*
Y-191024D01*
Y-191311D01*
X752335D01*
Y-191597D01*
Y-191883D01*
X739165D01*
Y-191597D01*
Y-191311D01*
X739451D01*
Y-191024D01*
Y-190738D01*
Y-190452D01*
Y-190165D01*
Y-189879D01*
Y-189593D01*
X739737D01*
Y-189306D01*
Y-189020D01*
Y-188734D01*
Y-188447D01*
Y-188161D01*
Y-187875D01*
Y-187588D01*
X740024D01*
Y-187302D01*
Y-187016D01*
Y-186730D01*
Y-186443D01*
Y-186157D01*
Y-185871D01*
X740310D01*
Y-185584D01*
Y-185298D01*
Y-185012D01*
Y-184725D01*
Y-184439D01*
Y-184153D01*
X740596D01*
Y-183866D01*
Y-183580D01*
Y-183294D01*
Y-183007D01*
Y-182721D01*
Y-182435D01*
Y-182149D01*
X740882D01*
Y-181862D01*
Y-181576D01*
Y-181290D01*
Y-181003D01*
Y-180717D01*
Y-180431D01*
X741169D01*
Y-180144D01*
Y-179858D01*
Y-179572D01*
Y-179285D01*
Y-178999D01*
Y-178713D01*
Y-178426D01*
X741455D01*
Y-178140D01*
Y-177854D01*
Y-177568D01*
Y-177281D01*
Y-176995D01*
Y-176709D01*
X741742D01*
Y-176422D01*
Y-176136D01*
Y-175850D01*
Y-175563D01*
Y-175277D01*
Y-174991D01*
X742028D01*
Y-174704D01*
Y-174418D01*
Y-174132D01*
Y-173845D01*
Y-173559D01*
Y-173273D01*
X742314D01*
Y-172986D01*
Y-172700D01*
Y-172414D01*
Y-172127D01*
Y-171841D01*
Y-171555D01*
Y-171269D01*
X742600D01*
Y-170982D01*
Y-170696D01*
Y-170410D01*
Y-170123D01*
Y-169837D01*
Y-169551D01*
X742887D01*
Y-169264D01*
Y-168978D01*
Y-168692D01*
Y-168405D01*
Y-168119D01*
Y-167833D01*
Y-167547D01*
X743173D01*
Y-167260D01*
Y-166974D01*
Y-166688D01*
Y-166401D01*
Y-166115D01*
Y-165829D01*
X742887D01*
Y-165542D01*
Y-165256D01*
X742600D01*
Y-164970D01*
X742314D01*
Y-164683D01*
X741742D01*
Y-164397D01*
X740024D01*
Y-164683D01*
X738592D01*
Y-164970D01*
X737733D01*
Y-165256D01*
X737160D01*
Y-165542D01*
X736874D01*
Y-165829D01*
X736302D01*
Y-166115D01*
X736015D01*
Y-166401D01*
X735729D01*
Y-166688D01*
Y-166974D01*
X735443D01*
Y-167260D01*
Y-167547D01*
Y-167833D01*
X735156D01*
Y-168119D01*
Y-168405D01*
Y-168692D01*
Y-168978D01*
Y-169264D01*
Y-169551D01*
X734870D01*
Y-169837D01*
Y-170123D01*
Y-170410D01*
Y-170696D01*
Y-170982D01*
Y-171269D01*
Y-171555D01*
X734584D01*
Y-171841D01*
Y-172127D01*
Y-172414D01*
Y-172700D01*
Y-172986D01*
Y-173273D01*
X734297D01*
Y-173559D01*
Y-173845D01*
Y-174132D01*
Y-174418D01*
Y-174704D01*
Y-174991D01*
X734011D01*
Y-175277D01*
Y-175563D01*
Y-175850D01*
Y-176136D01*
Y-176422D01*
Y-176709D01*
X733725D01*
Y-176995D01*
Y-177281D01*
Y-177568D01*
Y-177854D01*
Y-178140D01*
Y-178426D01*
Y-178713D01*
X733438D01*
Y-178999D01*
Y-179285D01*
Y-179572D01*
Y-179858D01*
Y-180144D01*
Y-180431D01*
X733152D01*
Y-180717D01*
Y-181003D01*
Y-181290D01*
Y-181576D01*
Y-181862D01*
Y-182149D01*
X732866D01*
Y-182435D01*
Y-182721D01*
Y-183007D01*
Y-183294D01*
Y-183580D01*
Y-183866D01*
Y-184153D01*
X732580D01*
Y-184439D01*
Y-184725D01*
Y-185012D01*
Y-185298D01*
Y-185584D01*
Y-185871D01*
X732293D01*
Y-186157D01*
Y-186443D01*
Y-186730D01*
Y-187016D01*
Y-187302D01*
Y-187588D01*
X732007D01*
Y-187875D01*
Y-188161D01*
Y-188447D01*
Y-188734D01*
Y-189020D01*
Y-189306D01*
X731720D01*
Y-189593D01*
Y-189879D01*
Y-190165D01*
Y-190452D01*
Y-190738D01*
Y-191024D01*
Y-191311D01*
X731434D01*
Y-191597D01*
Y-191883D01*
X718264D01*
Y-191597D01*
Y-191311D01*
X718550D01*
Y-191024D01*
Y-190738D01*
Y-190452D01*
Y-190165D01*
Y-189879D01*
Y-189593D01*
Y-189306D01*
X718836D01*
Y-189020D01*
Y-188734D01*
Y-188447D01*
Y-188161D01*
Y-187875D01*
Y-187588D01*
X719123D01*
Y-187302D01*
Y-187016D01*
Y-186730D01*
Y-186443D01*
Y-186157D01*
Y-185871D01*
X719409D01*
Y-185584D01*
Y-185298D01*
Y-185012D01*
Y-184725D01*
Y-184439D01*
Y-184153D01*
Y-183866D01*
X719695D01*
Y-183580D01*
Y-183294D01*
Y-183007D01*
Y-182721D01*
Y-182435D01*
Y-182149D01*
X719982D01*
Y-181862D01*
Y-181576D01*
Y-181290D01*
Y-181003D01*
Y-180717D01*
Y-180431D01*
X720268D01*
Y-180144D01*
Y-179858D01*
Y-179572D01*
Y-179285D01*
Y-178999D01*
Y-178713D01*
X720554D01*
Y-178426D01*
Y-178140D01*
Y-177854D01*
Y-177568D01*
Y-177281D01*
Y-176995D01*
Y-176709D01*
X720841D01*
Y-176422D01*
Y-176136D01*
Y-175850D01*
Y-175563D01*
Y-175277D01*
Y-174991D01*
X721127D01*
Y-174704D01*
Y-174418D01*
Y-174132D01*
Y-173845D01*
Y-173559D01*
Y-173273D01*
X721413D01*
Y-172986D01*
Y-172700D01*
Y-172414D01*
Y-172127D01*
Y-171841D01*
Y-171555D01*
Y-171269D01*
X721700D01*
Y-170982D01*
Y-170696D01*
Y-170410D01*
Y-170123D01*
Y-169837D01*
Y-169551D01*
X721986D01*
Y-169264D01*
Y-168978D01*
Y-168692D01*
Y-168405D01*
Y-168119D01*
Y-167833D01*
X722272D01*
Y-167547D01*
Y-167260D01*
Y-166974D01*
Y-166688D01*
Y-166401D01*
Y-166115D01*
X722558D01*
Y-165829D01*
Y-165542D01*
Y-165256D01*
Y-164970D01*
Y-164683D01*
Y-164397D01*
Y-164111D01*
X722845D01*
Y-163824D01*
Y-163538D01*
Y-163252D01*
Y-162966D01*
Y-162679D01*
Y-162393D01*
X723131D01*
Y-162107D01*
Y-161820D01*
Y-161534D01*
Y-161248D01*
Y-160961D01*
Y-160675D01*
X723418D01*
Y-160389D01*
Y-160102D01*
Y-159816D01*
Y-159530D01*
Y-159244D01*
Y-158957D01*
X723704D01*
Y-158671D01*
Y-158385D01*
Y-158098D01*
Y-157812D01*
Y-157526D01*
Y-157239D01*
Y-156953D01*
X723990D01*
Y-156667D01*
Y-156380D01*
Y-156094D01*
Y-155808D01*
Y-155521D01*
Y-155235D01*
X724276D01*
Y-154949D01*
Y-154663D01*
Y-154376D01*
Y-154090D01*
Y-153804D01*
Y-153517D01*
X724563D01*
Y-153231D01*
Y-152945D01*
Y-152658D01*
Y-152372D01*
Y-152086D01*
Y-151799D01*
Y-151513D01*
X724849D01*
Y-151227D01*
Y-150940D01*
Y-150654D01*
Y-150368D01*
Y-150082D01*
Y-149795D01*
X725135D01*
Y-149509D01*
Y-149223D01*
Y-148936D01*
Y-148650D01*
Y-148364D01*
Y-148077D01*
X725422D01*
Y-147791D01*
Y-147505D01*
Y-147218D01*
Y-146932D01*
Y-146646D01*
Y-146359D01*
X725708D01*
Y-146073D01*
Y-145787D01*
Y-145501D01*
Y-145214D01*
Y-144928D01*
Y-144641D01*
Y-144355D01*
X725994D01*
Y-144069D01*
Y-143783D01*
Y-143496D01*
Y-143210D01*
Y-142924D01*
Y-142637D01*
X726281D01*
Y-142351D01*
Y-142065D01*
Y-141778D01*
Y-141492D01*
Y-141206D01*
Y-140919D01*
X726567D01*
Y-140633D01*
Y-140347D01*
Y-140060D01*
Y-139774D01*
Y-139488D01*
Y-139202D01*
Y-138915D01*
X726853D01*
Y-138629D01*
Y-138343D01*
Y-138056D01*
X740024D01*
Y-138343D01*
D02*
G37*
G36*
X841951Y-155808D02*
X841665D01*
Y-156094D01*
X841378D01*
Y-156380D01*
Y-156667D01*
X841092D01*
Y-156953D01*
X840806D01*
Y-157239D01*
X840519D01*
Y-157526D01*
Y-157812D01*
X840233D01*
Y-158098D01*
X839947D01*
Y-158385D01*
X839660D01*
Y-158671D01*
X839374D01*
Y-158957D01*
Y-159244D01*
X839088D01*
Y-159530D01*
X838801D01*
Y-159816D01*
X838515D01*
Y-160102D01*
Y-160389D01*
X838229D01*
Y-160675D01*
X837943D01*
Y-160961D01*
X837656D01*
Y-161248D01*
X837370D01*
Y-161534D01*
Y-161820D01*
X837084D01*
Y-162107D01*
X836797D01*
Y-162393D01*
X836511D01*
Y-162679D01*
Y-162966D01*
X836225D01*
Y-163252D01*
X835938D01*
Y-163538D01*
X835652D01*
Y-163824D01*
Y-164111D01*
X835366D01*
Y-164397D01*
X835079D01*
Y-164683D01*
X834793D01*
Y-164970D01*
X834507D01*
Y-165256D01*
Y-165542D01*
X834221D01*
Y-165829D01*
X833934D01*
Y-166115D01*
X833648D01*
Y-166401D01*
Y-166688D01*
X833362D01*
Y-166974D01*
X833075D01*
Y-167260D01*
X832789D01*
Y-167547D01*
Y-167833D01*
X832503D01*
Y-168119D01*
X832216D01*
Y-168405D01*
X831930D01*
Y-168692D01*
X831644D01*
Y-168978D01*
Y-169264D01*
X831357D01*
Y-169551D01*
X831071D01*
Y-169837D01*
X830785D01*
Y-170123D01*
Y-170410D01*
X830499D01*
Y-170696D01*
X830212D01*
Y-170982D01*
X829926D01*
Y-171269D01*
Y-171555D01*
X829640D01*
Y-171841D01*
X829353D01*
Y-172127D01*
X829067D01*
Y-172414D01*
X828781D01*
Y-172700D01*
Y-172986D01*
X828494D01*
Y-173273D01*
X828208D01*
Y-173559D01*
X827922D01*
Y-173845D01*
Y-174132D01*
X827635D01*
Y-174418D01*
X827349D01*
Y-174704D01*
X827063D01*
Y-174991D01*
X826776D01*
Y-175277D01*
Y-175563D01*
X827063D01*
Y-175850D01*
Y-176136D01*
X827349D01*
Y-176422D01*
Y-176709D01*
X827635D01*
Y-176995D01*
X827922D01*
Y-177281D01*
Y-177568D01*
X828208D01*
Y-177854D01*
Y-178140D01*
X828494D01*
Y-178426D01*
Y-178713D01*
X828781D01*
Y-178999D01*
Y-179285D01*
X829067D01*
Y-179572D01*
Y-179858D01*
X829353D01*
Y-180144D01*
Y-180431D01*
X829640D01*
Y-180717D01*
Y-181003D01*
X829926D01*
Y-181290D01*
Y-181576D01*
X830212D01*
Y-181862D01*
X830499D01*
Y-182149D01*
Y-182435D01*
X830785D01*
Y-182721D01*
Y-183007D01*
X831071D01*
Y-183294D01*
Y-183580D01*
X831357D01*
Y-183866D01*
Y-184153D01*
X831644D01*
Y-184439D01*
Y-184725D01*
X831930D01*
Y-185012D01*
Y-185298D01*
X832216D01*
Y-185584D01*
Y-185871D01*
X832503D01*
Y-186157D01*
X832789D01*
Y-186443D01*
Y-186730D01*
X833075D01*
Y-187016D01*
Y-187302D01*
X833362D01*
Y-187588D01*
Y-187875D01*
X833648D01*
Y-188161D01*
Y-188447D01*
X833934D01*
Y-188734D01*
Y-189020D01*
X834221D01*
Y-189306D01*
Y-189593D01*
X834507D01*
Y-189879D01*
Y-190165D01*
X834793D01*
Y-190452D01*
X835079D01*
Y-190738D01*
Y-191024D01*
X835366D01*
Y-191311D01*
Y-191597D01*
X835652D01*
Y-191883D01*
X820477D01*
Y-191597D01*
X820191D01*
Y-191311D01*
Y-191024D01*
Y-190738D01*
X819905D01*
Y-190452D01*
Y-190165D01*
Y-189879D01*
X819619D01*
Y-189593D01*
Y-189306D01*
X819332D01*
Y-189020D01*
Y-188734D01*
Y-188447D01*
X819046D01*
Y-188161D01*
Y-187875D01*
Y-187588D01*
X818760D01*
Y-187302D01*
Y-187016D01*
X818473D01*
Y-186730D01*
Y-186443D01*
Y-186157D01*
X818187D01*
Y-185871D01*
Y-185584D01*
Y-185298D01*
X817901D01*
Y-185012D01*
Y-184725D01*
Y-184439D01*
X817614D01*
Y-184153D01*
X817042D01*
Y-184439D01*
Y-184725D01*
X816755D01*
Y-185012D01*
X816469D01*
Y-185298D01*
Y-185584D01*
X816183D01*
Y-185871D01*
X815897D01*
Y-186157D01*
Y-186443D01*
X815610D01*
Y-186730D01*
X815324D01*
Y-187016D01*
Y-187302D01*
X815038D01*
Y-187588D01*
X814751D01*
Y-187875D01*
X814465D01*
Y-188161D01*
Y-188447D01*
X814179D01*
Y-188734D01*
X813892D01*
Y-189020D01*
Y-189306D01*
X813606D01*
Y-189593D01*
X813320D01*
Y-189879D01*
Y-190165D01*
X813033D01*
Y-190452D01*
X812747D01*
Y-190738D01*
Y-191024D01*
X812461D01*
Y-191311D01*
X812174D01*
Y-191597D01*
Y-191883D01*
X796141D01*
Y-191597D01*
X796427D01*
Y-191311D01*
X796714D01*
Y-191024D01*
X797000D01*
Y-190738D01*
X797286D01*
Y-190452D01*
Y-190165D01*
X797573D01*
Y-189879D01*
X797859D01*
Y-189593D01*
X798145D01*
Y-189306D01*
X798431D01*
Y-189020D01*
Y-188734D01*
X798718D01*
Y-188447D01*
X799004D01*
Y-188161D01*
X799290D01*
Y-187875D01*
Y-187588D01*
X799577D01*
Y-187302D01*
X799863D01*
Y-187016D01*
X800149D01*
Y-186730D01*
X800436D01*
Y-186443D01*
Y-186157D01*
X800722D01*
Y-185871D01*
X801008D01*
Y-185584D01*
X801295D01*
Y-185298D01*
X801581D01*
Y-185012D01*
Y-184725D01*
X801867D01*
Y-184439D01*
X802153D01*
Y-184153D01*
X802440D01*
Y-183866D01*
Y-183580D01*
X802726D01*
Y-183294D01*
X803012D01*
Y-183007D01*
X803299D01*
Y-182721D01*
X803585D01*
Y-182435D01*
Y-182149D01*
X803871D01*
Y-181862D01*
X804158D01*
Y-181576D01*
X804444D01*
Y-181290D01*
Y-181003D01*
X804730D01*
Y-180717D01*
X805017D01*
Y-180431D01*
X805303D01*
Y-180144D01*
X805589D01*
Y-179858D01*
Y-179572D01*
X805876D01*
Y-179285D01*
X806162D01*
Y-178999D01*
X806448D01*
Y-178713D01*
Y-178426D01*
X806734D01*
Y-178140D01*
X807021D01*
Y-177854D01*
X807307D01*
Y-177568D01*
X807594D01*
Y-177281D01*
Y-176995D01*
X807880D01*
Y-176709D01*
X808166D01*
Y-176422D01*
X808452D01*
Y-176136D01*
X808739D01*
Y-175850D01*
Y-175563D01*
X809025D01*
Y-175277D01*
X809311D01*
Y-174991D01*
X809598D01*
Y-174704D01*
Y-174418D01*
X809884D01*
Y-174132D01*
X810170D01*
Y-173845D01*
X810457D01*
Y-173559D01*
X810743D01*
Y-173273D01*
Y-172986D01*
X811029D01*
Y-172700D01*
Y-172414D01*
Y-172127D01*
X810743D01*
Y-171841D01*
X810457D01*
Y-171555D01*
Y-171269D01*
X810170D01*
Y-170982D01*
Y-170696D01*
X809884D01*
Y-170410D01*
Y-170123D01*
X809598D01*
Y-169837D01*
Y-169551D01*
X809311D01*
Y-169264D01*
Y-168978D01*
X809025D01*
Y-168692D01*
Y-168405D01*
X808739D01*
Y-168119D01*
X808452D01*
Y-167833D01*
Y-167547D01*
X808166D01*
Y-167260D01*
Y-166974D01*
X807880D01*
Y-166688D01*
Y-166401D01*
X807594D01*
Y-166115D01*
Y-165829D01*
X807307D01*
Y-165542D01*
Y-165256D01*
X807021D01*
Y-164970D01*
Y-164683D01*
X806734D01*
Y-164397D01*
X806448D01*
Y-164111D01*
Y-163824D01*
X806162D01*
Y-163538D01*
Y-163252D01*
X805876D01*
Y-162966D01*
Y-162679D01*
X805589D01*
Y-162393D01*
Y-162107D01*
X805303D01*
Y-161820D01*
Y-161534D01*
X805017D01*
Y-161248D01*
Y-160961D01*
X804730D01*
Y-160675D01*
Y-160389D01*
X804444D01*
Y-160102D01*
X804158D01*
Y-159816D01*
Y-159530D01*
X803871D01*
Y-159244D01*
Y-158957D01*
X803585D01*
Y-158671D01*
Y-158385D01*
X803299D01*
Y-158098D01*
Y-157812D01*
X803012D01*
Y-157526D01*
Y-157239D01*
X802726D01*
Y-156953D01*
Y-156667D01*
X802440D01*
Y-156380D01*
X802153D01*
Y-156094D01*
Y-155808D01*
X801867D01*
Y-155521D01*
X817614D01*
Y-155808D01*
X817901D01*
Y-156094D01*
Y-156380D01*
Y-156667D01*
X818187D01*
Y-156953D01*
Y-157239D01*
Y-157526D01*
X818473D01*
Y-157812D01*
Y-158098D01*
Y-158385D01*
X818760D01*
Y-158671D01*
Y-158957D01*
Y-159244D01*
X819046D01*
Y-159530D01*
Y-159816D01*
Y-160102D01*
X819332D01*
Y-160389D01*
Y-160675D01*
Y-160961D01*
X819619D01*
Y-161248D01*
Y-161534D01*
Y-161820D01*
X819905D01*
Y-162107D01*
Y-162393D01*
Y-162679D01*
X820191D01*
Y-162966D01*
Y-163252D01*
Y-163538D01*
Y-163824D01*
X820764D01*
Y-163538D01*
X821050D01*
Y-163252D01*
X821336D01*
Y-162966D01*
Y-162679D01*
X821623D01*
Y-162393D01*
X821909D01*
Y-162107D01*
Y-161820D01*
X822195D01*
Y-161534D01*
X822482D01*
Y-161248D01*
Y-160961D01*
X822768D01*
Y-160675D01*
X823054D01*
Y-160389D01*
Y-160102D01*
X823341D01*
Y-159816D01*
X823627D01*
Y-159530D01*
Y-159244D01*
X823913D01*
Y-158957D01*
X824200D01*
Y-158671D01*
Y-158385D01*
X824486D01*
Y-158098D01*
X824772D01*
Y-157812D01*
Y-157526D01*
X825058D01*
Y-157239D01*
X825345D01*
Y-156953D01*
Y-156667D01*
X825631D01*
Y-156380D01*
X825918D01*
Y-156094D01*
Y-155808D01*
X826204D01*
Y-155521D01*
X841951D01*
Y-155808D01*
D02*
G37*
G36*
X797859D02*
Y-156094D01*
Y-156380D01*
Y-156667D01*
Y-156953D01*
Y-157239D01*
Y-157526D01*
Y-157812D01*
Y-158098D01*
Y-158385D01*
Y-158671D01*
Y-158957D01*
Y-159244D01*
Y-159530D01*
Y-159816D01*
Y-160102D01*
Y-160389D01*
Y-160675D01*
Y-160961D01*
Y-161248D01*
Y-161534D01*
X797573D01*
Y-161820D01*
Y-162107D01*
Y-162393D01*
Y-162679D01*
Y-162966D01*
X797286D01*
Y-163252D01*
Y-163538D01*
Y-163824D01*
Y-164111D01*
X797000D01*
Y-164397D01*
Y-164683D01*
Y-164970D01*
Y-165256D01*
X796714D01*
Y-165542D01*
Y-165829D01*
Y-166115D01*
X796427D01*
Y-166401D01*
Y-166688D01*
Y-166974D01*
X796141D01*
Y-167260D01*
Y-167547D01*
Y-167833D01*
X795855D01*
Y-168119D01*
Y-168405D01*
Y-168692D01*
X795568D01*
Y-168978D01*
Y-169264D01*
X795282D01*
Y-169551D01*
Y-169837D01*
X794996D01*
Y-170123D01*
Y-170410D01*
Y-170696D01*
X794709D01*
Y-170982D01*
Y-171269D01*
X794423D01*
Y-171555D01*
Y-171841D01*
Y-172127D01*
X794137D01*
Y-172414D01*
Y-172700D01*
X793850D01*
Y-172986D01*
Y-173273D01*
Y-173559D01*
X793564D01*
Y-173845D01*
Y-174132D01*
X793278D01*
Y-174418D01*
Y-174704D01*
Y-174991D01*
X792991D01*
Y-175277D01*
Y-175563D01*
X792705D01*
Y-175850D01*
Y-176136D01*
Y-176422D01*
X792419D01*
Y-176709D01*
Y-176995D01*
X792133D01*
Y-177281D01*
Y-177568D01*
Y-177854D01*
X791846D01*
Y-178140D01*
Y-178426D01*
X791560D01*
Y-178713D01*
Y-178999D01*
Y-179285D01*
X791274D01*
Y-179572D01*
Y-179858D01*
X790987D01*
Y-180144D01*
Y-180431D01*
Y-180717D01*
X790701D01*
Y-181003D01*
Y-181290D01*
X790415D01*
Y-181576D01*
Y-181862D01*
Y-182149D01*
X790128D01*
Y-182435D01*
Y-182721D01*
X789842D01*
Y-183007D01*
Y-183294D01*
Y-183580D01*
X789556D01*
Y-183866D01*
Y-184153D01*
X789269D01*
Y-184439D01*
Y-184725D01*
Y-185012D01*
X788983D01*
Y-185298D01*
Y-185584D01*
X788697D01*
Y-185871D01*
Y-186157D01*
Y-186443D01*
X788411D01*
Y-186730D01*
Y-187016D01*
X788124D01*
Y-187302D01*
Y-187588D01*
Y-187875D01*
X787838D01*
Y-188161D01*
Y-188447D01*
X787552D01*
Y-188734D01*
Y-189020D01*
Y-189306D01*
X787265D01*
Y-189593D01*
Y-189879D01*
X786979D01*
Y-190165D01*
Y-190452D01*
Y-190738D01*
X786693D01*
Y-191024D01*
Y-191311D01*
X786406D01*
Y-191597D01*
Y-191883D01*
Y-192169D01*
X786120D01*
Y-192456D01*
Y-192742D01*
X785834D01*
Y-193028D01*
Y-193315D01*
X785547D01*
Y-193601D01*
Y-193887D01*
X785261D01*
Y-194174D01*
Y-194460D01*
Y-194746D01*
X784975D01*
Y-195033D01*
X784688D01*
Y-195319D01*
Y-195605D01*
Y-195891D01*
X784402D01*
Y-196178D01*
X784116D01*
Y-196464D01*
Y-196750D01*
X783829D01*
Y-197037D01*
Y-197323D01*
X783543D01*
Y-197609D01*
Y-197896D01*
X783257D01*
Y-198182D01*
Y-198468D01*
X782971D01*
Y-198755D01*
X782684D01*
Y-199041D01*
Y-199327D01*
X782398D01*
Y-199614D01*
Y-199900D01*
X782112D01*
Y-200186D01*
X781825D01*
Y-200472D01*
X781539D01*
Y-200759D01*
Y-201045D01*
X781253D01*
Y-201331D01*
X780966D01*
Y-201618D01*
Y-201904D01*
X780680D01*
Y-202190D01*
X780394D01*
Y-202477D01*
X780107D01*
Y-202763D01*
Y-203049D01*
X779821D01*
Y-203336D01*
X779535D01*
Y-203622D01*
X779249D01*
Y-203908D01*
X778962D01*
Y-204195D01*
X778676D01*
Y-204481D01*
Y-204767D01*
X778390D01*
Y-205053D01*
X778103D01*
Y-205340D01*
X777817D01*
Y-205626D01*
X777531D01*
Y-205912D01*
X777244D01*
Y-206199D01*
X776958D01*
Y-206485D01*
X776672D01*
Y-206771D01*
X776099D01*
Y-207058D01*
X775813D01*
Y-207344D01*
X775526D01*
Y-207630D01*
X775240D01*
Y-207917D01*
X774954D01*
Y-208203D01*
X774381D01*
Y-208489D01*
X774095D01*
Y-208776D01*
X773522D01*
Y-209062D01*
X773236D01*
Y-209348D01*
X772663D01*
Y-209634D01*
X772377D01*
Y-209921D01*
X771804D01*
Y-210207D01*
X771232D01*
Y-210493D01*
X770659D01*
Y-210780D01*
X770086D01*
Y-211066D01*
X769514D01*
Y-211352D01*
X768655D01*
Y-211639D01*
X768082D01*
Y-211925D01*
X767223D01*
Y-212211D01*
X766078D01*
Y-212498D01*
X764933D01*
Y-212784D01*
X763215D01*
Y-213070D01*
X761211D01*
Y-213357D01*
X760924D01*
Y-213070D01*
Y-212784D01*
Y-212498D01*
Y-212211D01*
Y-211925D01*
Y-211639D01*
Y-211352D01*
Y-211066D01*
Y-210780D01*
Y-210493D01*
Y-210207D01*
Y-209921D01*
Y-209634D01*
Y-209348D01*
Y-209062D01*
Y-208776D01*
Y-208489D01*
Y-208203D01*
Y-207917D01*
Y-207630D01*
Y-207344D01*
Y-207058D01*
Y-206771D01*
Y-206485D01*
Y-206199D01*
Y-205912D01*
Y-205626D01*
Y-205340D01*
Y-205053D01*
Y-204767D01*
Y-204481D01*
Y-204195D01*
Y-203908D01*
X761497D01*
Y-203622D01*
X762070D01*
Y-203336D01*
X762642D01*
Y-203049D01*
X763215D01*
Y-202763D01*
X763788D01*
Y-202477D01*
X764360D01*
Y-202190D01*
X764646D01*
Y-201904D01*
X765219D01*
Y-201618D01*
X765506D01*
Y-201331D01*
X766078D01*
Y-201045D01*
X766364D01*
Y-200759D01*
X766651D01*
Y-200472D01*
X767223D01*
Y-200186D01*
X767510D01*
Y-199900D01*
X767796D01*
Y-199614D01*
X768082D01*
Y-199327D01*
X768369D01*
Y-199041D01*
X768655D01*
Y-198755D01*
X768941D01*
Y-198468D01*
X769228D01*
Y-198182D01*
X769514D01*
Y-197896D01*
X769800D01*
Y-197609D01*
X770086D01*
Y-197323D01*
X770373D01*
Y-197037D01*
Y-196750D01*
X770659D01*
Y-196464D01*
X770945D01*
Y-196178D01*
X771232D01*
Y-195891D01*
Y-195605D01*
X771518D01*
Y-195319D01*
X771804D01*
Y-195033D01*
Y-194746D01*
X772091D01*
Y-194460D01*
Y-194174D01*
X772377D01*
Y-193887D01*
X772663D01*
Y-193601D01*
Y-193315D01*
X772950D01*
Y-193028D01*
Y-192742D01*
X773236D01*
Y-192456D01*
Y-192169D01*
X771518D01*
Y-191883D01*
X769514D01*
Y-191597D01*
X768369D01*
Y-191311D01*
X767796D01*
Y-191024D01*
X766937D01*
Y-190738D01*
X766364D01*
Y-190452D01*
X766078D01*
Y-190165D01*
X765506D01*
Y-189879D01*
X765219D01*
Y-189593D01*
X764933D01*
Y-189306D01*
X764646D01*
Y-189020D01*
X764360D01*
Y-188734D01*
X764074D01*
Y-188447D01*
Y-188161D01*
X763788D01*
Y-187875D01*
X763501D01*
Y-187588D01*
Y-187302D01*
X763215D01*
Y-187016D01*
Y-186730D01*
X762929D01*
Y-186443D01*
Y-186157D01*
X762642D01*
Y-185871D01*
Y-185584D01*
Y-185298D01*
X762356D01*
Y-185012D01*
Y-184725D01*
Y-184439D01*
Y-184153D01*
X762070D01*
Y-183866D01*
Y-183580D01*
Y-183294D01*
Y-183007D01*
Y-182721D01*
Y-182435D01*
Y-182149D01*
X761783D01*
Y-181862D01*
Y-181576D01*
Y-181290D01*
Y-181003D01*
Y-180717D01*
Y-180431D01*
Y-180144D01*
Y-179858D01*
Y-179572D01*
Y-179285D01*
Y-178999D01*
Y-178713D01*
Y-178426D01*
Y-178140D01*
Y-177854D01*
X761497D01*
Y-177568D01*
Y-177281D01*
Y-176995D01*
Y-176709D01*
Y-176422D01*
Y-176136D01*
Y-175850D01*
Y-175563D01*
Y-175277D01*
Y-174991D01*
Y-174704D01*
Y-174418D01*
Y-174132D01*
Y-173845D01*
Y-173559D01*
X761211D01*
Y-173273D01*
Y-172986D01*
Y-172700D01*
Y-172414D01*
Y-172127D01*
Y-171841D01*
Y-171555D01*
Y-171269D01*
Y-170982D01*
Y-170696D01*
Y-170410D01*
Y-170123D01*
Y-169837D01*
Y-169551D01*
Y-169264D01*
Y-168978D01*
X760924D01*
Y-168692D01*
Y-168405D01*
Y-168119D01*
Y-167833D01*
Y-167547D01*
Y-167260D01*
Y-166974D01*
Y-166688D01*
Y-166401D01*
Y-166115D01*
Y-165829D01*
Y-165542D01*
Y-165256D01*
Y-164970D01*
Y-164683D01*
Y-164397D01*
X760638D01*
Y-164111D01*
Y-163824D01*
Y-163538D01*
Y-163252D01*
Y-162966D01*
Y-162679D01*
Y-162393D01*
Y-162107D01*
Y-161820D01*
Y-161534D01*
Y-161248D01*
Y-160961D01*
Y-160675D01*
Y-160389D01*
X760352D01*
Y-160102D01*
Y-159816D01*
Y-159530D01*
Y-159244D01*
Y-158957D01*
Y-158671D01*
Y-158385D01*
Y-158098D01*
Y-157812D01*
Y-157526D01*
Y-157239D01*
Y-156953D01*
Y-156667D01*
Y-156380D01*
Y-156094D01*
Y-155808D01*
X760066D01*
Y-155521D01*
X773808D01*
Y-155808D01*
Y-156094D01*
Y-156380D01*
Y-156667D01*
Y-156953D01*
Y-157239D01*
Y-157526D01*
Y-157812D01*
Y-158098D01*
Y-158385D01*
Y-158671D01*
Y-158957D01*
Y-159244D01*
Y-159530D01*
X774095D01*
Y-159816D01*
Y-160102D01*
Y-160389D01*
Y-160675D01*
Y-160961D01*
Y-161248D01*
Y-161534D01*
Y-161820D01*
Y-162107D01*
Y-162393D01*
Y-162679D01*
Y-162966D01*
Y-163252D01*
Y-163538D01*
Y-163824D01*
Y-164111D01*
Y-164397D01*
Y-164683D01*
Y-164970D01*
Y-165256D01*
Y-165542D01*
Y-165829D01*
Y-166115D01*
Y-166401D01*
Y-166688D01*
Y-166974D01*
Y-167260D01*
Y-167547D01*
Y-167833D01*
Y-168119D01*
Y-168405D01*
Y-168692D01*
Y-168978D01*
Y-169264D01*
Y-169551D01*
Y-169837D01*
Y-170123D01*
Y-170410D01*
Y-170696D01*
Y-170982D01*
Y-171269D01*
X774381D01*
Y-171555D01*
X774095D01*
Y-171841D01*
Y-172127D01*
X774381D01*
Y-172414D01*
Y-172700D01*
Y-172986D01*
Y-173273D01*
Y-173559D01*
Y-173845D01*
Y-174132D01*
Y-174418D01*
Y-174704D01*
Y-174991D01*
Y-175277D01*
Y-175563D01*
Y-175850D01*
Y-176136D01*
Y-176422D01*
Y-176709D01*
Y-176995D01*
Y-177281D01*
Y-177568D01*
Y-177854D01*
Y-178140D01*
Y-178426D01*
Y-178713D01*
Y-178999D01*
Y-179285D01*
Y-179572D01*
X774668D01*
Y-179858D01*
Y-180144D01*
Y-180431D01*
X774954D01*
Y-180717D01*
X775240D01*
Y-181003D01*
X775526D01*
Y-181290D01*
X776385D01*
Y-181576D01*
X777244D01*
Y-181290D01*
X777531D01*
Y-181003D01*
Y-180717D01*
Y-180431D01*
X777817D01*
Y-180144D01*
Y-179858D01*
X778103D01*
Y-179572D01*
Y-179285D01*
Y-178999D01*
X778390D01*
Y-178713D01*
Y-178426D01*
Y-178140D01*
X778676D01*
Y-177854D01*
Y-177568D01*
Y-177281D01*
X778962D01*
Y-176995D01*
Y-176709D01*
Y-176422D01*
X779249D01*
Y-176136D01*
Y-175850D01*
X779535D01*
Y-175563D01*
Y-175277D01*
Y-174991D01*
X779821D01*
Y-174704D01*
Y-174418D01*
Y-174132D01*
X780107D01*
Y-173845D01*
Y-173559D01*
Y-173273D01*
X780394D01*
Y-172986D01*
Y-172700D01*
X780680D01*
Y-172414D01*
Y-172127D01*
Y-171841D01*
X780966D01*
Y-171555D01*
Y-171269D01*
Y-170982D01*
X781253D01*
Y-170696D01*
Y-170410D01*
Y-170123D01*
X781539D01*
Y-169837D01*
Y-169551D01*
X781825D01*
Y-169264D01*
Y-168978D01*
Y-168692D01*
X782112D01*
Y-168405D01*
Y-168119D01*
Y-167833D01*
X782398D01*
Y-167547D01*
Y-167260D01*
Y-166974D01*
X782684D01*
Y-166688D01*
Y-166401D01*
X782971D01*
Y-166115D01*
Y-165829D01*
Y-165542D01*
X783257D01*
Y-165256D01*
Y-164970D01*
Y-164683D01*
X783543D01*
Y-164397D01*
Y-164111D01*
Y-163824D01*
X783829D01*
Y-163538D01*
Y-163252D01*
Y-162966D01*
Y-162679D01*
X784116D01*
Y-162393D01*
Y-162107D01*
Y-161820D01*
Y-161534D01*
X784402D01*
Y-161248D01*
Y-160961D01*
Y-160675D01*
Y-160389D01*
Y-160102D01*
X784688D01*
Y-159816D01*
Y-159530D01*
Y-159244D01*
Y-158957D01*
Y-158671D01*
Y-158385D01*
X784975D01*
Y-158098D01*
Y-157812D01*
Y-157526D01*
Y-157239D01*
Y-156953D01*
Y-156667D01*
Y-156380D01*
Y-156094D01*
Y-155808D01*
Y-155521D01*
X797859D01*
Y-155808D01*
D02*
G37*
%LPC*%
G36*
X704521Y-152658D02*
X696504D01*
Y-152945D01*
Y-153231D01*
Y-153517D01*
Y-153804D01*
Y-154090D01*
X696218D01*
Y-154376D01*
Y-154663D01*
Y-154949D01*
Y-155235D01*
Y-155521D01*
Y-155808D01*
X695931D01*
Y-156094D01*
Y-156380D01*
Y-156667D01*
Y-156953D01*
Y-157239D01*
Y-157526D01*
X695645D01*
Y-157812D01*
Y-158098D01*
Y-158385D01*
Y-158671D01*
Y-158957D01*
Y-159244D01*
X695359D01*
Y-159530D01*
Y-159816D01*
Y-160102D01*
Y-160389D01*
Y-160675D01*
Y-160961D01*
Y-161248D01*
X695073D01*
Y-161534D01*
Y-161820D01*
Y-162107D01*
Y-162393D01*
Y-162679D01*
Y-162966D01*
X694786D01*
Y-163252D01*
Y-163538D01*
Y-163824D01*
X701944D01*
Y-163538D01*
X703089D01*
Y-163252D01*
X703662D01*
Y-162966D01*
X703948D01*
Y-162679D01*
X704235D01*
Y-162393D01*
X704521D01*
Y-162107D01*
X704807D01*
Y-161820D01*
Y-161534D01*
X705093D01*
Y-161248D01*
Y-160961D01*
X705380D01*
Y-160675D01*
Y-160389D01*
X705666D01*
Y-160102D01*
Y-159816D01*
Y-159530D01*
Y-159244D01*
X705952D01*
Y-158957D01*
Y-158671D01*
Y-158385D01*
Y-158098D01*
Y-157812D01*
X706239D01*
Y-157526D01*
Y-157239D01*
Y-156953D01*
Y-156667D01*
Y-156380D01*
Y-156094D01*
Y-155808D01*
Y-155521D01*
Y-155235D01*
Y-154949D01*
Y-154663D01*
X705952D01*
Y-154376D01*
Y-154090D01*
X705666D01*
Y-153804D01*
Y-153517D01*
X705380D01*
Y-153231D01*
X705093D01*
Y-152945D01*
X704521D01*
Y-152658D01*
D02*
G37*
%LPD*%
D10*
X682685Y-247293D02*
Y-263036D01*
X687932Y-257788D01*
X693180Y-263036D01*
Y-247293D01*
X698428Y-263036D02*
X703675D01*
X701052D01*
Y-252540D01*
X698428D01*
X711547Y-263036D02*
Y-252540D01*
X714171D01*
X716794Y-255164D01*
Y-263036D01*
Y-255164D01*
X719418Y-252540D01*
X722042Y-255164D01*
Y-263036D01*
X727290Y-247293D02*
Y-257788D01*
X732537Y-263036D01*
X737785Y-257788D01*
Y-247293D01*
X753528Y-249917D02*
X750904Y-247293D01*
X745656D01*
X743033Y-249917D01*
Y-260412D01*
X745656Y-263036D01*
X750904D01*
X753528Y-260412D01*
Y-255164D01*
X748280D01*
X1037015Y-210546D02*
X1039639Y-207923D01*
X1044887D01*
X1047511Y-210546D01*
Y-221042D01*
X1044887Y-223665D01*
X1039639D01*
X1037015Y-221042D01*
Y-210546D01*
X1052758D02*
X1055382Y-207923D01*
X1060630D01*
X1063254Y-210546D01*
Y-221042D01*
X1060630Y-223665D01*
X1055382D01*
X1052758Y-221042D01*
Y-210546D01*
X873630Y-212186D02*
X875925Y-209890D01*
X880517D01*
X882813Y-212186D01*
Y-221370D01*
X880517Y-223665D01*
X875925D01*
X873630Y-221370D01*
Y-212186D01*
X887405Y-209890D02*
X896588D01*
Y-212186D01*
X887405Y-221370D01*
Y-223665D01*
X901180D02*
X910363Y-214482D01*
X914955Y-212186D02*
X917251Y-209890D01*
X921842D01*
X924138Y-212186D01*
Y-221370D01*
X921842Y-223665D01*
X917251D01*
X914955Y-221370D01*
Y-212186D01*
X937913Y-223665D02*
X928730D01*
X937913Y-214482D01*
Y-212186D01*
X935618Y-209890D01*
X931026D01*
X928730Y-212186D01*
X942505Y-223665D02*
X951688Y-214482D01*
X965464Y-223665D02*
X956280D01*
X965464Y-214482D01*
Y-212186D01*
X963168Y-209890D01*
X958576D01*
X956280Y-212186D01*
X970055D02*
X972351Y-209890D01*
X976943D01*
X979239Y-212186D01*
Y-221370D01*
X976943Y-223665D01*
X972351D01*
X970055Y-221370D01*
Y-212186D01*
X993014Y-223665D02*
X983830D01*
X993014Y-214482D01*
Y-212186D01*
X990718Y-209890D01*
X986126D01*
X983830Y-212186D01*
X1006789Y-223665D02*
X997605D01*
X1006789Y-214482D01*
Y-212186D01*
X1004493Y-209890D01*
X999901D01*
X997605Y-212186D01*
X875596Y-135086D02*
X873628Y-133118D01*
X869692D01*
X867724Y-135086D01*
Y-137054D01*
X869692Y-139022D01*
X873628D01*
X875596Y-140990D01*
Y-142957D01*
X873628Y-144925D01*
X869692D01*
X867724Y-142957D01*
X879531Y-133118D02*
X887403D01*
X883467D01*
Y-144925D01*
X899210Y-135086D02*
X897242Y-133118D01*
X893306D01*
X891339Y-135086D01*
Y-137054D01*
X893306Y-139022D01*
X897242D01*
X899210Y-140990D01*
Y-142957D01*
X897242Y-144925D01*
X893306D01*
X891339Y-142957D01*
X879535Y-168552D02*
Y-182327D01*
X886423D01*
X888719Y-180031D01*
Y-170848D01*
X886423Y-168552D01*
X879535D01*
X893310Y-173144D02*
Y-182327D01*
Y-177735D01*
X895606Y-175439D01*
X897902Y-173144D01*
X900198D01*
X907085Y-182327D02*
X911677D01*
X909381D01*
Y-173144D01*
X907085D01*
X918565Y-182327D02*
X923156D01*
X920860D01*
Y-168552D01*
X918565D01*
X930044Y-182327D02*
X934635D01*
X932340D01*
Y-168552D01*
X930044D01*
X964481Y-170848D02*
X962186Y-168552D01*
X957594D01*
X955298Y-170848D01*
Y-180031D01*
X957594Y-182327D01*
X962186D01*
X964481Y-180031D01*
Y-175439D01*
X959890D01*
X969073Y-173144D02*
Y-180031D01*
X971369Y-182327D01*
X978257D01*
Y-173144D01*
X982848Y-182327D02*
X987440D01*
X985144D01*
Y-173144D01*
X982848D01*
X1003511Y-168552D02*
Y-182327D01*
X996623D01*
X994327Y-180031D01*
Y-175439D01*
X996623Y-173144D01*
X1003511D01*
X1014990Y-182327D02*
X1010398D01*
X1008103Y-180031D01*
Y-175439D01*
X1010398Y-173144D01*
X1014990D01*
X1017286Y-175439D01*
Y-177735D01*
X1008103D01*
D11*
X1015362Y-229571D02*
Y-190201D01*
X857882Y-150831D02*
X1133472D01*
X857882Y-190201D02*
X1133472D01*
X661031Y-229571D02*
X1133472D01*
X661031Y-111461D02*
X1133472D01*
X661031Y-268941D02*
Y-111461D01*
X857882Y-268941D02*
Y-111461D01*
X-520071Y900350D02*
X1133472D01*
Y-268941D02*
Y900350D01*
X-520071Y-268941D02*
Y900350D01*
Y-268941D02*
X1133472D01*
X871660Y-256147D02*
X870676Y-255164D01*
X868708D01*
X867724Y-256147D01*
Y-257131D01*
X868708Y-258115D01*
X870676D01*
X871660Y-259099D01*
Y-260083D01*
X870676Y-261067D01*
X868708D01*
X867724Y-260083D01*
X873628Y-255164D02*
X877563D01*
X875596D01*
Y-261067D01*
X883467Y-256147D02*
X882483Y-255164D01*
X880515D01*
X879531Y-256147D01*
Y-257131D01*
X880515Y-258115D01*
X882483D01*
X883467Y-259099D01*
Y-260083D01*
X882483Y-261067D01*
X880515D01*
X879531Y-260083D01*
X885435Y-261067D02*
Y-260083D01*
X886419D01*
Y-261067D01*
X885435D01*
X890355Y-256147D02*
X891339Y-255164D01*
X893306D01*
X894290Y-256147D01*
Y-260083D01*
X893306Y-261067D01*
X891339D01*
X890355Y-260083D01*
Y-256147D01*
X896258D02*
X897242Y-255164D01*
X899210D01*
X900194Y-256147D01*
Y-260083D01*
X899210Y-261067D01*
X897242D01*
X896258Y-260083D01*
Y-256147D01*
X902162Y-261067D02*
Y-260083D01*
X903146D01*
Y-261067D01*
X902162D01*
X907081D02*
Y-255164D01*
X910033D01*
X911017Y-256147D01*
Y-258115D01*
X910033Y-259099D01*
X907081D01*
X916921Y-257131D02*
X913969D01*
X912985Y-258115D01*
Y-260083D01*
X913969Y-261067D01*
X916921D01*
X918889Y-255164D02*
Y-261067D01*
X921840D01*
X922824Y-260083D01*
Y-259099D01*
Y-258115D01*
X921840Y-257131D01*
X918889D01*
X924792Y-255164D02*
Y-261067D01*
X927744D01*
X928728Y-260083D01*
Y-256147D01*
X927744Y-255164D01*
X924792D01*
X931680Y-261067D02*
X933648D01*
X934632Y-260083D01*
Y-258115D01*
X933648Y-257131D01*
X931680D01*
X930696Y-258115D01*
Y-260083D01*
X931680Y-261067D01*
X940535Y-257131D02*
X937583D01*
X936599Y-258115D01*
Y-260083D01*
X937583Y-261067D01*
X940535D01*
D21*
X314961Y314961D02*
X314961Y-19685D01*
X-19685D02*
X314961D01*
X-19685Y314961D02*
X314961D01*
X-19685D02*
X-19685Y-19685D01*
X265659Y4188D02*
G03*
X264713Y9117I-6777J1255D01*
G01*
X262886Y952D02*
G03*
X265659Y4188I-2366J4834D01*
G01*
X260371Y-122D02*
G03*
X262886Y952I-3910J12635D01*
G01*
X94394Y161794D02*
G03*
X92998Y163855I-15281J-8848D01*
G01*
Y163855D02*
G03*
X91892Y165100I-11425J-9033D01*
G01*
X28940Y-8345D02*
G03*
X33003Y-7393I-1255J14507D01*
G01*
X251963Y-1592D02*
G03*
X258418Y-756I-2375J43684D01*
G01*
X248706Y-1699D02*
G03*
X251963Y-1592I-470J64040D01*
G01*
X245445Y-1665D02*
G03*
X248706Y-1699I2584J91938D01*
G01*
X242192Y-1541D02*
G03*
X245445Y-1665I7751J160005D01*
G01*
X2064Y29588D02*
X2492Y31865D01*
X46999Y153242D02*
X45774Y151173D01*
X7077Y-5720D02*
X7020Y-5617D01*
X7023Y-5511D01*
X7040Y-5399D01*
X7176Y-4800D01*
X7132Y-4595D01*
X6955Y-4497D01*
X6452Y-4456D01*
X105278Y138650D02*
X97753Y154719D01*
X109028Y130610D02*
X105278Y138650D01*
X112777Y122570D02*
X109028Y130610D01*
X116528Y114530D02*
X112777Y122570D01*
X97753Y154719D02*
X94791Y161071D01*
X119135Y109180D02*
X116528Y114530D01*
X121595Y105111D02*
X119135Y109180D01*
X123612Y102289D02*
X121595Y105111D01*
X126603Y98675D02*
X123612Y102289D01*
X129861Y95436D02*
X126603Y98675D01*
X132191Y93408D02*
X129861Y95436D01*
X135509Y90855D02*
X132191Y93408D01*
X136340Y90317D02*
X135509Y90855D01*
X140217Y87939D02*
X136340Y90317D01*
X143807Y85936D02*
X140217Y87939D01*
X206830Y50585D02*
X143807Y85936D01*
X213062Y47089D02*
X206830Y50585D01*
X216204Y45250D02*
X213062Y47089D01*
X224487Y40324D02*
X216204Y45250D01*
X231365Y36239D02*
X224487Y40324D01*
X237401Y32497D02*
X231365Y36239D01*
X243096Y28725D02*
X237401Y32497D01*
X249792Y23975D02*
X243096Y28725D01*
X254253Y20511D02*
X249792Y23975D01*
X257441Y17793D02*
X254253Y20511D01*
X259033Y16364D02*
X257441Y17793D01*
X260484Y14904D02*
X259033Y16364D01*
X261523Y13806D02*
X260484Y14904D01*
X262851Y12202D02*
X261523Y13806D01*
X263447Y11442D02*
X262851Y12202D01*
X264713Y9117D02*
X263447Y11442D01*
X94791Y161071D02*
X94394Y161794D01*
X91892Y165100D02*
X91301Y165681D01*
X90603Y166324D01*
X89683Y167166D01*
X88726Y167975D01*
X87740Y168735D01*
X77855Y175224D02*
X76686Y175968D01*
X79773Y174042D02*
X77855Y175224D01*
X84153Y171197D02*
X79773Y174042D01*
X86981Y169306D02*
X84153Y171197D01*
X87740Y168735D02*
X86981Y169306D01*
X76686Y175968D02*
X76164Y176252D01*
X75612Y176486D01*
X6452Y-4454D02*
X4090Y-4102D01*
X701Y-3494D01*
X-1051Y-2927D01*
X-3052Y-2104D01*
X-3344Y-1965D01*
X-3406Y-1812D01*
X2064Y29588D01*
X2492Y31865D02*
X8060Y63760D01*
X29613Y123205D01*
X45774Y151173D02*
X29613Y123205D01*
X58330Y172798D02*
X46999Y153242D01*
X62627Y180260D02*
X58330Y172798D01*
X63019Y180884D02*
X62627Y180260D01*
X63098Y180938D02*
X63019Y180884D01*
X63168Y180938D02*
X63098Y180938D01*
X65320Y180237D02*
X63168Y180938D01*
X66241Y179914D02*
X65320Y180237D01*
X67287Y179546D02*
X66241Y179914D01*
X68274Y178951D02*
X67287Y179546D01*
X71719Y176907D02*
X68274Y178951D01*
X72469Y176504D02*
X71719Y176907D01*
X72667Y176432D02*
X72469Y176504D01*
X72763Y176503D02*
X72667Y176432D01*
X72862Y176774D02*
X72763Y176503D01*
X73015Y177131D02*
X72862Y176774D01*
X73123Y177234D02*
X73015Y177131D01*
X73449Y177221D02*
X73123Y177234D01*
X74468Y176909D02*
X73449Y177221D01*
X75614Y176492D02*
X74468Y176909D01*
X9135Y-6646D02*
X7944Y-6188D01*
X7077Y-5719D01*
X9664Y-6780D02*
X9135Y-6646D01*
X10209Y-6872D02*
X9664Y-6780D01*
X28108Y-8395D02*
X23837Y-8458D01*
X22780Y-8380D01*
X18908Y-7997D01*
X17923Y-7851D01*
X13789Y-7278D01*
X10209Y-6872D01*
X28940Y-8345D02*
X28108Y-8395D01*
X33773Y-7060D02*
X33003Y-7393D01*
X185854Y6599D02*
X174120Y8794D01*
X168254Y9893D01*
X162389Y11002D01*
X156528Y12129D01*
X242192Y-1541D02*
X240409Y-1446D01*
X238637Y-1356D01*
X236599Y-1216D01*
X233157Y-883D01*
X231097Y-676D01*
X225563Y5D01*
X219900Y815D01*
X215642Y1468D01*
X212024Y2030D01*
X208105Y2642D01*
X203437Y3432D01*
X201207Y3820D01*
X197956Y4354D01*
X195509Y4796D01*
X193073Y5234D01*
X190648Y5704D01*
X188348Y6128D01*
X185854Y6599D01*
X156528Y12129D02*
X154141Y12573D01*
X151643Y13069D01*
X149228Y13499D01*
X146667Y13983D01*
X144325Y14422D01*
X141834Y14904D01*
X139329Y15380D01*
X136896Y15829D01*
X133226Y16539D01*
X130790Y16977D01*
X128305Y17445D01*
X123353Y18363D01*
X120952Y18800D01*
X119578Y19076D01*
X115244Y19910D01*
X114232Y20078D01*
X110104Y20601D01*
X105262Y20817D01*
X101299Y20691D01*
X97633Y20279D01*
X93830Y19587D01*
X92855Y19340D01*
X90007Y18583D01*
X85351Y16974D01*
X79133Y14187D01*
X74343Y11919D01*
X69799Y9773D01*
X64580Y7366D01*
X59521Y4972D01*
X54358Y2556D01*
X49203Y161D01*
X44090Y-2249D01*
X38886Y-4685D01*
X33773Y-7060D01*
X258965Y-614D02*
X258831Y-659D01*
X260371Y-123D02*
X258965Y-614D01*
X258831Y-659D02*
X258418Y-756D01*
X13327Y301858D02*
G03*
X2289Y303216I-7546J-15794D01*
G01*
X80852Y260745D02*
G03*
X76150Y265913I-13186J-7274D01*
G01*
X302747Y275034D02*
G03*
X303703Y275927I-13817J15762D01*
G01*
Y275927D02*
G03*
X304641Y276945I-10916J11001D01*
G01*
X304641Y276945D02*
G03*
X305471Y278065I-8401J7091D01*
G01*
X305471Y278065D02*
G03*
X306452Y280526I-5113J3463D01*
G01*
X306464Y281895D02*
G03*
X305941Y283453I-3805J-410D01*
G01*
Y283453D02*
G03*
X304860Y284761I-4934J-2981D01*
G01*
X304860Y284761D02*
G03*
X303434Y285836I-6690J-7387D01*
G01*
X303434Y285836D02*
G03*
X300406Y287366I-11056J-18119D01*
G01*
X50155Y200144D02*
X141987Y226398D01*
X181357Y237778D02*
X292678Y269670D01*
X181357Y237778D02*
X181357Y114172D01*
X292678Y269670D02*
X301332Y273886D01*
X47675Y204002D02*
X48399Y206181D01*
X37701Y251846D02*
X39654Y247215D01*
X45682Y230373D02*
X46531Y225275D01*
X141987Y114174D02*
Y226398D01*
X-10478Y299669D02*
X-10243Y299778D01*
X-10683Y299533D02*
X-10478Y299669D01*
X-10865Y299358D02*
X-10683Y299533D01*
X-11018Y299157D02*
X-10865Y299358D01*
X-11119Y298934D02*
X-11018Y299157D01*
X-11190Y298686D02*
X-11119Y298934D01*
X13327Y301858D02*
X14084Y301475D01*
X1434Y303021D02*
X2289Y303216D01*
X-8708Y300304D02*
X1434Y303021D01*
X-10243Y299778D02*
X-8708Y300304D01*
X80852Y260745D02*
X81211Y260049D01*
X75494Y266346D02*
X76150Y265913D01*
X236578Y298535D02*
X240112Y299482D01*
X236135Y298519D02*
X236578Y298535D01*
X235633Y298419D02*
X236135Y298519D01*
X231660Y297355D02*
X235633Y298419D01*
X231313Y297193D02*
X231660Y297355D01*
X231041Y297051D02*
X231313Y297193D01*
X82596Y257275D02*
X231041Y297051D01*
X82424Y257321D02*
X82596Y257275D01*
X81873Y258218D02*
X82424Y257321D01*
X81556Y259189D02*
X81873Y258218D01*
X81211Y260049D02*
X81556Y259189D01*
X-11190Y298686D02*
X-11139Y296140D01*
X-10941Y295573D01*
X-8521Y292709D01*
X-7266Y291323D01*
X22224Y258029D01*
X22756Y257460D01*
X23447Y256681D01*
X36621Y255792D01*
X37701Y251846D01*
X39654Y247215D02*
X45682Y230373D01*
X46531Y225275D02*
X46903Y221403D01*
X48029Y209962D01*
X48399Y206182D01*
X35118Y192648D02*
X47675Y204002D01*
X35118Y192648D02*
X35139Y192355D01*
X35756Y191465D01*
X36049Y191486D01*
X36318Y191638D01*
X39348Y193437D01*
X44109Y196320D01*
X46850Y198041D01*
X49567Y199894D01*
X50155Y200144D01*
X301332Y273886D02*
X302747Y275034D01*
X306452Y280526D02*
X306537Y281238D01*
X306464Y281895D02*
X306537Y281238D01*
X299167Y287792D02*
X300406Y287366D01*
X293940Y289008D02*
X299167Y287792D01*
X290130Y289732D02*
X293940Y289008D01*
X285506Y290628D02*
X290130Y289732D01*
X282396Y291138D02*
X285506Y290628D01*
X276212Y292029D02*
X282396Y291138D01*
X268169Y292915D02*
X276212Y292029D01*
X261145Y293811D02*
X268169Y292915D01*
X260385Y294204D02*
X261145Y293811D01*
X255361Y297105D02*
X260385Y294204D01*
X254296Y297738D02*
X255361Y297105D01*
X252647Y298708D02*
X254296Y297738D01*
X251584Y299250D02*
X252647Y298708D01*
X250301Y299755D02*
X251584Y299250D01*
X248752Y300178D02*
X250301Y299755D01*
X247806Y300326D02*
X248752Y300178D01*
X246944Y300417D02*
X247806Y300326D01*
X244933Y300509D02*
X246944Y300417D01*
X243653Y300361D02*
X244933Y300509D01*
X242575Y300187D02*
X243653Y300361D01*
X241729Y299961D02*
X242575Y300187D01*
X240112Y299482D02*
X241729Y299961D01*
X72843Y267931D02*
X75494Y266346D01*
X14187Y301434D02*
X72843Y267931D01*
X14084Y301475D02*
X14187Y301434D01*
X141987Y114174D02*
X143956Y110237D01*
X179389D02*
X181357Y114174D01*
X143956Y110237D02*
X179389D01*
X247613Y120054D02*
G03*
X251944Y120054I2165J0D01*
G01*
Y159424D02*
G03*
X247613Y159424I-2165J0D01*
G01*
X232060Y57087D02*
X267336D01*
X251944Y120054D02*
Y159424D01*
X247613Y120054D02*
Y159424D01*
X294953Y95466D02*
X300173Y116828D01*
X286649Y77123D02*
X294953Y95466D01*
X275826Y63047D02*
X286649Y77123D01*
X267336Y57087D02*
X275826Y63047D01*
X223569D02*
X232060Y57087D01*
X212747Y77123D02*
X223569Y63047D01*
X204442Y95466D02*
X212747Y77123D01*
X199222Y116828D02*
X204442Y95466D01*
X197441Y139752D02*
X199222Y116828D01*
X197441Y139752D02*
X199222Y162675D01*
X204442Y184037D01*
X212747Y202380D01*
X223569Y216456D01*
X236173Y225304D01*
X249697Y228322D01*
X263223Y225304D01*
X275826Y216456D01*
X286649Y202380D01*
X294953Y184037D01*
X300173Y162675D01*
X301954Y139752D01*
X300173Y116828D02*
X301954Y139752D01*
D22*
X1019299Y-202012D02*
Y-194141D01*
X1023235D01*
X1024547Y-195452D01*
Y-198076D01*
X1023235Y-199388D01*
X1019299D01*
X1021923D02*
X1024547Y-202012D01*
X1031106D02*
X1028482D01*
X1027170Y-200700D01*
Y-198076D01*
X1028482Y-196764D01*
X1031106D01*
X1032418Y-198076D01*
Y-199388D01*
X1027170D01*
X1035042Y-196764D02*
X1037666Y-202012D01*
X1040289Y-196764D01*
X664968Y-233511D02*
Y-241382D01*
X668904D01*
X670216Y-240070D01*
Y-234823D01*
X668904Y-233511D01*
X664968D01*
X676775Y-241382D02*
X674152D01*
X672840Y-240070D01*
Y-237446D01*
X674152Y-236134D01*
X676775D01*
X678087Y-237446D01*
Y-238758D01*
X672840D01*
X680711Y-241382D02*
X684647D01*
X685959Y-240070D01*
X684647Y-238758D01*
X682023D01*
X680711Y-237446D01*
X682023Y-236134D01*
X685959D01*
X691207Y-244006D02*
X692518D01*
X693830Y-242694D01*
Y-236134D01*
X689894D01*
X688583Y-237446D01*
Y-240070D01*
X689894Y-241382D01*
X693830D01*
X696454D02*
X699078D01*
X697766D01*
Y-236134D01*
X696454D01*
X703014Y-241382D02*
Y-236134D01*
X706949D01*
X708261Y-237446D01*
Y-241382D01*
X714821D02*
X712197D01*
X710885Y-240070D01*
Y-237446D01*
X712197Y-236134D01*
X714821D01*
X716133Y-237446D01*
Y-238758D01*
X710885D01*
X718757Y-236134D02*
Y-241382D01*
Y-238758D01*
X720069Y-237446D01*
X721381Y-236134D01*
X722692D01*
X861819Y-115400D02*
Y-123272D01*
X865754D01*
X867066Y-121960D01*
Y-116712D01*
X865754Y-115400D01*
X861819D01*
X871002Y-123272D02*
X873626D01*
X874938Y-121960D01*
Y-119336D01*
X873626Y-118024D01*
X871002D01*
X869690Y-119336D01*
Y-121960D01*
X871002Y-123272D01*
X882809Y-118024D02*
X878874D01*
X877561Y-119336D01*
Y-121960D01*
X878874Y-123272D01*
X882809D01*
X885433Y-118024D02*
Y-121960D01*
X886745Y-123272D01*
X890681D01*
Y-118024D01*
X893305Y-123272D02*
Y-118024D01*
X894616D01*
X895928Y-119336D01*
Y-123272D01*
Y-119336D01*
X897240Y-118024D01*
X898552Y-119336D01*
Y-123272D01*
X905112D02*
X902488D01*
X901176Y-121960D01*
Y-119336D01*
X902488Y-118024D01*
X905112D01*
X906424Y-119336D01*
Y-120648D01*
X901176D01*
X909048Y-123272D02*
Y-118024D01*
X912983D01*
X914295Y-119336D01*
Y-123272D01*
X918231Y-116712D02*
Y-118024D01*
X916919D01*
X919543D01*
X918231D01*
Y-121960D01*
X919543Y-123272D01*
X861819Y-154770D02*
Y-162642D01*
X867066D01*
X871002Y-157394D02*
X873626D01*
X874938Y-158706D01*
Y-162642D01*
X871002D01*
X869690Y-161330D01*
X871002Y-160018D01*
X874938D01*
X877561Y-157394D02*
Y-161330D01*
X878874Y-162642D01*
X882809D01*
Y-163954D01*
X881497Y-165266D01*
X880185D01*
X882809Y-162642D02*
Y-157394D01*
X889369Y-162642D02*
X886745D01*
X885433Y-161330D01*
Y-158706D01*
X886745Y-157394D01*
X889369D01*
X890681Y-158706D01*
Y-160018D01*
X885433D01*
X893305Y-157394D02*
Y-162642D01*
Y-160018D01*
X894616Y-158706D01*
X895928Y-157394D01*
X897240D01*
X909048Y-162642D02*
Y-154770D01*
X914295Y-162642D01*
Y-154770D01*
X918231Y-157394D02*
X920855D01*
X922167Y-158706D01*
Y-162642D01*
X918231D01*
X916919Y-161330D01*
X918231Y-160018D01*
X922167D01*
X924790Y-162642D02*
Y-157394D01*
X926102D01*
X927414Y-158706D01*
Y-162642D01*
Y-158706D01*
X928726Y-157394D01*
X930038Y-158706D01*
Y-162642D01*
X936598D02*
X933974D01*
X932662Y-161330D01*
Y-158706D01*
X933974Y-157394D01*
X936598D01*
X937910Y-158706D01*
Y-160018D01*
X932662D01*
X861819Y-194141D02*
Y-202012D01*
X865754D01*
X867066Y-200700D01*
Y-195452D01*
X865754Y-194141D01*
X861819D01*
X871002Y-196764D02*
X873626D01*
X874938Y-198076D01*
Y-202012D01*
X871002D01*
X869690Y-200700D01*
X871002Y-199388D01*
X874938D01*
X878874Y-195452D02*
Y-196764D01*
X877561D01*
X880185D01*
X878874D01*
Y-200700D01*
X880185Y-202012D01*
X888057D02*
X885433D01*
X884121Y-200700D01*
Y-198076D01*
X885433Y-196764D01*
X888057D01*
X889369Y-198076D01*
Y-199388D01*
X884121D01*
X861819Y-233511D02*
Y-241382D01*
X865754D01*
X867066Y-240070D01*
Y-234823D01*
X865754Y-233511D01*
X861819D01*
X871002Y-241382D02*
X873626D01*
X874938Y-240070D01*
Y-237446D01*
X873626Y-236134D01*
X871002D01*
X869690Y-237446D01*
Y-240070D01*
X871002Y-241382D01*
X882809Y-236134D02*
X878874D01*
X877561Y-237446D01*
Y-240070D01*
X878874Y-241382D01*
X882809D01*
X885433Y-236134D02*
Y-240070D01*
X886745Y-241382D01*
X890681D01*
Y-236134D01*
X893305Y-241382D02*
Y-236134D01*
X894616D01*
X895928Y-237446D01*
Y-241382D01*
Y-237446D01*
X897240Y-236134D01*
X898552Y-237446D01*
Y-241382D01*
X905112D02*
X902488D01*
X901176Y-240070D01*
Y-237446D01*
X902488Y-236134D01*
X905112D01*
X906424Y-237446D01*
Y-238758D01*
X901176D01*
X909048Y-241382D02*
Y-236134D01*
X912983D01*
X914295Y-237446D01*
Y-241382D01*
X918231Y-234823D02*
Y-236134D01*
X916919D01*
X919543D01*
X918231D01*
Y-240070D01*
X919543Y-241382D01*
D56*
X18312Y99308D02*
X20280D01*
X19296Y98324D02*
Y100293D01*
X14542Y88949D02*
X16510D01*
X15526Y87965D02*
Y89934D01*
X15484Y91539D02*
X17453D01*
X16468Y90555D02*
Y92523D01*
X16427Y94129D02*
X18395D01*
X17411Y93145D02*
Y95113D01*
X17369Y96719D02*
X19338D01*
X18354Y95734D02*
Y97703D01*
X167512Y8061D02*
X169481D01*
X168496Y7077D02*
Y9045D01*
X170226Y7582D02*
X172195D01*
X171210Y6598D02*
Y8567D01*
X178368Y6147D02*
X180337D01*
X179352Y5162D02*
Y7131D01*
X175654Y6625D02*
X177623D01*
X176638Y5641D02*
Y7610D01*
X172940Y7104D02*
X174909D01*
X173924Y6120D02*
Y8088D01*
X201109Y55011D02*
X203077D01*
X202093Y54027D02*
Y55996D01*
X198698Y56347D02*
X200667D01*
X199682Y55363D02*
Y57332D01*
X196288Y57683D02*
X198256D01*
X197272Y56699D02*
Y58668D01*
X193877Y59020D02*
X195846D01*
X194862Y58035D02*
Y60004D01*
X191467Y60356D02*
X193436D01*
X192451Y59371D02*
Y61340D01*
X156127Y278907D02*
X158095D01*
X157111Y277923D02*
Y279891D01*
X158789Y279620D02*
X160757D01*
X159773Y278636D02*
Y280605D01*
X153465Y278194D02*
X155433D01*
X154449Y277209D02*
Y279178D01*
X161451Y280334D02*
X163419D01*
X162435Y279349D02*
Y281318D01*
X150803Y277481D02*
X152771D01*
X151787Y276496D02*
Y278465D01*
X181982Y179625D02*
X183950D01*
X182966Y178640D02*
Y180609D01*
X181982Y182381D02*
X183950D01*
X182966Y181396D02*
Y183365D01*
X181982Y185137D02*
X183950D01*
X182966Y184152D02*
Y186121D01*
X181982Y176869D02*
X183950D01*
X182966Y175885D02*
Y177853D01*
X181982Y187892D02*
X183950D01*
X182966Y186908D02*
Y188877D01*
X139394Y187892D02*
X141363D01*
X140378Y186908D02*
Y188877D01*
X139394Y176869D02*
X141363D01*
X140378Y175885D02*
Y177853D01*
X139394Y185137D02*
X141363D01*
X140378Y184152D02*
Y186121D01*
X139394Y182381D02*
X141363D01*
X140378Y181396D02*
Y183365D01*
X139394Y179625D02*
X141363D01*
X140378Y178640D02*
Y180609D01*
X299300Y169195D02*
X301269D01*
X300284Y168211D02*
Y170179D01*
X298680Y171880D02*
X300648D01*
X299664Y170896D02*
Y172865D01*
X298060Y174566D02*
X300029D01*
X299044Y173581D02*
Y175550D01*
X297440Y177251D02*
X299409D01*
X298424Y176267D02*
Y178235D01*
X296820Y179936D02*
X298789D01*
X297804Y178952D02*
Y180920D01*
X198126Y169193D02*
X200095D01*
X199110Y168209D02*
Y170177D01*
X198746Y171878D02*
X200714D01*
X199730Y170894D02*
Y172863D01*
X199366Y174564D02*
X201334D01*
X200350Y173580D02*
Y175548D01*
X199986Y177249D02*
X201954D01*
X200970Y176265D02*
Y178233D01*
X200606Y179934D02*
X202574D01*
X201590Y178950D02*
Y180919D01*
X299300Y110308D02*
X301269D01*
X300284Y109324D02*
Y111292D01*
X298680Y107623D02*
X300648D01*
X299664Y106639D02*
Y108607D01*
X298060Y104937D02*
X300029D01*
X299044Y103953D02*
Y105922D01*
X297440Y102252D02*
X299409D01*
X298424Y101268D02*
Y103236D01*
X296820Y99567D02*
X298789D01*
X297804Y98583D02*
Y100551D01*
X200606Y99569D02*
X202574D01*
X201590Y98585D02*
Y100553D01*
X199986Y102254D02*
X201954D01*
X200970Y101270D02*
Y103238D01*
X199366Y104939D02*
X201334D01*
X200350Y103955D02*
Y105924D01*
X198746Y107625D02*
X200714D01*
X199730Y106640D02*
Y108609D01*
X198126Y110310D02*
X200095D01*
X199110Y109326D02*
Y111294D01*
X117590Y56794D02*
X121921D01*
X119756Y54629D02*
Y58960D01*
X28257Y102883D02*
X31801D01*
X30029Y101111D02*
Y104654D01*
X31678Y112279D02*
X35221D01*
X33449Y110508D02*
Y114051D01*
X16139Y69586D02*
X19682D01*
X17910Y67815D02*
Y71358D01*
X19559Y78983D02*
X23102D01*
X21330Y77212D02*
Y80755D01*
X123726Y47646D02*
X124710D01*
X124218Y47153D02*
Y48138D01*
X108671Y53125D02*
X109655D01*
X109163Y52633D02*
Y53617D01*
X44433Y246956D02*
X47977D01*
X46205Y245185D02*
Y248728D01*
X47021Y237297D02*
X50565D01*
X48793Y235525D02*
Y239069D01*
X265249Y66535D02*
X268005D01*
X266627Y65158D02*
Y67913D01*
X231390Y66535D02*
X234146D01*
X232768Y65158D02*
Y67913D01*
X248320Y66535D02*
X251075D01*
X249697Y65158D02*
Y67913D01*
X256194Y66535D02*
X258949D01*
X257572Y65158D02*
Y67913D01*
X240445Y66535D02*
X243201D01*
X241824Y65158D02*
Y67913D01*
X256275Y139739D02*
X257456D01*
X256865Y139149D02*
Y140330D01*
X242101Y139739D02*
X243283D01*
X242692Y139149D02*
Y140330D01*
M02*
